<svg id="_1_50" data-name="1,50" xmlns="http://www.w3.org/2000/svg" width="131" height="63" viewBox="0 0 131 63">
  <defs>
    <style>
      .cls-1 {
        fill: #fff;
      }

      .cls-2 {
        fill-rule: evenodd;
      }
    </style>
  </defs>
  <rect id="_fff" data-name="#fff" class="cls-1" width="131" height="63"/>
  <path id="_1" data-name="1" class="cls-2" d="M65.436,731.348a53.752,53.752,0,0,0,5.22-1.608v31.078h11.8v-43.8h-8.88a20.233,20.233,0,0,1-6.2,4.018,35.052,35.052,0,0,1-7.152,2.077v9.243A44.6,44.6,0,0,0,65.436,731.348Z" transform="translate(-18 -707)"/>
  <path id="_50" data-name="50" class="cls-2" d="M103.356,730.137a3.449,3.449,0,0,1,3.211-1.969,2.788,2.788,0,0,1,2.214,1.039,5.952,5.952,0,0,1,.074,6.126,2.7,2.7,0,0,1-2.251,1.039,2.988,2.988,0,0,1-2.085-.657,3.518,3.518,0,0,1-.978-2H97.378a7.263,7.263,0,0,0,2.786,5.159,10.02,10.02,0,0,0,6.329,1.878,12.136,12.136,0,0,0,5.2-1.039,7.886,7.886,0,0,0,3.432-2.99,8.528,8.528,0,0,0,1.218-4.612,8.387,8.387,0,0,0-1-4.157,7.074,7.074,0,0,0-2.8-2.789,8.617,8.617,0,0,0-4.244-1,7.256,7.256,0,0,0-2.417.383,7.433,7.433,0,0,0-1.974,1.039l0.332-4.558h10.592v-4.7H99.3l-0.96,13.819h5.019Zm30.169,9.079a9.03,9.03,0,0,0,3.211-4.339,21.456,21.456,0,0,0,0-13.272,9.03,9.03,0,0,0-3.211-4.339,10.443,10.443,0,0,0-10.887,0,9.029,9.029,0,0,0-3.21,4.339,21.456,21.456,0,0,0,0,13.272,9.029,9.029,0,0,0,3.21,4.339A10.443,10.443,0,0,0,133.525,739.216Zm-7.787-4.886a26.142,26.142,0,0,1,0-12.178,2.379,2.379,0,0,1,4.687,0,26.107,26.107,0,0,1,0,12.178A2.379,2.379,0,0,1,125.738,734.33Z" transform="translate(-18 -707)"/>
  <path id="_" data-name="€" class="cls-2" d="M46.5,739.918a7.807,7.807,0,0,0,2.915-2.516,9.213,9.213,0,0,0,1.532-3.9H47.7a6.217,6.217,0,0,1-1.845,3.537,4.75,4.75,0,0,1-3.248,1.2,4.837,4.837,0,0,1-3.856-1.75,9.573,9.573,0,0,1-1.974-4.849h7.418l0.332-2.115H36.55q-0.037-.619-0.037-1.276,0-.62.037-1.167h8.377l0.332-2.078H36.735a10.084,10.084,0,0,1,1.993-4.9,4.8,4.8,0,0,1,3.875-1.768,4.539,4.539,0,0,1,3.211,1.239A6.426,6.426,0,0,1,47.622,723h3.285a9.253,9.253,0,0,0-1.587-3.811A8.143,8.143,0,0,0,42.6,715.78a8.326,8.326,0,0,0-4.447,1.167,9.3,9.3,0,0,0-3.137,3.245,13.56,13.56,0,0,0-1.679,4.813H31.384v2.078h1.735c-0.025.389-.037,0.779-0.037,1.167q0,0.657.037,1.276H31.384v2.115H33.34a12.414,12.414,0,0,0,3.082,6.636,8.124,8.124,0,0,0,6.181,2.516A8.6,8.6,0,0,0,46.5,739.918Z" transform="translate(-18 -707)"/>
</svg>
