<svg 
 xmlns="http://www.w3.org/2000/svg"
 xmlns:xlink="http://www.w3.org/1999/xlink"
 width="4.233cm" height="2.222cm">
<path fill-rule="evenodd"  fill="rgb(255, 255, 255)"
 d="M-0.000,-0.000 L120.000,-0.000 L120.000,63.000 L-0.000,63.000 L-0.000,-0.000 Z"/>
<path fill-rule="evenodd"  fill="rgb(0, 0, 0)"
 d="M58.409,52.083 C61.039,50.208 62.995,47.552 64.276,44.112 C65.557,40.674 66.198,36.610 66.198,31.922 C66.198,27.233 65.557,23.170 64.276,19.731 C62.995,16.293 61.039,13.635 58.409,11.760 C55.779,9.884 52.464,8.947 48.463,8.947 C44.461,8.947 41.147,9.884 38.517,11.760 C35.887,13.635 33.931,16.293 32.650,19.731 C31.369,23.170 30.728,27.233 30.728,31.922 C30.728,36.610 31.369,40.674 32.650,44.112 C33.931,47.552 35.887,50.208 38.517,52.083 C41.147,53.959 44.461,54.897 48.463,54.897 C52.464,54.897 55.779,53.959 58.409,52.083 ZM44.181,43.108 C43.304,40.696 42.866,36.968 42.866,31.922 C42.866,26.876 43.304,23.147 44.181,20.735 C45.058,18.324 46.484,17.118 48.463,17.118 C50.441,17.118 51.868,18.324 52.745,20.735 C53.622,23.147 54.060,26.876 54.060,31.922 C54.060,36.968 53.622,40.696 52.745,43.108 C51.868,45.519 50.441,46.725 48.463,46.725 C46.484,46.725 45.058,45.519 44.181,43.108 Z"/>
<path fill-rule="evenodd"  fill="rgb(0, 0, 0)"
 d="M107.781,27.882 C107.084,29.754 106.019,31.200 104.587,32.221 C103.156,33.242 101.351,33.753 99.173,33.753 C96.994,33.753 95.190,33.242 93.758,32.221 C92.326,31.200 91.262,29.754 90.564,27.882 C89.867,26.010 89.518,23.798 89.518,21.245 C89.518,18.693 89.867,16.481 90.564,14.609 C91.262,12.737 92.326,11.290 93.758,10.269 C95.190,9.248 96.994,8.738 99.173,8.738 C101.351,8.738 103.156,9.248 104.587,10.269 C106.019,11.290 107.084,12.737 107.781,14.609 C108.479,16.481 108.827,18.693 108.827,21.245 C108.827,23.798 108.479,26.010 107.781,27.882 ZM101.504,15.156 C101.027,13.843 100.249,13.187 99.173,13.187 C98.096,13.187 97.319,13.843 96.842,15.156 C96.364,16.468 96.126,18.498 96.126,21.245 C96.126,23.993 96.364,26.022 96.842,27.335 C97.319,28.648 98.096,29.304 99.173,29.304 C100.249,29.304 101.027,28.648 101.504,27.335 C101.981,26.022 102.220,23.993 102.220,21.245 C102.220,18.498 101.981,16.468 101.504,15.156 ZM82.874,32.713 C81.406,33.406 79.680,33.753 77.698,33.753 C75.104,33.753 73.005,33.127 71.402,31.875 C69.799,30.623 68.875,28.903 68.631,26.715 L74.761,26.715 C74.932,27.615 75.257,28.283 75.734,28.720 C76.211,29.158 76.903,29.377 77.808,29.377 C78.763,29.377 79.509,29.030 80.048,28.338 C80.586,27.645 80.855,26.654 80.855,25.366 C80.855,23.956 80.561,22.904 79.974,22.211 C79.387,21.519 78.653,21.172 77.772,21.172 C76.352,21.172 75.287,21.829 74.578,23.141 L69.585,23.141 L70.540,9.321 L85.994,9.321 L85.994,14.025 L75.459,14.025 L75.128,18.583 C75.716,18.146 76.370,17.799 77.092,17.544 C77.814,17.289 78.616,17.161 79.497,17.161 C81.112,17.161 82.519,17.496 83.719,18.164 C84.917,18.833 85.848,19.763 86.508,20.953 C87.169,22.145 87.500,23.530 87.500,25.110 C87.500,26.885 87.096,28.423 86.288,29.723 C85.481,31.024 84.343,32.020 82.874,32.713 Z"/>
<path fill-rule="evenodd"  fill="rgb(0, 0, 0)"
 d="M20.970,32.923 C22.132,32.340 23.100,31.501 23.870,30.407 C24.641,29.313 25.149,28.013 25.394,26.505 L22.163,26.505 C21.845,28.061 21.233,29.240 20.328,30.042 C19.422,30.845 18.346,31.246 17.098,31.246 C15.531,31.246 14.253,30.662 13.261,29.495 C12.270,28.329 11.615,26.712 11.297,24.646 L18.676,24.646 L19.006,22.531 L11.077,22.531 C11.053,22.118 11.041,21.692 11.041,21.254 C11.041,20.841 11.053,20.452 11.077,20.088 L19.410,20.088 L19.741,18.009 L11.261,18.009 C11.603,15.919 12.264,14.284 13.243,13.105 C14.222,11.926 15.506,11.336 17.098,11.336 C18.346,11.336 19.410,11.750 20.291,12.576 C21.172,13.403 21.772,14.545 22.090,16.004 L25.357,16.004 C25.088,14.545 24.562,13.275 23.779,12.193 C22.995,11.112 22.029,10.273 20.879,9.677 C19.728,9.082 18.468,8.784 17.098,8.784 C15.409,8.784 13.934,9.173 12.674,9.950 C11.413,10.729 10.373,11.810 9.554,13.196 C8.734,14.581 8.177,16.186 7.884,18.009 L5.938,18.009 L5.938,20.088 L7.663,20.088 C7.639,20.477 7.627,20.866 7.627,21.254 C7.627,21.692 7.639,22.118 7.663,22.531 L5.938,22.531 L5.938,24.646 L7.884,24.646 C8.348,27.393 9.370,29.605 10.949,31.282 C12.527,32.960 14.577,33.798 17.098,33.798 C18.517,33.798 19.808,33.506 20.970,32.923 Z"/>
</svg>