<svg id="_2" data-name="2" xmlns="http://www.w3.org/2000/svg" width="131" height="63" viewBox="0 0 131 63">
  <defs>
    <style>
      .cls-1 {
        fill: #fff;
      }

      .cls-2 {
        fill-rule: evenodd;
      }
    </style>
  </defs>
  <rect id="_fff" data-name="#fff" class="cls-1" width="131" height="63"/>
  <path id="_2-2" data-name="2" class="cls-2" d="M187.789,964.818v-8.64H168.062a4.969,4.969,0,0,1,1.525-2.211,38.323,38.323,0,0,1,3.356-2.612L179.18,947a22.242,22.242,0,0,0,6.406-6.363,14.006,14.006,0,0,0,2-7.434,12.273,12.273,0,0,0-2-7,13.118,13.118,0,0,0-5.593-4.622,20.085,20.085,0,0,0-8.406-1.641q-7.728,0-12.473,4.253t-5.152,11.889h11.253a12.874,12.874,0,0,1,1.695-6.129,4.472,4.472,0,0,1,3.931-1.976,4.317,4.317,0,0,1,3.525,1.474,6.451,6.451,0,0,1,1.221,4.219,7.089,7.089,0,0,1-1.221,4.12,16.923,16.923,0,0,1-4.135,3.851l-5.491,3.884a29.157,29.157,0,0,0-8.1,8.071,18.179,18.179,0,0,0-2.542,9.745v1.474h33.692Z" transform="translate(-111 -911)"/>
  <path id="_00" data-name="00" class="cls-2" d="M205.6,943.216a9.037,9.037,0,0,0,3.211-4.339,21.475,21.475,0,0,0,0-13.272,9.037,9.037,0,0,0-3.211-4.339,10.443,10.443,0,0,0-10.887,0,9.037,9.037,0,0,0-3.211,4.339,21.475,21.475,0,0,0,0,13.272,9.037,9.037,0,0,0,3.211,4.339A10.443,10.443,0,0,0,205.6,943.216Zm-7.787-4.886a26.107,26.107,0,0,1,0-12.178,2.379,2.379,0,0,1,4.687,0,26.107,26.107,0,0,1,0,12.178A2.379,2.379,0,0,1,197.814,938.33Zm29.413,4.886a9.029,9.029,0,0,0,3.21-4.339,21.456,21.456,0,0,0,0-13.272,9.029,9.029,0,0,0-3.21-4.339,10.443,10.443,0,0,0-10.887,0,9.03,9.03,0,0,0-3.211,4.339,21.475,21.475,0,0,0,0,13.272,9.03,9.03,0,0,0,3.211,4.339A10.443,10.443,0,0,0,227.227,943.216Zm-7.787-4.886a26.107,26.107,0,0,1,0-12.178,2.379,2.379,0,0,1,4.687,0,26.142,26.142,0,0,1,0,12.178A2.379,2.379,0,0,1,219.44,938.33Z" transform="translate(-111 -911)"/>
  <path id="_" data-name="€" class="cls-2" d="M139.5,943.918a7.808,7.808,0,0,0,2.915-2.516,9.21,9.21,0,0,0,1.532-3.9H140.7a6.216,6.216,0,0,1-1.845,3.537,4.749,4.749,0,0,1-3.247,1.2,4.837,4.837,0,0,1-3.857-1.75,9.573,9.573,0,0,1-1.974-4.849h7.417l0.333-2.115H129.55q-0.038-.619-0.037-1.276,0-.62.037-1.167h8.377l0.333-2.078h-8.525a10.076,10.076,0,0,1,1.993-4.9,4.8,4.8,0,0,1,3.875-1.768,4.539,4.539,0,0,1,3.21,1.239A6.424,6.424,0,0,1,140.621,927h3.285a9.254,9.254,0,0,0-1.587-3.811,8.572,8.572,0,0,0-11.163-2.242,9.3,9.3,0,0,0-3.137,3.245,13.546,13.546,0,0,0-1.679,4.813h-1.956v2.078h1.734c-0.025.389-.037,0.779-0.037,1.167q0,0.657.037,1.276h-1.734v2.115h1.956a12.412,12.412,0,0,0,3.081,6.636,8.125,8.125,0,0,0,6.182,2.516A8.6,8.6,0,0,0,139.5,943.918Z" transform="translate(-111 -911)"/>
</svg>
