<svg 
 xmlns="http://www.w3.org/2000/svg"
 xmlns:xlink="http://www.w3.org/1999/xlink"
 width="15.169cm" height="7.056cm">
<text kerning="auto" font-family="Myriad Pro" fill="rgb(0, 0, 0)" transform="matrix( 5.73615696458776, 0, 0, 5.73615696458776,377.333616124349, 175.324143330896)" font-size="4.881px"><tspan font-size="4.881px" font-family="Speedee" fill="#000000">&#42;&#42;</tspan></text>
<path fill-rule="evenodd"  fill="rgb(0, 0, 0)"
 d="M406.251,128.042 C405.815,127.540 405.190,127.288 404.377,127.288 C403.621,127.288 403.040,127.488 402.634,127.887 C402.226,128.286 402.023,128.767 402.023,129.328 C402.023,129.860 402.198,130.326 402.546,130.725 C402.895,131.124 403.534,131.442 404.464,131.678 L407.602,132.476 C410.100,133.127 411.872,133.962 412.918,134.981 C413.964,136.001 414.487,137.384 414.487,139.127 C414.487,141.433 413.616,143.214 411.872,144.470 C410.129,145.727 407.703,146.355 404.595,146.355 C401.486,146.355 399.053,145.697 397.295,144.382 C395.537,143.067 394.528,141.182 394.266,138.728 L401.457,138.728 C401.602,139.941 401.994,140.776 402.634,141.234 C403.272,141.692 403.955,141.921 404.682,141.921 C405.524,141.921 406.178,141.737 406.643,141.367 C407.107,140.997 407.340,140.532 407.340,139.970 C407.340,139.468 407.144,138.994 406.752,138.551 C406.360,138.108 405.626,137.738 404.551,137.442 L400.890,136.467 C399.001,135.965 397.527,135.196 396.467,134.161 C395.406,133.127 394.876,131.693 394.876,129.860 C394.876,128.294 395.312,126.993 396.184,125.958 C397.055,124.924 398.232,124.148 399.714,123.630 C401.195,123.113 402.866,122.854 404.725,122.854 C407.456,122.854 409.621,123.475 411.219,124.717 C412.816,125.958 413.818,127.747 414.226,130.082 L407.079,130.082 C406.962,129.225 406.686,128.545 406.251,128.042 ZM379.510,140.435 C380.193,141.278 381.043,141.699 382.060,141.699 C382.989,141.699 383.716,141.448 384.239,140.945 C384.762,140.443 385.125,139.734 385.328,138.817 L392.388,138.817 C391.807,141.330 390.580,143.214 388.706,144.470 C386.832,145.727 384.602,146.355 382.016,146.355 C379.953,146.355 378.079,145.926 376.395,145.069 C374.709,144.212 373.373,142.918 372.385,141.189 C371.397,139.460 370.904,137.265 370.904,134.605 C370.904,132.210 371.361,130.134 372.276,128.375 C373.191,126.616 374.470,125.256 376.111,124.295 C377.752,123.335 379.663,122.854 381.842,122.854 C384.137,122.854 386.091,123.350 387.703,124.340 C389.316,125.330 390.543,126.712 391.386,128.486 C392.228,130.259 392.650,132.329 392.650,134.693 L392.650,136.157 L378.225,136.157 C378.399,138.167 378.828,139.593 379.510,140.435 ZM385.328,132.565 C385.212,130.969 384.863,129.727 384.282,128.840 C383.701,127.953 382.888,127.510 381.842,127.510 C380.854,127.510 380.033,127.947 379.380,128.818 C378.726,129.690 378.341,130.940 378.225,132.565 L385.328,132.565 ZM373.904,180.719 L368.762,180.719 L367.411,160.411 L375.212,160.411 L373.904,180.719 ZM371.290,182.581 C372.423,182.581 373.366,182.951 374.122,183.690 C374.877,184.429 375.255,185.390 375.255,186.572 C375.255,187.666 374.863,188.605 374.079,189.388 C373.294,190.170 372.364,190.563 371.290,190.563 C370.185,190.563 369.256,190.170 368.500,189.388 C367.745,188.605 367.367,187.666 367.367,186.572 C367.367,185.390 367.745,184.429 368.500,183.690 C369.256,182.951 370.185,182.581 371.290,182.581 ZM360.102,142.143 C358.736,144.951 356.529,146.355 353.478,146.355 C351.706,146.355 350.158,145.845 348.837,144.825 C347.514,143.805 346.498,142.409 345.786,140.635 C345.074,138.861 344.719,136.851 344.719,134.605 C344.719,132.299 345.096,130.259 345.852,128.486 C346.607,126.712 347.660,125.330 349.011,124.340 C350.362,123.350 351.938,122.854 353.739,122.854 C354.901,122.854 356.006,123.128 357.052,123.675 C358.097,124.222 358.940,125.027 359.579,126.091 L359.579,114.740 L366.988,114.740 L366.988,145.778 L360.364,145.778 L360.102,142.143 ZM359.666,134.206 C359.666,132.284 359.324,130.784 358.642,129.705 C357.959,128.626 357.080,128.086 356.006,128.086 C354.814,128.086 353.914,128.700 353.304,129.927 C352.694,131.154 352.388,132.713 352.388,134.605 C352.388,136.497 352.694,138.063 353.304,139.305 C353.914,140.546 354.814,141.167 356.006,141.167 C357.080,141.167 357.959,140.628 358.642,139.549 C359.324,138.470 359.666,136.955 359.666,135.004 L359.666,134.206 ZM348.591,171.186 C349.142,169.974 350.007,169.006 351.184,168.281 C352.360,167.557 353.762,167.195 355.389,167.195 C357.743,167.195 359.595,167.927 360.946,169.390 C362.297,170.853 362.972,172.826 362.972,175.309 L362.972,190.119 L355.564,190.119 L355.564,176.462 C355.564,175.280 355.316,174.341 354.823,173.647 C354.328,172.952 353.588,172.605 352.600,172.605 C351.699,172.605 350.901,172.997 350.203,173.780 C349.506,174.563 349.157,175.797 349.157,177.482 L349.157,190.119 L341.749,190.119 L341.749,167.771 L348.373,167.771 L348.591,171.186 ZM325.686,184.776 C326.368,185.619 327.218,186.040 328.235,186.040 C329.165,186.040 329.891,185.789 330.414,185.286 C330.937,184.784 331.300,184.074 331.504,183.158 L338.563,183.158 C337.982,185.671 336.755,187.555 334.881,188.811 C333.007,190.068 330.777,190.696 328.192,190.696 C326.128,190.696 324.254,190.267 322.570,189.410 C320.884,188.553 319.548,187.259 318.560,185.530 C317.572,183.801 317.079,181.606 317.079,178.945 C317.079,176.551 317.536,174.475 318.452,172.715 C319.367,170.957 320.645,169.597 322.287,168.636 C323.928,167.676 325.838,167.195 328.017,167.195 C330.312,167.195 332.266,167.690 333.879,168.680 C335.491,169.671 336.718,171.053 337.561,172.826 C338.403,174.600 338.825,176.669 338.825,179.034 L338.825,180.497 L324.400,180.497 C324.574,182.508 325.003,183.934 325.686,184.776 ZM331.504,176.906 C331.387,175.309 331.038,174.068 330.458,173.181 C329.876,172.294 329.063,171.851 328.017,171.851 C327.029,171.851 326.209,172.287 325.555,173.159 C324.901,174.031 324.516,175.280 324.400,176.906 L331.504,176.906 ZM325.014,132.122 C325.014,130.940 324.767,130.001 324.274,129.306 C323.779,128.612 323.038,128.264 322.051,128.264 C321.150,128.264 320.351,128.656 319.654,129.439 C318.957,130.222 318.608,131.456 318.608,133.141 L318.608,145.778 L311.200,145.778 L311.200,123.431 L317.824,123.431 L318.042,126.845 C318.593,125.633 319.458,124.665 320.635,123.941 C321.811,123.217 323.213,122.854 324.840,122.854 C327.193,122.854 329.045,123.586 330.396,125.049 C331.747,126.512 332.423,128.486 332.423,130.969 L332.423,145.778 L325.014,145.778 L325.014,132.122 ZM303.266,120.903 C302.104,120.903 301.123,120.512 300.325,119.728 C299.525,118.945 299.126,117.992 299.126,116.868 C299.126,115.745 299.525,114.792 300.325,114.008 C301.123,113.225 302.104,112.833 303.266,112.833 C304.428,112.833 305.408,113.225 306.208,114.008 C307.006,114.792 307.406,115.745 307.406,116.868 C307.406,117.992 307.006,118.945 306.208,119.728 C305.408,120.512 304.428,120.903 303.266,120.903 ZM303.912,179.034 L303.912,180.497 L289.487,180.497 C289.661,182.508 290.089,183.934 290.772,184.776 C291.455,185.619 292.304,186.040 293.322,186.040 C294.251,186.040 294.978,185.789 295.501,185.286 C296.024,184.784 296.387,184.074 296.590,183.158 L303.650,183.158 C303.069,185.671 301.841,187.555 299.968,188.811 C298.094,190.068 295.864,190.696 293.278,190.696 C291.215,190.696 289.341,190.267 287.656,189.410 C285.971,188.553 284.634,187.259 283.647,185.530 C282.659,183.801 282.165,181.606 282.165,178.945 C282.165,176.551 282.623,174.475 283.538,172.715 C284.453,170.957 285.731,169.597 287.373,168.636 C289.014,167.676 290.925,167.195 293.104,167.195 C295.399,167.195 297.353,167.690 298.965,168.680 C300.578,169.671 301.805,171.053 302.648,172.826 C303.490,174.600 303.912,176.669 303.912,179.034 ZM295.544,173.181 C294.963,172.294 294.150,171.851 293.104,171.851 C292.116,171.851 291.295,172.287 290.642,173.159 C289.988,174.031 289.602,175.280 289.487,176.906 L296.590,176.906 C296.474,175.309 296.125,174.068 295.544,173.181 ZM283.499,140.435 C284.181,141.278 285.031,141.699 286.048,141.699 C286.978,141.699 287.704,141.448 288.227,140.945 C288.750,140.443 289.113,139.734 289.317,138.817 L296.376,138.817 C295.795,141.330 294.568,143.214 292.694,144.470 C290.820,145.727 288.590,146.355 286.005,146.355 C283.941,146.355 282.067,145.926 280.383,145.069 C278.697,144.212 277.361,142.918 276.373,141.189 C275.385,139.460 274.892,137.265 274.892,134.605 C274.892,132.210 275.349,130.134 276.265,128.375 C277.180,126.616 278.458,125.256 280.100,124.295 C281.741,123.335 283.651,122.854 285.830,122.854 C288.125,122.854 290.079,123.350 291.692,124.340 C293.304,125.330 294.531,126.712 295.374,128.486 C296.216,130.259 296.638,132.329 296.638,134.693 L296.638,136.157 L282.213,136.157 C282.387,138.167 282.816,139.593 283.499,140.435 ZM289.317,132.565 C289.200,130.969 288.851,129.727 288.271,128.840 C287.689,127.953 286.876,127.510 285.830,127.510 C284.842,127.510 284.022,127.947 283.368,128.818 C282.714,129.690 282.329,130.940 282.213,132.565 L289.317,132.565 ZM278.568,158.349 C279.367,159.133 279.766,160.086 279.766,161.209 C279.766,162.333 279.367,163.286 278.568,164.069 C277.769,164.853 276.788,165.244 275.626,165.244 C274.464,165.244 273.484,164.853 272.685,164.069 C271.885,163.286 271.486,162.333 271.486,161.209 C271.486,160.086 271.885,159.133 272.685,158.349 C273.484,157.566 274.464,157.174 275.626,157.174 C276.788,157.174 277.769,157.566 278.568,158.349 ZM263.916,132.122 C263.916,130.940 263.669,130.001 263.175,129.306 C262.681,128.612 261.940,128.264 260.953,128.264 C260.052,128.264 259.253,128.656 258.556,129.439 C257.858,130.222 257.510,131.456 257.510,133.141 L257.510,145.778 L250.101,145.778 L250.101,114.740 L257.510,114.740 L257.510,126.402 C258.120,125.308 258.955,124.444 260.016,123.808 C261.076,123.172 262.318,122.854 263.742,122.854 C266.095,122.854 267.947,123.586 269.298,125.049 C270.649,126.512 271.324,128.486 271.324,130.969 L271.324,145.778 L263.916,145.778 L263.916,132.122 ZM236.587,141.477 C237.343,141.477 237.975,141.182 238.483,140.591 C238.991,140.000 239.362,138.950 239.594,137.442 L246.872,137.442 C246.552,139.512 245.884,141.204 244.868,142.519 C243.850,143.835 242.623,144.803 241.185,145.424 C239.747,146.044 238.214,146.355 236.587,146.355 C234.496,146.355 232.607,145.911 230.922,145.025 C229.237,144.138 227.900,142.815 226.913,141.056 C225.925,139.298 225.431,137.147 225.431,134.605 C225.431,132.151 225.925,130.045 226.913,128.286 C227.900,126.528 229.237,125.182 230.922,124.251 C232.607,123.320 234.496,122.854 236.587,122.854 C238.272,122.854 239.848,123.172 241.316,123.808 C242.783,124.444 244.003,125.397 244.977,126.668 C245.950,127.939 246.552,129.535 246.785,131.456 L239.464,131.456 C239.231,130.126 238.868,129.173 238.374,128.596 C237.880,128.020 237.285,127.732 236.587,127.732 C235.657,127.732 234.844,128.249 234.147,129.284 C233.450,130.319 233.101,132.092 233.101,134.605 C233.101,137.088 233.450,138.854 234.147,139.903 C234.844,140.953 235.657,141.477 236.587,141.477 ZM231.613,167.195 C234.344,167.195 236.508,167.816 238.107,169.057 C239.704,170.299 240.706,172.088 241.114,174.423 L233.966,174.423 C233.850,173.566 233.574,172.886 233.138,172.383 C232.703,171.881 232.078,171.629 231.265,171.629 C230.509,171.629 229.928,171.829 229.521,172.228 C229.114,172.627 228.911,173.108 228.911,173.669 C228.911,174.201 229.086,174.666 229.434,175.065 C229.783,175.465 230.422,175.783 231.352,176.019 L234.489,176.817 C236.988,177.468 238.760,178.302 239.806,179.322 C240.852,180.342 241.375,181.724 241.375,183.468 C241.375,185.774 240.503,187.555 238.760,188.811 C237.017,190.068 234.591,190.696 231.482,190.696 C228.373,190.696 225.940,190.038 224.183,188.722 C222.425,187.407 221.416,185.523 221.154,183.069 L228.345,183.069 C228.490,184.281 228.882,185.116 229.521,185.574 C230.160,186.033 230.843,186.262 231.570,186.262 C232.412,186.262 233.066,186.077 233.531,185.707 C233.995,185.338 234.228,184.872 234.228,184.311 C234.228,183.808 234.032,183.335 233.640,182.892 C233.247,182.448 232.513,182.079 231.439,181.783 L227.778,180.808 C225.889,180.305 224.415,179.537 223.355,178.502 C222.294,177.468 221.764,176.034 221.764,174.201 C221.764,172.634 222.200,171.334 223.072,170.299 C223.943,169.264 225.120,168.489 226.602,167.971 C228.083,167.454 229.754,167.195 231.613,167.195 ZM212.440,131.678 L215.578,132.476 C218.076,133.127 219.849,133.962 220.895,134.981 C221.941,136.001 222.464,137.384 222.464,139.127 C222.464,141.433 221.592,143.214 219.849,144.470 C218.106,145.727 215.679,146.355 212.571,146.355 C209.462,146.355 207.029,145.697 205.271,144.382 C203.513,143.067 202.504,141.182 202.243,138.728 L209.433,138.728 C209.578,139.941 209.971,140.776 210.610,141.234 C211.249,141.692 211.932,141.921 212.658,141.921 C213.501,141.921 214.154,141.737 214.619,141.367 C215.084,140.997 215.317,140.532 215.317,139.970 C215.317,139.468 215.120,138.994 214.728,138.551 C214.336,138.108 213.602,137.738 212.527,137.442 L208.867,136.467 C206.978,135.965 205.504,135.196 204.443,134.161 C203.383,133.127 202.853,131.693 202.853,129.860 C202.853,128.294 203.289,126.993 204.160,125.958 C205.032,124.924 206.208,124.148 207.690,123.630 C209.172,123.113 210.842,122.854 212.702,122.854 C215.432,122.854 217.597,123.475 219.195,124.717 C220.793,125.958 221.795,127.747 222.202,130.082 L215.055,130.082 C214.939,129.225 214.663,128.545 214.227,128.042 C213.791,127.540 213.166,127.288 212.353,127.288 C211.597,127.288 211.016,127.488 210.610,127.887 C210.203,128.286 210.000,128.767 210.000,129.328 C210.000,129.860 210.174,130.326 210.523,130.725 C210.871,131.124 211.510,131.442 212.440,131.678 ZM188.942,184.776 C189.624,185.619 190.474,186.040 191.491,186.040 C192.421,186.040 193.147,185.789 193.670,185.286 C194.193,184.784 194.556,184.074 194.759,183.158 L201.819,183.158 C201.238,185.671 200.011,187.555 198.137,188.811 C196.263,190.068 194.033,190.696 191.447,190.696 C189.384,190.696 187.510,190.267 185.826,189.410 C184.140,188.553 182.804,187.259 181.816,185.530 C180.828,183.801 180.335,181.606 180.335,178.945 C180.335,176.551 180.792,174.475 181.707,172.715 C182.623,170.957 183.901,169.597 185.542,168.636 C187.183,167.676 189.094,167.195 191.273,167.195 C193.568,167.195 195.522,167.690 197.135,168.680 C198.747,169.671 199.974,171.053 200.817,172.826 C201.659,174.600 202.081,176.669 202.081,179.034 L202.081,180.497 L187.656,180.497 C187.830,182.508 188.259,183.934 188.942,184.776 ZM194.759,176.906 C194.643,175.309 194.294,174.068 193.714,173.181 C193.132,172.294 192.319,171.851 191.273,171.851 C190.285,171.851 189.465,172.287 188.811,173.159 C188.157,174.031 187.772,175.280 187.656,176.906 L194.759,176.906 ZM194.984,140.369 C195.419,140.842 196.000,141.078 196.727,141.078 C197.133,141.078 197.555,141.034 197.991,140.945 C198.426,140.857 198.847,140.724 199.254,140.546 L200.387,145.158 C199.719,145.542 198.869,145.837 197.838,146.044 C196.806,146.251 195.797,146.355 194.809,146.355 C192.136,146.355 190.153,145.594 188.861,144.071 C187.568,142.549 186.921,140.620 186.921,138.285 L186.921,128.308 L184.089,128.308 L184.089,123.431 L186.921,123.431 L186.921,117.134 L194.330,117.134 L194.330,123.431 L199.516,123.431 L199.516,128.308 L194.330,128.308 L194.330,138.196 C194.330,139.172 194.548,139.896 194.984,140.369 ZM173.549,142.143 C173.026,143.384 172.190,144.397 171.043,145.180 C169.895,145.963 168.494,146.355 166.838,146.355 C164.687,146.355 162.966,145.623 161.673,144.160 C160.380,142.697 159.734,140.724 159.734,138.241 L159.734,123.431 L167.143,123.431 L167.143,137.088 C167.143,138.270 167.367,139.209 167.818,139.903 C168.268,140.598 168.944,140.945 169.844,140.945 C170.687,140.945 171.428,140.554 172.067,139.770 C172.706,138.987 173.026,137.753 173.026,136.068 L173.026,123.431 L180.434,123.431 L180.434,145.778 L173.810,145.778 L173.549,142.143 ZM165.370,169.057 C166.968,170.299 167.970,172.088 168.377,174.423 L161.230,174.423 C161.114,173.566 160.838,172.886 160.402,172.383 C159.966,171.881 159.341,171.629 158.528,171.629 C157.773,171.629 157.192,171.829 156.785,172.228 C156.378,172.627 156.175,173.108 156.175,173.669 C156.175,174.201 156.349,174.666 156.698,175.065 C157.047,175.465 157.685,175.783 158.616,176.019 L161.753,176.817 C164.252,177.468 166.024,178.302 167.070,179.322 C168.116,180.342 168.639,181.724 168.639,183.468 C168.639,185.774 167.767,187.555 166.024,188.811 C164.281,190.068 161.855,190.696 158.746,190.696 C155.637,190.696 153.204,190.038 151.447,188.722 C149.689,187.407 148.679,185.523 148.418,183.069 L155.609,183.069 C155.754,184.281 156.146,185.116 156.785,185.574 C157.424,186.033 158.107,186.262 158.833,186.262 C159.676,186.262 160.329,186.077 160.794,185.707 C161.259,185.338 161.492,184.872 161.492,184.311 C161.492,183.808 161.296,183.335 160.903,182.892 C160.511,182.448 159.777,182.079 158.703,181.783 L155.042,180.808 C153.153,180.305 151.679,179.537 150.619,178.502 C149.558,177.468 149.028,176.034 149.028,174.201 C149.028,172.634 149.464,171.334 150.335,170.299 C151.207,169.264 152.384,168.489 153.865,167.971 C155.347,167.454 157.017,167.195 158.877,167.195 C161.608,167.195 163.772,167.816 165.370,169.057 ZM151.633,142.120 C150.515,143.466 149.091,144.530 147.363,145.313 C145.634,146.096 143.607,146.488 141.283,146.488 C138.233,146.488 135.632,145.830 133.483,144.515 C131.332,143.200 129.691,141.374 128.558,139.039 C127.425,136.704 126.859,133.999 126.859,130.924 C126.859,127.880 127.425,125.190 128.558,122.854 C129.691,120.519 131.347,118.686 133.526,117.356 C135.705,116.026 138.378,115.361 141.545,115.361 C145.002,115.361 147.842,116.277 150.065,118.110 C152.287,119.943 153.776,122.515 154.531,125.825 L146.382,125.825 C145.598,122.574 143.942,120.948 141.414,120.948 C139.235,120.948 137.593,121.842 136.490,123.630 C135.385,125.419 134.834,127.850 134.834,130.924 C134.834,133.999 135.385,136.430 136.490,138.218 C137.593,140.007 139.235,140.901 141.414,140.901 C142.954,140.901 144.239,140.480 145.271,139.637 C146.302,138.795 146.992,137.487 147.341,135.713 L141.981,135.713 L141.981,130.171 L154.967,130.171 L154.967,132.033 C154.967,133.955 154.691,135.780 154.139,137.509 C153.587,139.238 152.752,140.776 151.633,142.120 ZM135.994,167.195 C138.288,167.195 140.243,167.690 141.855,168.680 C143.467,169.671 144.695,171.053 145.538,172.826 C146.380,174.600 146.801,176.669 146.801,179.034 L146.801,180.497 L132.377,180.497 C132.551,182.508 132.979,183.934 133.662,184.776 C134.344,185.619 135.194,186.040 136.212,186.040 C137.141,186.040 137.868,185.789 138.390,185.286 C138.913,184.784 139.276,184.074 139.480,183.158 L146.540,183.158 C145.958,185.671 144.731,187.555 142.857,188.811 C140.983,190.068 138.753,190.696 136.168,190.696 C134.105,190.696 132.231,190.267 130.546,189.410 C128.861,188.553 127.524,187.259 126.537,185.530 C125.549,183.801 125.055,181.606 125.055,178.945 C125.055,176.551 125.513,174.475 126.428,172.715 C127.343,170.957 128.621,169.597 130.263,168.636 C131.904,167.676 133.815,167.195 135.994,167.195 ZM139.480,176.906 C139.364,175.309 139.015,174.068 138.434,173.181 C137.853,172.294 137.040,171.851 135.994,171.851 C135.006,171.851 134.185,172.287 133.531,173.159 C132.878,174.031 132.492,175.280 132.377,176.906 L139.480,176.906 ZM109.983,200.007 C107.252,200.007 104.935,199.379 103.032,198.123 C101.129,196.866 99.960,194.981 99.524,192.469 L106.497,192.469 C106.699,193.415 107.107,194.154 107.717,194.686 C108.327,195.218 109.082,195.484 109.983,195.484 C112.481,195.484 113.731,193.829 113.731,190.518 L113.731,187.148 C113.062,188.124 112.220,188.885 111.203,189.432 C110.186,189.979 109.038,190.252 107.760,190.252 C105.930,190.252 104.354,189.750 103.032,188.745 C101.710,187.740 100.686,186.372 99.960,184.643 C99.233,182.914 98.870,180.926 98.870,178.679 C98.870,176.433 99.255,174.445 100.025,172.715 C100.794,170.986 101.884,169.634 103.293,168.658 C104.702,167.683 106.366,167.195 108.283,167.195 C109.416,167.195 110.549,167.521 111.683,168.171 C112.816,168.821 113.687,169.811 114.297,171.141 L114.515,167.771 L121.139,167.771 L121.139,188.257 C121.139,196.090 117.420,200.007 109.983,200.007 ZM113.818,178.280 C113.818,176.418 113.476,174.970 112.794,173.935 C112.111,172.900 111.232,172.383 110.157,172.383 C108.966,172.383 108.065,172.975 107.455,174.157 C106.845,175.339 106.540,176.847 106.540,178.679 C106.540,180.542 106.845,182.071 107.455,183.269 C108.065,184.466 108.966,185.064 110.157,185.064 C111.232,185.064 112.111,184.547 112.794,183.512 C113.476,182.478 113.818,181.000 113.818,179.078 L113.818,178.280 ZM110.610,140.369 C111.045,140.842 111.626,141.078 112.353,141.078 C112.759,141.078 113.181,141.034 113.617,140.945 C114.052,140.857 114.473,140.724 114.880,140.546 L116.013,145.158 C115.345,145.542 114.495,145.837 113.464,146.044 C112.432,146.251 111.423,146.355 110.435,146.355 C107.762,146.355 105.779,145.594 104.487,144.071 C103.194,142.549 102.547,140.620 102.547,138.285 L102.547,128.308 L99.715,128.308 L99.715,123.431 L102.547,123.431 L102.547,117.134 L109.956,117.134 L109.956,123.431 L115.142,123.431 L115.142,128.308 L109.956,128.308 L109.956,138.196 C109.956,139.172 110.174,139.896 110.610,140.369 ZM77.529,142.231 L87.160,128.707 L77.790,128.707 L77.790,123.431 L95.963,123.431 L95.963,126.889 L86.070,140.502 L96.486,140.502 L96.486,145.778 L77.529,145.778 L77.529,142.231 ZM88.254,172.893 C87.775,172.199 87.085,171.851 86.184,171.851 C85.429,171.851 84.790,172.095 84.267,172.582 C83.744,173.070 83.410,173.773 83.265,174.689 L76.292,174.689 C76.669,172.324 77.744,170.484 79.517,169.168 C81.289,167.853 83.598,167.195 86.446,167.195 C89.758,167.195 92.205,168.031 93.789,169.700 C95.372,171.371 96.164,173.876 96.164,177.216 L96.164,190.119 L89.540,190.119 L89.366,187.193 C88.610,188.287 87.601,189.144 86.337,189.764 C85.073,190.385 83.758,190.696 82.393,190.696 C80.359,190.696 78.696,190.148 77.403,189.055 C76.110,187.962 75.464,186.410 75.464,184.399 C75.464,182.803 75.878,181.488 76.706,180.453 C77.534,179.419 78.623,178.606 79.974,178.014 C81.325,177.423 82.792,177.002 84.376,176.750 C85.959,176.500 87.492,176.359 88.973,176.329 L88.973,175.841 C88.973,174.571 88.734,173.588 88.254,172.893 ZM84.289,180.741 C83.344,181.466 82.872,182.360 82.872,183.424 C82.872,184.311 83.097,184.969 83.548,185.397 C83.998,185.826 84.586,186.040 85.313,186.040 C86.329,186.040 87.194,185.634 87.906,184.820 C88.617,184.008 88.973,182.833 88.973,181.295 L88.973,179.566 C86.794,179.626 85.232,180.017 84.289,180.741 ZM69.877,140.369 C70.313,140.842 70.894,141.078 71.621,141.078 C72.027,141.078 72.449,141.034 72.884,140.945 C73.320,140.857 73.741,140.724 74.148,140.546 L75.281,145.158 C74.613,145.542 73.763,145.837 72.732,146.044 C71.700,146.251 70.690,146.355 69.703,146.355 C67.030,146.355 65.047,145.594 63.754,144.071 C62.461,142.549 61.815,140.620 61.815,138.285 L61.815,128.308 L58.983,128.308 L58.983,123.431 L61.815,123.431 L61.815,117.134 L69.224,117.134 L69.224,123.431 L74.410,123.431 L74.410,128.308 L69.224,128.308 L69.224,138.196 C69.224,139.172 69.442,139.896 69.877,140.369 ZM44.924,140.435 C45.606,141.278 46.456,141.699 47.473,141.699 C48.403,141.699 49.129,141.448 49.652,140.945 C50.175,140.443 50.538,139.734 50.742,138.817 L57.802,138.817 C57.220,141.330 55.993,143.214 54.119,144.470 C52.245,145.727 50.015,146.355 47.430,146.355 C45.367,146.355 43.493,145.926 41.808,145.069 C40.123,144.212 38.786,142.918 37.799,141.189 C36.811,139.460 36.317,137.265 36.317,134.605 C36.317,132.210 36.775,130.134 37.690,128.375 C38.605,126.616 39.883,125.256 41.525,124.295 C43.166,123.335 45.076,122.854 47.255,122.854 C49.550,122.854 51.504,123.350 53.117,124.340 C54.729,125.330 55.956,126.712 56.799,128.486 C57.642,130.259 58.063,132.329 58.063,134.693 L58.063,136.157 L43.638,136.157 C43.813,138.167 44.241,139.593 44.924,140.435 ZM50.742,132.565 C50.625,130.969 50.277,129.727 49.696,128.840 C49.114,127.953 48.301,127.510 47.255,127.510 C46.267,127.510 45.447,127.947 44.793,128.818 C44.140,129.690 43.754,130.940 43.638,132.565 L50.742,132.565 ZM20.765,146.488 C17.395,146.488 14.700,145.446 12.681,143.362 C10.662,141.278 9.550,138.418 9.348,134.782 L17.061,134.782 C17.119,136.615 17.446,138.071 18.042,139.150 C18.637,140.229 19.545,140.768 20.765,140.768 C22.073,140.768 23.031,140.266 23.642,139.260 C24.252,138.256 24.557,136.851 24.557,135.048 L24.557,116.070 L32.314,116.070 L32.314,134.072 C32.314,138.152 31.253,141.241 29.133,143.340 C27.012,145.439 24.222,146.488 20.765,146.488 ZM73.596,166.220 L65.055,166.220 L65.055,190.119 L57.297,190.119 L57.297,166.220 L48.756,166.220 L48.756,160.411 L73.596,160.411 L73.596,166.220 ZM211.847,171.673 C212.224,170.609 212.878,169.634 213.808,168.747 C214.737,167.860 215.972,167.417 217.512,167.417 C217.802,167.417 218.049,167.432 218.253,167.461 C218.456,167.491 218.645,167.521 218.820,167.550 L218.820,174.511 C218.645,174.452 218.384,174.400 218.035,174.356 C217.686,174.312 217.352,174.290 217.033,174.290 C215.696,174.290 214.592,174.711 213.721,175.553 C212.849,176.396 212.413,177.689 212.413,179.433 L212.413,190.119 L205.005,190.119 L205.005,167.771 L211.498,167.771 L211.847,171.673 ZM252.623,171.407 C253.988,168.599 256.196,167.195 259.247,167.195 C261.048,167.195 262.602,167.705 263.910,168.725 C265.217,169.745 266.226,171.141 266.938,172.915 C267.650,174.689 268.006,176.699 268.006,178.945 C268.006,181.251 267.628,183.291 266.873,185.064 C266.117,186.838 265.065,188.220 263.714,189.210 C262.363,190.200 260.786,190.696 258.985,190.696 C257.823,190.696 256.719,190.422 255.673,189.875 C254.627,189.329 253.784,188.523 253.146,187.459 L253.146,199.431 L245.737,199.431 L245.737,167.771 L252.361,167.771 L252.623,171.407 ZM253.058,179.344 C253.058,181.266 253.392,182.766 254.061,183.845 C254.729,184.924 255.615,185.463 256.719,185.463 C257.910,185.463 258.811,184.850 259.421,183.623 C260.031,182.397 260.336,180.837 260.336,178.945 C260.336,177.054 260.031,175.487 259.421,174.245 C258.811,173.004 257.910,172.383 256.719,172.383 C255.615,172.383 254.729,172.923 254.061,174.001 C253.392,175.081 253.058,176.595 253.058,178.546 L253.058,179.344 ZM279.331,190.119 L271.922,190.119 L271.922,167.771 L279.331,167.771 L279.331,190.119 ZM299.562,123.431 L306.970,123.431 L306.970,145.778 L299.562,145.778 L299.562,123.431 ZM314.244,190.119 L306.836,190.119 L306.836,159.081 L314.244,159.081 L314.244,190.119 Z"/>
<path fill-rule="evenodd"  fill="rgb(255, 188, 13)"
 d="M-0.000,0.000 L430.000,0.000 L430.000,99.000 L-0.000,99.000 L-0.000,0.000 Z"/>
<path fill-rule="evenodd"  fill="rgb(0, 0, 0)"
 d="M402.070,62.134 L399.041,16.356 L416.533,16.356 L413.601,62.134 L402.070,62.134 ZM407.738,66.332 C410.279,66.332 412.395,67.166 414.090,68.831 C415.783,70.497 416.630,72.663 416.630,75.328 C416.630,77.794 415.751,79.910 413.992,81.675 C412.233,83.439 410.147,84.323 407.738,84.323 C405.261,84.323 403.177,83.439 401.484,81.675 C399.789,79.910 398.943,77.794 398.943,75.328 C398.943,72.663 399.789,70.497 401.484,68.831 C403.177,67.166 405.261,66.332 407.738,66.332 ZM366.222,71.280 C367.752,73.179 369.658,74.128 371.939,74.128 C374.023,74.128 375.652,73.563 376.825,72.429 C377.998,71.297 378.812,69.698 379.268,67.631 L395.099,67.631 C393.795,73.296 391.044,77.544 386.842,80.375 C382.640,83.208 377.639,84.623 371.841,84.623 C367.215,84.623 363.013,83.657 359.235,81.725 C355.456,79.793 352.459,76.877 350.245,72.979 C348.029,69.081 346.922,64.133 346.922,58.136 C346.922,52.739 347.948,48.058 350.001,44.093 C352.053,40.129 354.919,37.063 358.600,34.897 C362.280,32.733 366.564,31.649 371.450,31.649 C376.596,31.649 380.978,32.766 384.594,34.997 C388.210,37.231 390.961,40.345 392.851,44.343 C394.740,48.341 395.685,53.006 395.685,58.336 L395.685,61.634 L363.340,61.634 C363.730,66.167 364.691,69.381 366.222,71.280 ZM379.268,53.538 C379.007,49.940 378.225,47.141 376.923,45.142 C375.619,43.143 373.796,42.144 371.450,42.144 C369.235,42.144 367.395,43.128 365.929,45.092 C364.463,47.059 363.599,49.874 363.340,53.538 L379.268,53.538 ZM324.349,52.539 C324.349,49.874 323.794,47.758 322.687,46.192 C321.579,44.627 319.918,43.843 317.704,43.843 C315.684,43.843 313.893,44.727 312.329,46.492 C310.765,48.258 309.984,51.039 309.984,54.838 L309.984,83.324 L293.371,83.324 L293.371,32.948 L308.225,32.948 L308.713,40.645 C309.950,37.913 311.889,35.731 314.528,34.098 C317.166,32.466 320.309,31.649 323.958,31.649 C329.235,31.649 333.388,33.298 336.417,36.596 C339.447,39.895 340.961,44.343 340.961,49.940 L340.961,83.324 L324.349,83.324 L324.349,52.539 ZM267.670,52.539 C267.670,49.874 267.116,47.758 266.009,46.192 C264.900,44.627 263.239,43.843 261.025,43.843 C259.005,43.843 257.214,44.727 255.651,46.492 C254.087,48.258 253.305,51.039 253.305,54.838 L253.305,83.324 L236.693,83.324 L236.693,32.948 L251.546,32.948 L252.035,40.645 C253.272,37.913 255.211,35.731 257.849,34.098 C260.488,32.466 263.630,31.649 267.279,31.649 C272.556,31.649 276.710,33.298 279.739,36.596 C282.768,39.895 284.283,44.343 284.283,49.940 L284.283,83.324 L267.670,83.324 L267.670,52.539 ZM220.894,27.251 C218.288,27.251 216.089,26.369 214.298,24.602 C212.506,22.838 211.611,20.689 211.611,18.155 C211.611,15.624 212.506,13.475 214.298,11.709 C216.089,9.944 218.288,9.060 220.894,9.060 C223.499,9.060 225.698,9.944 227.490,11.709 C229.282,13.475 230.178,15.624 230.178,18.155 C230.178,20.689 229.282,22.838 227.490,24.602 C225.698,26.369 223.499,27.251 220.894,27.251 ZM177.213,83.324 L169.590,55.837 L161.968,83.324 L145.160,83.324 L130.795,32.948 L147.994,32.948 L154.835,67.432 L163.141,32.948 L177.408,32.948 L186.105,67.532 L192.750,32.948 L208.386,32.948 L194.021,83.324 L177.213,83.324 ZM131.837,61.634 L99.492,61.634 C99.883,66.167 100.843,69.381 102.374,71.280 C103.904,73.179 105.810,74.128 108.091,74.128 C110.175,74.128 111.805,73.563 112.977,72.429 C114.150,71.297 114.964,69.698 115.420,67.631 L131.251,67.631 C129.947,73.296 127.196,77.544 122.994,80.375 C118.792,83.208 113.791,84.623 107.993,84.623 C103.367,84.623 99.165,83.657 95.387,81.725 C91.608,79.793 88.611,76.877 86.397,72.979 C84.181,69.081 83.074,64.133 83.074,58.136 C83.074,52.739 84.100,48.058 86.153,44.093 C88.205,40.129 91.071,37.063 94.752,34.897 C98.432,32.733 102.716,31.649 107.602,31.649 C112.748,31.649 117.130,32.766 120.746,34.997 C124.362,37.231 127.113,40.345 129.003,44.343 C130.892,48.341 131.837,53.006 131.837,58.336 L131.837,61.634 ZM113.075,45.142 C111.771,43.143 109.948,42.144 107.602,42.144 C105.387,42.144 103.547,43.128 102.081,45.092 C100.615,47.059 99.751,49.874 99.492,53.538 L115.420,53.538 C115.159,49.940 114.377,47.141 113.075,45.142 ZM69.703,75.078 C67.194,78.111 64.001,80.510 60.126,82.274 C56.249,84.039 51.705,84.923 46.494,84.923 C39.654,84.923 33.822,83.439 29.002,80.475 C24.180,77.511 20.500,73.396 17.959,68.131 C15.419,62.868 14.148,56.771 14.148,49.840 C14.148,42.978 15.419,36.914 17.959,31.649 C20.500,26.386 24.214,22.253 29.100,19.255 C33.986,16.256 39.979,14.757 47.080,14.757 C54.832,14.757 61.201,16.823 66.185,20.954 C71.169,25.086 74.506,30.884 76.201,38.346 L57.927,38.346 C56.168,31.016 52.455,27.351 46.787,27.351 C41.901,27.351 38.220,29.367 35.745,33.398 C33.268,37.430 32.031,42.911 32.031,49.840 C32.031,56.771 33.268,62.251 35.745,66.282 C38.220,70.315 41.901,72.329 46.787,72.329 C50.239,72.329 53.122,71.380 55.436,69.481 C57.747,67.581 59.296,64.633 60.077,60.635 L48.058,60.635 L48.058,48.141 L77.179,48.141 L77.179,52.339 C77.179,56.671 76.559,60.785 75.322,64.683 C74.084,68.581 72.210,72.047 69.703,75.078 ZM229.201,83.324 L212.588,83.324 L212.588,32.948 L229.201,32.948 L229.201,83.324 Z"/>
</svg>