<svg id="CTA" xmlns="http://www.w3.org/2000/svg" width="486" height="87" viewBox="0 0 486 87">
  <metadata><?xpacket begin="﻿" id="W5M0MpCehiHzreSzNTczkc9d"?>
<x:xmpmeta xmlns:x="adobe:ns:meta/" x:xmptk="Adobe XMP Core 5.6-c140 79.160451, 2017/05/06-01:08:21        ">
   <rdf:RDF xmlns:rdf="http://www.w3.org/1999/02/22-rdf-syntax-ns#">
      <rdf:Description rdf:about=""/>
   </rdf:RDF>
</x:xmpmeta>
                                                                                                    
                                                                                                    
                                                                                                    
                                                                                                    
                                                                                                    
                                                                                                    
                                                                                                    
                                                                                                    
                                                                                                    
                                                                                                    
                                                                                                    
                                                                                                    
                                                                                                    
                                                                                                    
                                                                                                    
                                                                                                    
                                                                                                    
                                                                                                    
                                                                                                    
                                                                                                    
                           
<?xpacket end="w"?></metadata>
<defs>
    <style>
      .cls-1 {
        fill: #fff;
      }

      .cls-2 {
        fill-rule: evenodd;
      }
    </style>
  </defs>
  <rect id="Rechteck_2" data-name="Rechteck 2" class="cls-1" width="486" height="87"/>
  <path id="Jetzt_App_downloaden_" data-name="Jetzt App downloaden!" class="cls-2" d="M104.844,1112.6q2.9-2.85,2.9-8.38v-16.26h-7.082v17.15a7.264,7.264,0,0,1-.835,3.8,2.851,2.851,0,0,1-2.626,1.36,2.657,2.657,0,0,1-2.487-1.46,8.674,8.674,0,0,1-.9-3.94H86.781a11.587,11.587,0,0,0,3.044,7.75,9.866,9.866,0,0,0,7.38,2.82A10.433,10.433,0,0,0,104.844,1112.6Zm22.738,1.02a8.053,8.053,0,0,0,3.362-5.11H124.5a3.661,3.661,0,0,1-.994,1.92,2.751,2.751,0,0,1-1.99.69,2.875,2.875,0,0,1-2.327-1.15,7.19,7.19,0,0,1-1.174-3.86h13.169v-1.32a12.817,12.817,0,0,0-1.153-5.61,8.67,8.67,0,0,0-3.362-3.75,11.267,11.267,0,0,0-10.583-.04,9.016,9.016,0,0,0-3.5,3.69,11.931,11.931,0,0,0-1.253,5.63,11.805,11.805,0,0,0,1.353,5.95,8.642,8.642,0,0,0,3.66,3.5,11.179,11.179,0,0,0,5.133,1.16A10.753,10.753,0,0,0,127.582,1113.62Zm-4.039-14.12a7,7,0,0,1,.955,3.36h-6.485a6.263,6.263,0,0,1,1.054-3.38,2.72,2.72,0,0,1,2.248-1.19A2.535,2.535,0,0,1,123.543,1099.5Zm21.783,15.54a7.532,7.532,0,0,0,2.328-.8l-1.035-4.17a5.959,5.959,0,0,1-2.307.48,2.061,2.061,0,0,1-1.592-.64,2.779,2.779,0,0,1-.6-1.96v-8.93h4.734v-4.41h-4.734v-5.69H135.36v5.69h-2.586v4.41h2.586v9.01a7.758,7.758,0,0,0,1.77,5.23c1.18,1.38,2.99,2.06,5.431,2.06A13.947,13.947,0,0,0,145.326,1115.04Zm21.624-.24v-4.77h-9.509l9.031-12.3v-3.12H149.881v4.77h8.554l-8.792,12.22v3.2H166.95Zm14.66,0.24a7.532,7.532,0,0,0,2.328-.8l-1.035-4.17a5.777,5.777,0,0,1-1.153.36,5.856,5.856,0,0,1-1.154.12,2.062,2.062,0,0,1-1.592-.64,2.784,2.784,0,0,1-.6-1.96v-8.93h4.734v-4.41h-4.734v-5.69h-6.764v5.69h-2.586v4.41h2.586v9.01a7.758,7.758,0,0,0,1.77,5.23c1.18,1.38,2.991,2.06,5.431,2.06A13.94,13.94,0,0,0,181.61,1115.04Zm36.942-.24-9.509-26.84h-6.884l-9.548,26.84h6.883l1.551-4.97h8.833l1.552,4.97h7.122Zm-13.09-19.23,2.825,9.18H202.6Zm22.518,27.65V1112.4a5.738,5.738,0,0,0,2.308,2.18,6.42,6.42,0,0,0,3.024.74,7.123,7.123,0,0,0,4.317-1.34,8.732,8.732,0,0,0,2.884-3.75,13.847,13.847,0,0,0,1.034-5.52,14.408,14.408,0,0,0-.974-5.45,8.833,8.833,0,0,0-2.765-3.79,6.771,6.771,0,0,0-4.258-1.38,6.3,6.3,0,0,0-6.047,3.8l-0.239-3.28h-6.047v28.61h6.763Zm0.836-14.09a7.622,7.622,0,0,1-.915-4.06v-0.73a7.7,7.7,0,0,1,.915-4.1,2.75,2.75,0,0,1,2.427-1.46,2.651,2.651,0,0,1,2.467,1.68,9.533,9.533,0,0,1,.835,4.25,9.4,9.4,0,0,1-.835,4.22,2.646,2.646,0,0,1-2.467,1.66A2.75,2.75,0,0,1,228.816,1109.13Zm23,14.09V1112.4a5.738,5.738,0,0,0,2.308,2.18,6.42,6.42,0,0,0,3.024.74,7.123,7.123,0,0,0,4.317-1.34,8.732,8.732,0,0,0,2.884-3.75,13.83,13.83,0,0,0,1.035-5.52,14.408,14.408,0,0,0-.975-5.45,8.833,8.833,0,0,0-2.765-3.79,6.771,6.771,0,0,0-4.258-1.38,6.3,6.3,0,0,0-6.047,3.8l-0.239-3.28h-6.047v28.61h6.763Zm0.836-14.09a7.622,7.622,0,0,1-.915-4.06v-0.73a7.7,7.7,0,0,1,.915-4.1,2.75,2.75,0,0,1,2.427-1.46,2.651,2.651,0,0,1,2.467,1.68,9.533,9.533,0,0,1,.835,4.25,9.4,9.4,0,0,1-.835,4.22,2.646,2.646,0,0,1-2.467,1.66A2.75,2.75,0,0,1,252.648,1109.13Zm26.836-13.7a8.786,8.786,0,0,0-2.885,3.75,13.846,13.846,0,0,0-1.034,5.53,14.336,14.336,0,0,0,.974,5.44,8.743,8.743,0,0,0,2.786,3.79,6.789,6.789,0,0,0,4.237,1.38,6.3,6.3,0,0,0,6.047-3.8l0.239,3.28H295.9v-28.04h-6.764v10.25a5.744,5.744,0,0,0-2.308-2.18,6.54,6.54,0,0,0-3.024-.74A7.184,7.184,0,0,0,279.484,1095.43Zm8.792,4.85a7.5,7.5,0,0,1,.935,4.06v0.73a7.583,7.583,0,0,1-.935,4.1,2.766,2.766,0,0,1-2.407,1.46,2.649,2.649,0,0,1-2.466-1.68,9.516,9.516,0,0,1-.836-4.24,9.411,9.411,0,0,1,.836-4.23,2.644,2.644,0,0,1,2.466-1.66A2.766,2.766,0,0,1,288.276,1100.28Zm27.055,13.64a9.49,9.49,0,0,0,3.581-3.79,12.371,12.371,0,0,0,0-10.85,9.555,9.555,0,0,0-3.581-3.79,11.7,11.7,0,0,0-11.1,0,9.555,9.555,0,0,0-3.581,3.79,12.371,12.371,0,0,0,0,10.85,9.49,9.49,0,0,0,3.581,3.79A11.7,11.7,0,0,0,315.331,1113.92Zm-8.037-4.67a11.988,11.988,0,0,1,0-9.09,2.693,2.693,0,0,1,4.974,0,11.988,11.988,0,0,1,0,9.09A2.687,2.687,0,0,1,307.294,1109.25Zm26.4,5.55,3.1-11.02,3.1,11.02h6.843l5.849-20.19h-6.366l-2.705,13.86-3.541-13.86H334.17l-3.382,13.82L328,1094.61h-7l5.848,20.19h6.843Zm28.169,0v-11.42a4.9,4.9,0,0,1,.955-3.34,2.865,2.865,0,0,1,2.188-1.06,2.329,2.329,0,0,1,2.029.94,4.267,4.267,0,0,1,.676,2.54v12.34h6.764v-13.38a7.536,7.536,0,0,0-1.85-5.35,6.6,6.6,0,0,0-5.073-1.98,7.275,7.275,0,0,0-3.839.98,5.925,5.925,0,0,0-2.368,2.62l-0.2-3.08H355.1v20.19h6.764Zm23.911,0v-28.04h-6.763v28.04h6.763Zm19.436-.88a9.487,9.487,0,0,0,3.58-3.79,12.362,12.362,0,0,0,0-10.85,9.552,9.552,0,0,0-3.58-3.79,11.7,11.7,0,0,0-11.1,0,9.561,9.561,0,0,0-3.581,3.79,12.371,12.371,0,0,0,0,10.85,9.5,9.5,0,0,0,3.581,3.79A11.7,11.7,0,0,0,405.208,1113.92Zm-8.037-4.67a11.988,11.988,0,0,1,0-9.09,2.692,2.692,0,0,1,4.973,0,11.988,11.988,0,0,1,0,9.09A2.686,2.686,0,0,1,397.171,1109.25Zm24.906,5.23a7.042,7.042,0,0,0,2.765-2.32L425,1114.8h6.047v-11.66q0-4.53-2.168-6.79t-6.7-2.26a10.414,10.414,0,0,0-6.326,1.78,7.375,7.375,0,0,0-2.944,4.99h6.366a3.158,3.158,0,0,1,.915-1.9,2.494,2.494,0,0,1,1.75-.67,2.164,2.164,0,0,1,1.89.95,4.58,4.58,0,0,1,.657,2.66v0.44a32.771,32.771,0,0,0-4.2.38,16.826,16.826,0,0,0-4.018,1.14,7.692,7.692,0,0,0-2.984,2.21,5.468,5.468,0,0,0-1.134,3.56,5.186,5.186,0,0,0,1.77,4.21,6.846,6.846,0,0,0,4.556,1.48A8.154,8.154,0,0,0,422.077,1114.48Zm-2.547-3.95a2.325,2.325,0,0,1-.616-1.78,2.933,2.933,0,0,1,1.293-2.42,7.469,7.469,0,0,1,4.277-1.06v1.56a4.636,4.636,0,0,1-.975,3.18,3.038,3.038,0,0,1-2.367,1.11A2.248,2.248,0,0,1,419.53,1110.53Zm18.7-15.1a8.785,8.785,0,0,0-2.884,3.75,13.845,13.845,0,0,0-1.035,5.53,14.336,14.336,0,0,0,.975,5.44,8.749,8.749,0,0,0,2.785,3.79,6.791,6.791,0,0,0,4.237,1.38,6.3,6.3,0,0,0,6.048-3.8l0.239,3.28h6.047v-28.04h-6.763v10.25a5.744,5.744,0,0,0-2.308-2.18,6.54,6.54,0,0,0-3.024-.74A7.187,7.187,0,0,0,438.229,1095.43Zm8.793,4.85a7.5,7.5,0,0,1,.935,4.06v0.73a7.583,7.583,0,0,1-.935,4.1,2.766,2.766,0,0,1-2.407,1.46,2.65,2.65,0,0,1-2.467-1.68,9.517,9.517,0,0,1-.835-4.24,9.412,9.412,0,0,1,.835-4.23,2.645,2.645,0,0,1,2.467-1.66A2.766,2.766,0,0,1,447.022,1100.28Zm27.373,13.34a8.053,8.053,0,0,0,3.362-5.11h-6.445a3.655,3.655,0,0,1-1,1.92,2.748,2.748,0,0,1-1.989.69,2.875,2.875,0,0,1-2.328-1.15,7.2,7.2,0,0,1-1.173-3.86H478v-1.32a12.817,12.817,0,0,0-1.154-5.61,8.67,8.67,0,0,0-3.362-3.75,11.267,11.267,0,0,0-10.583-.04,9.008,9.008,0,0,0-3.5,3.69,13.515,13.515,0,0,0,.1,11.58,8.644,8.644,0,0,0,3.661,3.5,11.175,11.175,0,0,0,5.132,1.16A10.753,10.753,0,0,0,474.4,1113.62Zm-4.038-14.12a7.021,7.021,0,0,1,.955,3.36h-6.485a6.246,6.246,0,0,1,1.054-3.38,2.72,2.72,0,0,1,2.248-1.19A2.536,2.536,0,0,1,470.357,1099.5Zm17.824,15.3v-11.42a4.9,4.9,0,0,1,.955-3.34,2.867,2.867,0,0,1,2.188-1.06,2.328,2.328,0,0,1,2.029.94,4.267,4.267,0,0,1,.677,2.54v12.34h6.763v-13.38a7.531,7.531,0,0,0-1.85-5.35,6.6,6.6,0,0,0-5.073-1.98,7.277,7.277,0,0,0-3.839.98,5.917,5.917,0,0,0-2.367,2.62l-0.2-3.08h-6.048v20.19h6.764Zm17.9-8.49h4.695l1.193-18.35h-7.122Zm-0.239,2.68a3.723,3.723,0,0,0,0,5.15,3.4,3.4,0,0,0,2.546,1.06,3.492,3.492,0,0,0,2.547-1.06,3.443,3.443,0,0,0,1.074-2.54,3.479,3.479,0,0,0-1.034-2.61,3.563,3.563,0,0,0-2.587-1A3.507,3.507,0,0,0,505.846,1108.99Z" transform="translate(-56 -1057)"/>
</svg>
