<svg 
 xmlns="http://www.w3.org/2000/svg"
 xmlns:xlink="http://www.w3.org/1999/xlink"
 width="13.441cm" height="1.799cm">
<path fill-rule="evenodd"  fill="rgb(255, 188, 13)"
 d="M-0.000,0.000 L381.000,0.000 L381.000,51.000 L-0.000,51.000 L-0.000,0.000 Z"/>
<path fill-rule="evenodd"  fill="rgb(0, 0, 0)"
 d="M363.963,30.674 L362.547,9.883 L370.725,9.883 L369.355,30.674 L363.963,30.674 ZM366.613,32.580 C367.801,32.580 368.791,32.959 369.583,33.715 C370.375,34.472 370.771,35.456 370.771,36.666 C370.771,37.786 370.360,38.747 369.538,39.548 C368.715,40.350 367.740,40.751 366.613,40.751 C365.456,40.751 364.481,40.350 363.689,39.548 C362.897,38.747 362.501,37.786 362.501,36.666 C362.501,35.456 362.897,34.472 363.689,33.715 C364.481,32.959 365.456,32.580 366.613,32.580 ZM355.101,34.759 C355.557,35.244 356.166,35.485 356.928,35.485 C357.354,35.485 357.796,35.440 358.253,35.349 C358.710,35.258 359.151,35.122 359.578,34.941 L360.766,39.662 C360.065,40.055 359.174,40.358 358.093,40.570 C357.012,40.781 355.953,40.887 354.918,40.887 C352.115,40.887 350.036,40.109 348.681,38.550 C347.326,36.991 346.648,35.017 346.648,32.626 L346.648,22.412 L343.678,22.412 L343.678,17.419 L346.648,17.419 L346.648,10.973 L354.415,10.973 L354.415,17.419 L359.852,17.419 L359.852,22.412 L354.415,22.412 L354.415,32.535 C354.415,33.534 354.644,34.275 355.101,34.759 ZM337.328,14.831 C336.110,14.831 335.082,14.430 334.244,13.628 C333.406,12.827 332.988,11.851 332.988,10.700 C332.988,9.550 333.406,8.574 334.244,7.772 C335.082,6.971 336.110,6.569 337.328,6.569 C338.546,6.569 339.574,6.971 340.412,7.772 C341.249,8.574 341.669,9.550 341.669,10.700 C341.669,11.851 341.249,12.827 340.412,13.628 C339.574,14.430 338.546,14.831 337.328,14.831 ZM316.654,34.827 C317.370,35.690 318.261,36.121 319.327,36.121 C320.302,36.121 321.063,35.864 321.612,35.349 C322.160,34.835 322.540,34.109 322.754,33.170 L330.155,33.170 C329.546,35.743 328.259,37.672 326.295,38.958 C324.330,40.245 321.992,40.887 319.282,40.887 C317.118,40.887 315.154,40.448 313.388,39.571 C311.621,38.694 310.220,37.369 309.184,35.599 C308.149,33.829 307.631,31.582 307.631,28.858 C307.631,26.407 308.111,24.281 309.070,22.480 C310.030,20.680 311.370,19.287 313.091,18.304 C314.811,17.321 316.814,16.828 319.099,16.828 C321.505,16.828 323.553,17.336 325.244,18.349 C326.934,19.363 328.221,20.778 329.105,22.593 C329.988,24.409 330.430,26.528 330.430,28.949 L330.430,30.447 L315.307,30.447 C315.489,32.505 315.938,33.965 316.654,34.827 ZM322.754,26.770 C322.632,25.136 322.266,23.865 321.657,22.957 C321.048,22.049 320.195,21.595 319.099,21.595 C318.063,21.595 317.203,22.042 316.517,22.934 C315.832,23.827 315.428,25.106 315.307,26.770 L322.754,26.770 ZM281.406,35.803 L295.387,15.739 L281.726,15.739 L281.726,9.883 L305.484,9.883 L305.484,14.377 L291.458,34.441 L305.804,34.441 L305.804,40.297 L281.406,40.297 L281.406,35.803 ZM257.306,34.827 C258.022,35.690 258.913,36.121 259.979,36.121 C260.954,36.121 261.715,35.864 262.263,35.349 C262.812,34.835 263.192,34.109 263.406,33.170 L270.807,33.170 C270.198,35.743 268.911,37.672 266.947,38.958 C264.982,40.245 262.644,40.887 259.933,40.887 C257.770,40.887 255.806,40.448 254.040,39.571 C252.273,38.694 250.871,37.369 249.836,35.599 C248.800,33.829 248.283,31.582 248.283,28.858 C248.283,26.407 248.763,24.281 249.722,22.480 C250.681,20.680 252.021,19.287 253.743,18.304 C255.463,17.321 257.466,16.828 259.751,16.828 C262.156,16.828 264.205,17.336 265.896,18.349 C267.586,19.363 268.873,20.778 269.756,22.593 C270.639,24.409 271.081,26.528 271.081,28.949 L271.081,30.447 L255.958,30.447 C256.141,32.505 256.590,33.965 257.306,34.827 ZM263.406,26.770 C263.284,25.136 262.918,23.865 262.309,22.957 C261.700,22.049 260.847,21.595 259.751,21.595 C258.715,21.595 257.855,22.042 257.169,22.934 C256.484,23.827 256.080,25.106 255.958,26.770 L263.406,26.770 ZM227.266,36.666 L237.363,22.820 L227.540,22.820 L227.540,17.419 L246.592,17.419 L246.592,20.959 L236.221,34.895 L247.141,34.895 L247.141,40.297 L227.266,40.297 L227.266,36.666 ZM223.931,24.091 C222.530,24.091 221.373,24.523 220.459,25.385 C219.545,26.248 219.088,27.572 219.088,29.357 L219.088,40.297 L211.321,40.297 L211.321,17.419 L218.129,17.419 L218.494,21.413 C218.890,20.324 219.575,19.325 220.550,18.417 C221.525,17.509 222.819,17.055 224.434,17.055 C224.738,17.055 224.997,17.071 225.210,17.101 C225.423,17.131 225.622,17.162 225.804,17.192 L225.804,24.318 C225.622,24.258 225.347,24.205 224.982,24.160 C224.616,24.114 224.266,24.091 223.931,24.091 ZM199.534,36.575 C198.986,37.846 198.110,38.883 196.907,39.684 C195.703,40.486 194.234,40.887 192.498,40.887 C190.244,40.887 188.439,40.138 187.084,38.640 C185.728,37.142 185.051,35.122 185.051,32.580 L185.051,17.419 L192.818,17.419 L192.818,31.400 C192.818,32.611 193.053,33.572 193.526,34.283 C193.998,34.994 194.706,35.349 195.650,35.349 C196.534,35.349 197.310,34.949 197.981,34.146 C198.650,33.345 198.986,32.081 198.986,30.356 L198.986,17.419 L206.753,17.419 L206.753,40.297 L199.808,40.297 L199.534,36.575 ZM181.784,35.667 C182.591,37.059 183.330,38.603 184.000,40.297 L175.594,40.297 C174.984,38.179 174.147,36.378 173.081,34.895 C172.441,34.018 171.756,33.193 171.025,32.421 C170.294,31.650 169.471,30.946 168.558,30.311 L168.558,40.297 L160.791,40.297 L160.791,8.521 L168.558,8.521 L168.558,26.543 L174.954,17.419 L183.178,17.419 L174.543,27.859 C176.248,29.010 177.771,30.356 179.112,31.899 C180.086,33.019 180.977,34.275 181.784,35.667 ZM148.272,24.091 C146.871,24.091 145.714,24.523 144.800,25.385 C143.886,26.248 143.429,27.572 143.429,29.357 L143.429,40.297 L135.662,40.297 L135.662,17.419 L142.470,17.419 L142.835,21.413 C143.231,20.324 143.916,19.325 144.891,18.417 C145.866,17.509 147.160,17.055 148.775,17.055 C149.079,17.055 149.338,17.071 149.551,17.101 C149.764,17.131 149.963,17.162 150.145,17.192 L150.145,24.318 C149.963,24.258 149.688,24.205 149.323,24.160 C148.957,24.114 148.607,24.091 148.272,24.091 ZM123.738,36.575 C123.190,37.846 122.314,38.883 121.111,39.684 C119.907,40.486 118.438,40.887 116.702,40.887 C114.447,40.887 112.643,40.138 111.288,38.640 C109.932,37.142 109.255,35.122 109.255,32.580 L109.255,17.419 L117.022,17.419 L117.022,31.400 C117.022,32.611 117.257,33.572 117.730,34.283 C118.202,34.994 118.910,35.349 119.854,35.349 C120.737,35.349 121.514,34.949 122.184,34.146 C122.854,33.345 123.190,32.081 123.190,30.356 L123.190,17.419 L130.957,17.419 L130.957,40.297 L124.012,40.297 L123.738,36.575 ZM124.652,14.831 C123.646,14.831 122.785,14.484 122.070,13.787 C121.354,13.091 120.996,12.229 120.996,11.200 C120.996,10.231 121.354,9.399 122.070,8.703 C122.785,8.007 123.646,7.659 124.652,7.659 C125.626,7.659 126.479,8.007 127.210,8.703 C127.941,9.399 128.307,10.231 128.307,11.200 C128.307,12.229 127.941,13.091 127.210,13.787 C126.479,14.484 125.626,14.831 124.652,14.831 ZM115.514,14.831 C114.509,14.831 113.648,14.484 112.932,13.787 C112.216,13.091 111.859,12.229 111.859,11.200 C111.859,10.231 112.216,9.399 112.932,8.703 C113.648,8.007 114.509,7.659 115.514,7.659 C116.488,7.659 117.341,8.007 118.072,8.703 C118.803,9.399 119.169,10.231 119.169,11.200 C119.169,12.229 118.803,13.091 118.072,13.787 C117.341,14.484 116.488,14.831 115.514,14.831 ZM104.595,13.151 C102.797,13.151 101.899,14.286 101.899,16.556 L101.899,17.419 L106.833,17.419 L106.833,22.412 L101.899,22.412 L101.899,40.297 L94.132,40.297 L94.132,22.412 L90.888,22.412 L90.888,17.419 L94.132,17.419 C94.162,14.544 94.893,12.244 96.325,10.519 C97.756,8.794 99.980,7.931 102.996,7.931 C103.879,7.931 104.777,8.038 105.691,8.249 C106.605,8.461 107.473,8.779 108.295,9.202 L107.199,13.742 C106.315,13.349 105.447,13.151 104.595,13.151 ZM80.654,24.091 C79.253,24.091 78.096,24.523 77.182,25.385 C76.268,26.248 75.811,27.572 75.811,29.357 L75.811,40.297 L68.044,40.297 L68.044,17.419 L74.852,17.419 L75.217,21.413 C75.613,20.324 76.298,19.325 77.273,18.417 C78.248,17.509 79.542,17.055 81.157,17.055 C81.461,17.055 81.720,17.071 81.933,17.101 C82.146,17.131 82.345,17.162 82.527,17.192 L82.527,24.318 C82.345,24.258 82.071,24.205 81.705,24.160 C81.340,24.114 80.989,24.091 80.654,24.091 ZM56.257,36.575 C55.709,37.846 54.833,38.883 53.630,39.684 C52.426,40.486 50.957,40.887 49.221,40.887 C46.967,40.887 45.162,40.138 43.807,38.640 C42.451,37.142 41.774,35.122 41.774,32.580 L41.774,17.419 L49.541,17.419 L49.541,31.400 C49.541,32.611 49.777,33.572 50.249,34.283 C50.721,34.994 51.429,35.349 52.374,35.349 C53.257,35.349 54.033,34.949 54.704,34.146 C55.373,33.345 55.709,32.081 55.709,30.356 L55.709,17.419 L63.476,17.419 L63.476,40.297 L56.531,40.297 L56.257,36.575 ZM18.291,21.459 L18.291,40.297 L10.386,40.297 L10.386,9.883 L18.016,9.883 L28.845,28.404 L28.845,9.883 L36.749,9.883 L36.749,40.297 L29.256,40.297 L18.291,21.459 ZM341.212,40.297 L333.445,40.297 L333.445,17.419 L341.212,17.419 L341.212,40.297 Z"/>
</svg>