<svg 
 xmlns="http://www.w3.org/2000/svg"
 xmlns:xlink="http://www.w3.org/1999/xlink"
 width="19.756cm" height="4.374cm">
<path fill-rule="evenodd"  fill="rgb(0, 0, 0)"
 d="M535.840,107.034 C536.122,110.208 536.812,112.459 537.914,113.789 C539.014,115.119 540.385,115.784 542.026,115.784 C543.525,115.784 544.696,115.388 545.540,114.594 C546.383,113.801 546.969,112.681 547.297,111.234 L558.683,111.234 C557.745,115.201 555.766,118.176 552.744,120.159 C549.722,122.143 546.125,123.134 541.955,123.134 C538.628,123.134 535.605,122.457 532.888,121.104 C530.170,119.751 528.015,117.709 526.422,114.979 C524.829,112.249 524.033,108.784 524.033,104.584 C524.033,100.804 524.771,97.526 526.247,94.749 C527.723,91.973 529.784,89.826 532.432,88.309 C535.078,86.793 538.160,86.034 541.674,86.034 C545.375,86.034 548.527,86.816 551.127,88.379 C553.728,89.943 555.707,92.124 557.066,94.924 C558.425,97.724 559.105,100.991 559.105,104.724 L559.105,107.034 L535.840,107.034 ZM545.610,95.484 C544.672,94.084 543.361,93.384 541.674,93.384 C540.081,93.384 538.757,94.073 537.703,95.449 C536.649,96.826 536.027,98.798 535.840,101.364 L547.297,101.364 C547.109,98.844 546.547,96.884 545.610,95.484 ZM513.280,113.684 C513.982,114.431 514.919,114.804 516.091,114.804 C516.747,114.804 517.426,114.734 518.129,114.594 C518.832,114.454 519.511,114.244 520.167,113.964 L521.995,121.244 C520.916,121.851 519.546,122.317 517.883,122.644 C516.219,122.969 514.591,123.134 512.998,123.134 C508.687,123.134 505.489,121.933 503.405,119.529 C501.319,117.126 500.277,114.081 500.277,110.394 L500.277,94.644 L495.708,94.644 L495.708,86.944 L500.277,86.944 L500.277,77.004 L512.225,77.004 L512.225,86.944 L520.589,86.944 L520.589,94.644 L512.225,94.644 L512.225,110.254 C512.225,111.794 512.577,112.938 513.280,113.684 ZM485.237,113.684 C485.940,114.431 486.876,114.804 488.048,114.804 C488.704,114.804 489.384,114.734 490.086,114.594 C490.789,114.454 491.468,114.244 492.125,113.964 L493.952,121.244 C492.874,121.851 491.503,122.317 489.840,122.644 C488.177,122.969 486.548,123.134 484.956,123.134 C480.644,123.134 477.446,121.933 475.362,119.529 C473.276,117.126 472.234,114.081 472.234,110.394 L472.234,94.644 L467.666,94.644 L467.666,86.944 L472.234,86.944 L472.234,77.004 L484.183,77.004 L484.183,86.944 L492.546,86.944 L492.546,94.644 L484.183,94.644 L484.183,110.254 C484.183,111.794 484.534,112.938 485.237,113.684 ZM451.923,117.604 C450.704,119.331 449.076,120.684 447.038,121.664 C445.000,122.644 442.879,123.134 440.677,123.134 C437.397,123.134 434.714,122.269 432.630,120.544 C430.544,118.818 429.502,116.368 429.502,113.194 C429.502,110.674 430.170,108.598 431.505,106.964 C432.840,105.331 434.598,104.048 436.776,103.114 C438.955,102.181 441.321,101.516 443.875,101.119 C446.429,100.723 448.901,100.501 451.290,100.454 L451.290,99.684 C451.290,97.678 450.904,96.126 450.131,95.029 C449.357,93.933 448.244,93.384 446.792,93.384 C445.573,93.384 444.543,93.769 443.700,94.539 C442.856,95.309 442.317,96.418 442.083,97.864 L430.837,97.864 C431.446,94.131 433.180,91.226 436.038,89.149 C438.896,87.073 442.621,86.034 447.214,86.034 C452.555,86.034 456.502,87.353 459.057,89.989 C461.610,92.626 462.887,96.581 462.887,101.854 L462.887,122.224 L452.204,122.224 L451.923,117.604 ZM451.290,105.564 C447.776,105.658 445.257,106.276 443.735,107.419 C442.211,108.563 441.450,109.974 441.450,111.654 C441.450,113.054 441.813,114.093 442.540,114.769 C443.266,115.446 444.215,115.784 445.386,115.784 C447.026,115.784 448.420,115.143 449.568,113.859 C450.716,112.576 451.290,110.721 451.290,108.294 L451.290,105.564 ZM418.854,120.789 C416.675,122.352 414.133,123.134 411.228,123.134 C409.072,123.134 407.046,122.562 405.148,121.419 C403.251,120.276 401.856,118.584 400.966,116.344 L400.545,122.224 L389.861,122.224 L389.861,73.224 L401.810,73.224 L401.810,91.144 C404.105,87.738 407.385,86.034 411.650,86.034 C414.554,86.034 417.062,86.839 419.170,88.449 C421.279,90.059 422.906,92.264 424.055,95.064 C425.203,97.864 425.777,101.038 425.777,104.584 C425.777,108.224 425.167,111.444 423.950,114.244 C422.731,117.044 421.033,119.226 418.854,120.789 ZM411.931,97.164 C410.947,95.204 409.494,94.224 407.573,94.224 C405.792,94.224 404.363,95.076 403.286,96.779 C402.207,98.483 401.669,100.874 401.669,103.954 L401.669,105.214 C401.669,108.248 402.207,110.616 403.286,112.319 C404.363,114.023 405.792,114.874 407.573,114.874 C409.494,114.874 410.947,113.906 411.931,111.969 C412.915,110.033 413.407,107.571 413.407,104.584 C413.407,101.598 412.915,99.124 411.931,97.164 ZM370.886,117.604 C369.666,119.331 368.039,120.684 366.001,121.664 C363.962,122.644 361.842,123.134 359.640,123.134 C356.360,123.134 353.677,122.269 351.592,120.544 C349.507,118.818 348.465,116.368 348.465,113.194 C348.465,110.674 349.132,108.598 350.468,106.964 C351.803,105.331 353.560,104.048 355.739,103.114 C357.918,102.181 360.283,101.516 362.838,101.119 C365.391,100.723 367.863,100.501 370.253,100.454 L370.253,99.684 C370.253,97.678 369.866,96.126 369.093,95.029 C368.320,93.933 367.207,93.384 365.755,93.384 C364.536,93.384 363.506,93.769 362.662,94.539 C361.819,95.309 361.280,96.418 361.046,97.864 L349.800,97.864 C350.408,94.131 352.142,91.226 355.001,89.149 C357.859,87.073 361.584,86.034 366.176,86.034 C371.518,86.034 375.465,87.353 378.019,89.989 C380.573,92.626 381.850,96.581 381.850,101.854 L381.850,122.224 L371.167,122.224 L370.886,117.604 ZM370.253,105.564 C366.739,105.658 364.219,106.276 362.697,107.419 C361.174,108.563 360.413,109.974 360.413,111.654 C360.413,113.054 360.775,114.093 361.502,114.769 C362.228,115.446 363.177,115.784 364.349,115.784 C365.989,115.784 367.382,115.143 368.531,113.859 C369.679,112.576 370.253,110.721 370.253,108.294 L370.253,105.564 ZM344.951,122.224 L331.878,122.224 C330.847,116.764 329.090,112.401 326.607,109.134 C324.123,105.868 321.125,104.141 317.611,103.954 L317.611,122.224 L305.100,122.224 L305.100,75.324 L324.077,75.324 C330.074,75.324 334.678,76.596 337.888,79.139 C341.097,81.683 342.702,84.891 342.702,88.764 C342.702,91.144 342.151,93.198 341.051,94.924 C339.949,96.651 338.496,98.039 336.693,99.089 C334.889,100.139 332.933,100.874 330.824,101.294 C334.572,102.881 337.595,105.518 339.891,109.204 C342.186,112.891 343.873,117.231 344.951,122.224 ZM327.872,85.124 C326.419,84.004 324.311,83.444 321.547,83.444 L317.611,83.444 L317.611,96.324 L321.547,96.324 C324.311,96.324 326.419,95.764 327.872,94.644 C329.324,93.524 330.051,91.938 330.051,89.884 C330.051,87.831 329.324,86.244 327.872,85.124 ZM275.370,100.384 L298.142,100.384 L298.142,109.484 L275.370,109.484 L275.370,100.384 ZM272.839,97.339 C272.277,97.269 271.737,97.234 271.222,97.234 C269.067,97.234 267.286,97.899 265.881,99.229 C264.475,100.559 263.772,102.601 263.772,105.354 L263.772,122.224 L251.824,122.224 L251.824,86.944 L262.296,86.944 L262.858,93.104 C263.467,91.424 264.521,89.884 266.021,88.484 C267.520,87.084 269.511,86.384 271.996,86.384 C272.463,86.384 272.862,86.408 273.190,86.454 C273.518,86.501 273.823,86.548 274.104,86.594 L274.104,97.584 C273.823,97.491 273.401,97.409 272.839,97.339 ZM224.589,113.789 C225.689,115.119 227.060,115.784 228.700,115.784 C230.200,115.784 231.371,115.388 232.215,114.594 C233.058,113.801 233.643,112.681 233.972,111.234 L245.358,111.234 C244.420,115.201 242.441,118.176 239.419,120.159 C236.397,122.143 232.800,123.134 228.630,123.134 C225.303,123.134 222.280,122.457 219.563,121.104 C216.845,119.751 214.690,117.709 213.097,114.979 C211.504,112.249 210.708,108.784 210.708,104.584 C210.708,100.804 211.446,97.526 212.921,94.749 C214.397,91.973 216.459,89.826 219.107,88.309 C221.753,86.793 224.835,86.034 228.349,86.034 C232.050,86.034 235.202,86.816 237.802,88.379 C240.403,89.943 242.382,92.124 243.741,94.924 C245.100,97.724 245.780,100.991 245.780,104.724 L245.780,107.034 L222.515,107.034 C222.797,110.208 223.487,112.459 224.589,113.789 ZM233.972,101.364 C233.784,98.844 233.222,96.884 232.285,95.484 C231.347,94.084 230.036,93.384 228.349,93.384 C226.756,93.384 225.432,94.073 224.378,95.449 C223.324,96.826 222.702,98.798 222.515,101.364 L233.972,101.364 ZM192.996,100.664 C192.996,98.798 192.632,97.316 191.907,96.219 C191.180,95.123 190.090,94.574 188.638,94.574 C187.279,94.574 186.084,95.193 185.054,96.429 C184.023,97.666 183.507,99.614 183.507,102.274 L183.507,122.224 L171.559,122.224 L171.559,100.664 C171.559,98.798 171.196,97.316 170.470,96.219 C169.743,95.123 168.653,94.574 167.201,94.574 C165.842,94.574 164.647,95.193 163.617,96.429 C162.586,97.666 162.071,99.614 162.071,102.274 L162.071,122.224 L150.122,122.224 L150.122,86.944 L160.805,86.944 L161.157,92.334 C162.000,90.421 163.324,88.893 165.128,87.749 C166.931,86.606 169.122,86.034 171.700,86.034 C174.183,86.034 176.326,86.594 178.131,87.714 C179.934,88.834 181.304,90.374 182.242,92.334 C183.086,90.421 184.432,88.893 186.284,87.749 C188.134,86.606 190.418,86.034 193.137,86.034 C196.791,86.034 199.673,87.189 201.782,89.499 C203.890,91.809 204.944,94.924 204.944,98.844 L204.944,122.224 L192.996,122.224 L192.996,100.664 ZM168.362,43.789 C169.462,45.119 170.833,45.784 172.473,45.784 C173.972,45.784 175.144,45.388 175.988,44.594 C176.831,43.801 177.416,42.681 177.745,41.234 L189.131,41.234 C188.193,45.201 186.214,48.176 183.192,50.159 C180.170,52.143 176.573,53.134 172.403,53.134 C169.076,53.134 166.053,52.457 163.336,51.104 C160.618,49.751 158.463,47.709 156.870,44.979 C155.277,42.249 154.480,38.784 154.480,34.584 C154.480,30.804 155.218,27.526 156.694,24.749 C158.170,21.973 160.232,19.826 162.880,18.309 C165.526,16.793 168.608,16.034 172.122,16.034 C175.823,16.034 178.975,16.816 181.575,18.379 C184.176,19.943 186.155,22.124 187.514,24.924 C188.873,27.724 189.553,30.991 189.553,34.724 L189.553,37.034 L166.288,37.034 C166.569,40.208 167.260,42.459 168.362,43.789 ZM177.745,31.364 C177.557,28.844 176.995,26.884 176.058,25.484 C175.120,24.084 173.809,23.384 172.122,23.384 C170.528,23.384 169.205,24.073 168.151,25.449 C167.097,26.826 166.475,28.798 166.288,31.364 L177.745,31.364 ZM134.731,53.134 C133.652,53.134 132.517,53.029 131.322,52.819 C130.127,52.609 128.990,52.269 127.913,51.804 L129.389,44.524 C130.373,44.851 131.403,45.014 132.482,45.014 C134.214,45.014 135.644,44.373 136.769,43.089 C137.893,41.806 138.456,39.928 138.456,37.454 C138.456,35.261 137.823,33.488 136.558,32.134 C135.293,30.781 133.395,30.104 130.865,30.104 L129.248,30.104 L129.248,22.474 L130.795,22.474 C132.200,22.474 133.336,21.926 134.203,20.829 C135.070,19.733 135.504,18.228 135.504,16.314 C135.504,12.348 133.863,10.364 130.584,10.364 C128.990,10.364 127.725,10.959 126.788,12.149 C125.851,13.339 125.383,15.148 125.383,17.574 L125.383,52.224 L113.434,52.224 L113.434,20.864 C113.434,14.798 114.945,10.189 117.968,7.039 C120.990,3.889 125.359,2.314 131.076,2.314 C134.355,2.314 137.226,2.886 139.686,4.029 C142.146,5.173 144.054,6.748 145.414,8.754 C146.772,10.761 147.452,13.094 147.452,15.754 C147.452,17.994 146.995,20.013 146.082,21.809 C145.168,23.606 143.492,24.994 141.056,25.974 C143.633,26.674 145.625,27.701 147.030,29.054 C148.436,30.408 149.408,31.913 149.947,33.569 C150.485,35.226 150.756,36.918 150.756,38.644 C150.756,43.264 149.291,46.834 146.363,49.354 C143.434,51.874 139.556,53.134 134.731,53.134 ZM119.408,92.334 C120.251,90.421 121.598,88.893 123.449,87.749 C125.300,86.606 127.584,86.034 130.302,86.034 C133.957,86.034 136.839,87.189 138.947,89.499 C141.056,91.809 142.110,94.924 142.110,98.844 L142.110,122.224 L130.161,122.224 L130.161,100.664 C130.161,98.798 129.798,97.316 129.072,96.219 C128.345,95.123 127.256,94.574 125.804,94.574 C124.444,94.574 123.249,95.193 122.219,96.429 C121.188,97.666 120.673,99.614 120.673,102.274 L120.673,122.224 L108.725,122.224 L108.725,100.664 C108.725,98.798 108.361,97.316 107.635,96.219 C106.908,95.123 105.819,94.574 104.367,94.574 C103.007,94.574 101.812,95.193 100.782,96.429 C99.751,97.666 99.236,99.614 99.236,102.274 L99.236,122.224 L87.288,122.224 L87.288,86.944 L97.971,86.944 L98.322,92.334 C99.166,90.421 100.489,88.893 102.293,87.749 C104.097,86.606 106.288,86.034 108.865,86.034 C111.348,86.034 113.492,86.594 115.296,87.714 C117.099,88.834 118.470,90.374 119.408,92.334 ZM105.001,52.224 L93.052,52.224 L93.052,16.944 L105.001,16.944 L105.001,52.224 ZM99.026,12.954 C97.152,12.954 95.570,12.336 94.282,11.099 C92.993,9.863 92.349,8.358 92.349,6.584 C92.349,4.811 92.993,3.306 94.282,2.069 C95.570,0.833 97.152,0.214 99.026,0.214 C100.900,0.214 102.481,0.833 103.771,2.069 C105.059,3.306 105.703,4.811 105.703,6.584 C105.703,8.358 105.059,9.863 103.771,11.099 C102.481,12.336 100.900,12.954 99.026,12.954 ZM65.817,43.789 C66.918,45.119 68.288,45.784 69.929,45.784 C71.428,45.784 72.600,45.388 73.443,44.594 C74.287,43.801 74.872,42.681 75.200,41.234 L86.586,41.234 C85.649,45.201 83.670,48.176 80.647,50.159 C77.625,52.143 74.028,53.134 69.859,53.134 C66.531,53.134 63.509,52.457 60.792,51.104 C58.074,49.751 55.918,47.709 54.326,44.979 C52.732,42.249 51.936,38.784 51.936,34.584 C51.936,30.804 52.674,27.526 54.150,24.749 C55.626,21.973 57.687,19.826 60.335,18.309 C62.982,16.793 66.063,16.034 69.577,16.034 C73.278,16.034 76.430,16.816 79.031,18.379 C81.631,19.943 83.610,22.124 84.970,24.924 C86.328,27.724 87.008,30.991 87.008,34.724 L87.008,37.034 L63.744,37.034 C64.025,40.208 64.716,42.459 65.817,43.789 ZM75.200,31.364 C75.012,28.844 74.450,26.884 73.513,25.484 C72.576,24.084 71.264,23.384 69.577,23.384 C67.984,23.384 66.661,24.073 65.606,25.449 C64.552,26.826 63.931,28.798 63.744,31.364 L75.200,31.364 ZM62.759,86.034 C66.555,86.034 69.823,86.851 72.564,88.484 C75.305,90.118 77.414,92.323 78.890,95.099 C80.365,97.876 81.103,101.038 81.103,104.584 C81.103,108.131 80.365,111.293 78.890,114.069 C77.414,116.846 75.305,119.051 72.564,120.684 C69.823,122.317 66.555,123.134 62.759,123.134 C58.964,123.134 55.695,122.317 52.954,120.684 C50.213,119.051 48.105,116.846 46.629,114.069 C45.153,111.293 44.415,108.131 44.415,104.584 C44.415,101.038 45.153,97.876 46.629,95.099 C48.105,92.323 50.213,90.118 52.954,88.484 C55.695,86.851 58.964,86.034 62.759,86.034 ZM58.366,112.529 C59.421,114.466 60.885,115.434 62.759,115.434 C64.633,115.434 66.098,114.466 67.152,112.529 C68.206,110.593 68.733,107.944 68.733,104.584 C68.733,101.224 68.206,98.576 67.152,96.639 C66.098,94.703 64.633,93.734 62.759,93.734 C60.885,93.734 59.421,94.703 58.366,96.639 C57.312,98.576 56.785,101.224 56.785,104.584 C56.785,107.944 57.312,110.593 58.366,112.529 ZM32.256,33.044 L16.513,33.044 L16.513,52.224 L4.002,52.224 L4.002,5.324 L16.513,5.324 L16.513,23.874 L32.256,23.874 L32.256,5.324 L44.767,5.324 L44.767,52.224 L32.256,52.224 L32.256,33.044 ZM22.346,104.234 L14.545,102.204 C10.514,101.178 7.492,99.579 5.478,97.409 C3.463,95.239 2.456,92.171 2.456,88.204 C2.456,85.171 3.264,82.616 4.880,80.539 C6.497,78.463 8.664,76.888 11.382,75.814 C14.099,74.741 17.145,74.204 20.519,74.204 C26.094,74.204 30.440,75.511 33.557,78.124 C36.672,80.738 38.558,84.448 39.215,89.254 L27.126,89.254 C26.844,87.108 26.117,85.416 24.947,84.179 C23.775,82.943 22.182,82.324 20.167,82.324 C18.433,82.324 17.075,82.791 16.091,83.724 C15.107,84.658 14.615,85.848 14.615,87.294 C14.615,90.048 16.184,91.821 19.324,92.614 L26.704,94.504 C30.218,95.391 32.935,96.546 34.857,97.969 C36.778,99.393 38.113,101.014 38.863,102.834 C39.612,104.654 39.988,106.661 39.988,108.854 C39.988,113.381 38.336,116.928 35.033,119.494 C31.729,122.061 27.078,123.344 21.081,123.344 C15.130,123.344 10.433,122.026 6.989,119.389 C3.545,116.753 1.542,112.961 0.980,108.014 L13.280,108.014 C13.654,110.721 14.591,112.599 16.091,113.649 C17.590,114.699 19.300,115.224 21.222,115.224 C23.424,115.224 25.040,114.688 26.071,113.614 C27.101,112.541 27.618,111.421 27.618,110.254 C27.618,108.808 27.231,107.571 26.458,106.544 C25.685,105.518 24.314,104.748 22.346,104.234 Z"/>
</svg>