<svg 
 xmlns="http://www.w3.org/2000/svg"
 xmlns:xlink="http://www.w3.org/1999/xlink"
 width="19.121cm" height="4.727cm">
<path fill-rule="evenodd"  fill="rgb(0, 0, 0)"
 d="M531.398,104.384 L529.219,72.324 L541.800,72.324 L539.692,104.384 L531.398,104.384 ZM535.475,107.324 C537.302,107.324 538.824,107.908 540.043,109.074 C541.261,110.241 541.871,111.758 541.871,113.624 C541.871,115.351 541.238,116.833 539.973,118.069 C538.708,119.304 537.208,119.924 535.475,119.924 C533.693,119.924 532.194,119.304 530.977,118.069 C529.758,116.833 529.149,115.351 529.149,113.624 C529.149,111.758 529.758,110.241 530.977,109.074 C532.194,107.908 533.693,107.324 535.475,107.324 ZM516.955,117.789 C514.776,119.352 512.234,120.134 509.329,120.134 C507.454,120.134 505.674,119.702 503.987,118.839 C502.300,117.976 500.941,116.704 499.911,115.024 L499.911,133.924 L487.962,133.924 L487.962,83.944 L498.646,83.944 L499.067,89.684 C501.269,85.251 504.831,83.034 509.751,83.034 C512.655,83.034 515.163,83.839 517.271,85.449 C519.380,87.059 521.007,89.264 522.156,92.064 C523.303,94.864 523.878,98.038 523.878,101.584 C523.878,105.224 523.268,108.444 522.050,111.244 C520.831,114.044 519.134,116.226 516.955,117.789 ZM510.032,94.164 C509.048,92.204 507.595,91.224 505.674,91.224 C503.893,91.224 502.464,92.076 501.387,93.779 C500.308,95.483 499.770,97.874 499.770,100.954 L499.770,102.214 C499.770,105.248 500.308,107.616 501.387,109.319 C502.464,111.023 503.893,111.874 505.674,111.874 C507.595,111.874 509.048,110.906 510.032,108.969 C511.016,107.033 511.508,104.571 511.508,101.584 C511.508,98.598 511.016,96.124 510.032,94.164 ZM474.854,117.789 C472.675,119.352 470.133,120.134 467.228,120.134 C465.354,120.134 463.573,119.702 461.887,118.839 C460.200,117.976 458.840,116.704 457.810,115.024 L457.810,133.924 L445.862,133.924 L445.862,83.944 L456.545,83.944 L456.967,89.684 C459.169,85.251 462.730,83.034 467.650,83.034 C470.555,83.034 473.062,83.839 475.170,85.449 C477.279,87.059 478.907,89.264 480.055,92.064 C481.203,94.864 481.777,98.038 481.777,101.584 C481.777,105.224 481.168,108.444 479.950,111.244 C478.731,114.044 477.033,116.226 474.854,117.789 ZM467.931,94.164 C466.947,92.204 465.494,91.224 463.573,91.224 C461.792,91.224 460.363,92.076 459.286,93.779 C458.208,95.483 457.670,97.874 457.670,100.954 L457.670,102.214 C457.670,105.248 458.208,107.616 459.286,109.319 C460.363,111.023 461.792,111.874 463.573,111.874 C465.494,111.874 466.947,110.906 467.931,108.969 C468.915,107.033 469.407,104.571 469.407,101.584 C469.407,98.598 468.915,96.124 467.931,94.164 ZM425.832,110.544 L410.228,110.544 L407.487,119.224 L395.328,119.224 L412.196,72.324 L424.356,72.324 L441.154,119.224 L428.573,119.224 L425.832,110.544 ZM418.030,85.624 L412.969,101.654 L423.020,101.654 L418.030,85.624 ZM362.224,96.964 L367.284,98.224 C371.314,99.251 374.172,100.569 375.859,102.179 C377.546,103.789 378.389,105.971 378.389,108.724 C378.389,112.364 376.984,115.176 374.172,117.159 C371.361,119.143 367.448,120.134 362.435,120.134 C357.420,120.134 353.497,119.096 350.662,117.019 C347.827,114.943 346.199,111.968 345.777,108.094 L357.374,108.094 C357.608,110.008 358.241,111.326 359.272,112.049 C360.302,112.773 361.404,113.134 362.575,113.134 C363.934,113.134 364.988,112.843 365.738,112.259 C366.487,111.676 366.863,110.941 366.863,110.054 C366.863,109.261 366.546,108.514 365.914,107.814 C365.281,107.114 364.097,106.531 362.364,106.064 L356.461,104.524 C353.414,103.731 351.037,102.518 349.327,100.884 C347.616,99.251 346.761,96.988 346.761,94.094 C346.761,91.621 347.464,89.568 348.870,87.934 C350.276,86.301 352.173,85.076 354.563,84.259 C356.953,83.443 359.646,83.034 362.646,83.034 C367.049,83.034 370.541,84.014 373.118,85.974 C375.694,87.934 377.311,90.758 377.968,94.444 L366.441,94.444 C366.253,93.091 365.808,92.018 365.106,91.224 C364.403,90.431 363.395,90.034 362.083,90.034 C360.864,90.034 359.928,90.349 359.272,90.979 C358.615,91.609 358.288,92.368 358.288,93.254 C358.288,94.094 358.569,94.829 359.131,95.459 C359.694,96.089 360.724,96.591 362.224,96.964 ZM333.969,89.474 L333.969,84.714 C336.499,84.201 338.162,82.964 338.959,81.004 C337.459,80.911 336.229,80.363 335.269,79.359 C334.308,78.356 333.828,77.061 333.828,75.474 C333.828,73.608 334.391,72.149 335.515,71.099 C336.640,70.049 338.092,69.524 339.873,69.524 C341.747,69.524 343.258,70.178 344.406,71.484 C345.554,72.791 346.128,74.728 346.128,77.294 C346.128,80.421 345.062,83.139 342.930,85.449 C340.798,87.759 337.811,89.101 333.969,89.474 ZM314.782,113.484 C312.579,117.918 309.019,120.134 304.099,120.134 C301.240,120.134 298.745,119.329 296.614,117.719 C294.481,116.109 292.841,113.904 291.694,111.104 C290.545,108.304 289.972,105.131 289.972,101.584 C289.972,97.944 290.580,94.724 291.799,91.924 C293.017,89.124 294.716,86.943 296.895,85.379 C299.074,83.816 301.615,83.034 304.521,83.034 C306.394,83.034 308.175,83.466 309.862,84.329 C311.549,85.193 312.908,86.464 313.939,88.144 L313.939,70.224 L325.887,70.224 L325.887,119.224 L315.204,119.224 L314.782,113.484 ZM314.079,100.954 C314.079,97.921 313.528,95.553 312.428,93.849 C311.326,92.146 309.908,91.294 308.175,91.294 C306.254,91.294 304.802,92.263 303.818,94.199 C302.834,96.136 302.342,98.598 302.342,101.584 C302.342,104.571 302.834,107.044 303.818,109.004 C304.802,110.964 306.254,111.944 308.175,111.944 C309.908,111.944 311.326,111.093 312.428,109.389 C313.528,107.686 314.079,105.294 314.079,102.214 L314.079,100.954 ZM296.999,19.544 C295.453,19.544 293.965,19.964 292.536,20.804 C291.106,21.644 289.935,22.974 289.022,24.794 C288.108,26.614 287.651,28.971 287.651,31.864 L287.651,49.224 L281.326,49.224 L281.326,14.364 L286.948,14.364 L287.300,21.224 C288.143,19.171 289.431,17.409 291.165,15.939 C292.898,14.469 294.961,13.734 297.351,13.734 C297.818,13.734 298.217,13.769 298.545,13.839 C298.873,13.909 299.224,13.968 299.600,14.014 L299.600,19.824 C299.319,19.731 298.943,19.661 298.475,19.614 C298.006,19.568 297.514,19.544 296.999,19.544 ZM249.874,42.364 C251.631,44.651 254.149,45.794 257.430,45.794 C260.100,45.794 262.197,45.129 263.720,43.799 C265.242,42.469 266.308,40.684 266.918,38.444 L273.033,38.444 C272.049,42.364 270.151,45.293 267.340,47.229 C264.528,49.166 261.201,50.134 257.359,50.134 C254.360,50.134 251.584,49.457 249.030,48.104 C246.476,46.751 244.427,44.721 242.881,42.014 C241.334,39.308 240.561,35.901 240.561,31.794 C240.561,27.921 241.322,24.619 242.845,21.889 C244.368,19.159 246.395,17.071 248.925,15.624 C251.455,14.178 254.219,13.454 257.219,13.454 C260.498,13.454 263.344,14.189 265.758,15.659 C268.171,17.129 270.057,19.229 271.416,21.959 C272.775,24.689 273.454,27.944 273.454,31.724 L273.454,33.404 L246.887,33.404 C247.121,37.091 248.117,40.078 249.874,42.364 ZM267.129,29.204 C266.800,25.704 265.804,22.928 264.142,20.874 C262.478,18.821 260.171,17.794 257.219,17.794 C254.501,17.794 252.169,18.798 250.225,20.804 C248.280,22.811 247.191,25.611 246.957,29.204 L267.129,29.204 ZM248.154,83.034 C253.495,83.034 257.442,84.353 259.997,86.989 C262.550,89.626 263.827,93.581 263.827,98.854 L263.827,119.224 L253.144,119.224 L252.863,114.604 C251.644,116.331 250.016,117.684 247.978,118.664 C245.940,119.644 243.819,120.134 241.617,120.134 C238.337,120.134 235.654,119.269 233.570,117.544 C231.484,115.818 230.442,113.368 230.442,110.194 C230.442,107.674 231.110,105.598 232.445,103.964 C233.780,102.331 235.537,101.048 237.716,100.114 C239.895,99.181 242.261,98.516 244.815,98.119 C247.368,97.723 249.840,97.501 252.230,97.454 L252.230,96.684 C252.230,94.678 251.844,93.126 251.070,92.029 C250.297,90.933 249.184,90.384 247.732,90.384 C246.513,90.384 245.483,90.769 244.639,91.539 C243.796,92.309 243.257,93.418 243.023,94.864 L231.777,94.864 C232.386,91.131 234.120,88.226 236.978,86.149 C239.836,84.073 243.561,83.034 248.154,83.034 ZM244.675,104.419 C243.151,105.563 242.390,106.974 242.390,108.654 C242.390,110.054 242.753,111.093 243.480,111.769 C244.206,112.446 245.154,112.784 246.326,112.784 C247.966,112.784 249.359,112.143 250.508,110.859 C251.656,109.576 252.230,107.721 252.230,105.294 L252.230,102.564 C248.716,102.658 246.197,103.276 244.675,104.419 ZM226.435,43.414 C225.216,45.561 223.553,47.218 221.445,48.384 C219.336,49.549 217.110,50.134 214.768,50.134 C211.628,50.134 208.945,49.329 206.720,47.719 C204.494,46.109 202.784,43.928 201.589,41.174 C200.394,38.421 199.797,35.294 199.797,31.794 C199.797,28.201 200.429,25.028 201.695,22.274 C202.960,19.521 204.728,17.363 207.001,15.799 C209.273,14.236 211.932,13.454 214.978,13.454 C217.509,13.454 219.734,14.003 221.655,15.099 C223.576,16.196 225.099,17.678 226.224,19.544 L226.224,0.224 L232.550,0.224 L232.550,49.224 L226.786,49.224 L226.435,43.414 ZM226.365,31.234 C226.365,27.174 225.404,23.978 223.483,21.644 C221.561,19.311 219.219,18.144 216.454,18.144 C214.299,18.144 212.471,18.739 210.972,19.929 C209.472,21.119 208.324,22.753 207.528,24.829 C206.731,26.906 206.333,29.228 206.333,31.794 C206.333,34.361 206.731,36.683 207.528,38.759 C208.324,40.836 209.472,42.469 210.972,43.659 C212.471,44.849 214.299,45.444 216.454,45.444 C218.235,45.444 219.874,44.931 221.374,43.904 C222.873,42.878 224.080,41.384 224.994,39.424 C225.908,37.464 226.365,35.084 226.365,32.284 L226.365,31.234 ZM201.695,89.334 C202.585,87.421 203.980,85.893 205.877,84.749 C207.775,83.606 210.035,83.034 212.660,83.034 C216.455,83.034 219.442,84.189 221.621,86.499 C223.800,88.809 224.889,91.924 224.889,95.844 L224.889,119.224 L212.941,119.224 L212.941,97.664 C212.941,95.798 212.542,94.316 211.746,93.219 C210.949,92.123 209.754,91.574 208.162,91.574 C206.709,91.574 205.421,92.193 204.296,93.429 C203.171,94.666 202.609,96.614 202.609,99.274 L202.609,119.224 L190.661,119.224 L190.661,83.944 L201.344,83.944 L201.695,89.334 ZM175.937,117.684 C173.196,119.317 169.928,120.134 166.132,120.134 C162.337,120.134 159.069,119.317 156.327,117.684 C153.586,116.051 151.478,113.846 150.002,111.069 C148.526,108.293 147.788,105.131 147.788,101.584 C147.788,98.038 148.526,94.876 150.002,92.099 C151.478,89.323 153.586,87.118 156.327,85.484 C159.069,83.851 162.337,83.034 166.132,83.034 C169.928,83.034 173.196,83.851 175.937,85.484 C178.678,87.118 180.787,89.323 182.263,92.099 C183.739,94.876 184.477,98.038 184.477,101.584 C184.477,105.131 183.739,108.293 182.263,111.069 C180.787,113.846 178.678,116.051 175.937,117.684 ZM170.525,93.639 C169.471,91.703 168.006,90.734 166.132,90.734 C164.258,90.734 162.794,91.703 161.739,93.639 C160.685,95.576 160.158,98.224 160.158,101.584 C160.158,104.944 160.685,107.593 161.739,109.529 C162.794,111.466 164.258,112.434 166.132,112.434 C168.006,112.434 169.471,111.466 170.525,109.529 C171.579,107.593 172.106,104.944 172.106,101.584 C172.106,98.224 171.579,95.576 170.525,93.639 ZM171.964,28.364 C171.964,21.598 169.223,18.214 163.741,18.214 C160.930,18.214 158.586,19.288 156.713,21.434 C154.838,23.581 153.901,26.848 153.901,31.234 L153.901,49.224 L147.576,49.224 L147.576,14.364 L153.339,14.364 L153.690,20.384 C154.908,18.051 156.595,16.313 158.751,15.169 C160.906,14.026 163.202,13.454 165.639,13.454 C169.856,13.454 173.019,14.714 175.127,17.234 C177.236,19.754 178.290,23.161 178.290,27.454 L178.290,49.224 L171.964,49.224 L171.964,28.364 ZM131.623,116.144 C127.780,118.198 123.071,119.224 117.496,119.224 L100.979,119.224 L100.979,72.324 L117.496,72.324 C123.071,72.324 127.780,73.339 131.623,75.369 C135.465,77.399 138.370,80.129 140.338,83.559 C142.306,86.989 143.290,90.828 143.290,95.074 C143.290,99.834 142.306,104.023 140.338,107.639 C138.370,111.256 135.465,114.091 131.623,116.144 ZM127.125,84.854 C125.062,82.288 121.853,81.004 117.496,81.004 L112.787,81.004 L112.787,110.474 L117.496,110.474 C121.853,110.474 125.062,109.191 127.125,106.624 C129.186,104.058 130.217,100.441 130.217,95.774 C130.217,91.061 129.186,87.421 127.125,84.854 ZM137.244,49.224 L130.919,49.224 L130.919,14.364 L137.244,14.364 L137.244,49.224 ZM134.011,8.484 C132.887,8.484 131.938,8.111 131.165,7.364 C130.392,6.618 130.005,5.661 130.005,4.494 C130.005,3.374 130.392,2.441 131.165,1.694 C131.938,0.948 132.887,0.574 134.011,0.574 C135.182,0.574 136.155,0.948 136.928,1.694 C137.701,2.441 138.088,3.374 138.088,4.494 C138.088,5.661 137.701,6.618 136.928,7.364 C136.155,8.111 135.182,8.484 134.011,8.484 ZM107.726,19.544 C106.179,19.544 104.691,19.964 103.263,20.804 C101.833,21.644 100.662,22.974 99.748,24.794 C98.835,26.614 98.378,28.971 98.378,31.864 L98.378,49.224 L92.052,49.224 L92.052,14.364 L97.675,14.364 L98.026,21.224 C98.870,19.171 100.158,17.409 101.892,15.939 C103.625,14.469 105.687,13.734 108.077,13.734 C108.545,13.734 108.944,13.769 109.272,13.839 C109.599,13.909 109.951,13.968 110.326,14.014 L110.326,19.824 C110.045,19.731 109.669,19.661 109.202,19.614 C108.733,19.568 108.241,19.544 107.726,19.544 ZM82.213,96.614 C81.837,94.514 81.252,93.009 80.456,92.099 C79.658,91.189 78.699,90.734 77.574,90.734 C76.074,90.734 74.763,91.551 73.638,93.184 C72.513,94.818 71.951,97.618 71.951,101.584 C71.951,105.504 72.513,108.293 73.638,109.949 C74.763,111.606 76.074,112.434 77.574,112.434 C78.792,112.434 79.811,111.968 80.631,111.034 C81.451,110.101 82.048,108.444 82.424,106.064 L94.161,106.064 C93.645,109.331 92.568,112.003 90.928,114.079 C89.287,116.156 87.308,117.684 84.989,118.664 C82.670,119.644 80.198,120.134 77.574,120.134 C74.200,120.134 71.154,119.434 68.437,118.034 C65.719,116.634 63.563,114.546 61.971,111.769 C60.377,108.993 59.581,105.598 59.581,101.584 C59.581,97.711 60.377,94.386 61.971,91.609 C63.563,88.833 65.719,86.709 68.437,85.239 C71.154,83.769 74.200,83.034 77.574,83.034 C80.291,83.034 82.833,83.536 85.200,84.539 C87.565,85.543 89.533,87.048 91.104,89.054 C92.673,91.061 93.645,93.581 94.021,96.614 L82.213,96.614 ZM75.676,43.554 C74.457,45.794 72.830,47.451 70.791,48.524 C68.753,49.597 66.539,50.134 64.149,50.134 C60.119,50.134 57.074,48.874 55.012,46.354 C52.950,43.834 51.920,40.428 51.920,36.134 L51.920,14.364 L58.245,14.364 L58.245,35.224 C58.245,38.678 58.924,41.233 60.284,42.889 C61.642,44.546 63.563,45.374 66.047,45.374 C68.623,45.374 70.837,44.301 72.689,42.154 C74.539,40.008 75.465,36.741 75.465,32.354 L75.465,14.364 L81.791,14.364 L81.791,49.224 L76.028,49.224 L75.676,43.554 ZM42.572,119.224 L39.831,90.594 L31.467,115.794 L23.666,115.794 L15.231,90.314 L12.420,119.224 L0.261,119.224 L5.532,72.324 L17.832,72.324 L27.672,101.794 L37.582,72.324 L49.882,72.324 L55.153,119.224 L42.572,119.224 ZM10.241,12.404 L10.241,49.224 L3.845,49.224 L3.845,2.324 L10.241,2.324 L34.841,39.004 L34.841,2.324 L41.237,2.324 L41.237,49.224 L34.911,49.224 L10.241,12.404 ZM283.787,119.224 L271.839,119.224 L271.839,70.224 L283.787,70.224 L283.787,119.224 Z"/>
</svg>