<svg xmlns="http://www.w3.org/2000/svg" width="504" height="173" viewBox="0 0 370.29 126.27"><defs><clipPath id="clip-path"><path fill="none" d="M0 0h370.29v126.27H0z"/></clipPath><style>.cls-3{fill:#1d1d1b}.cls-4{fill:#fff}.cls-5{fill:#fcbc00}</style></defs><g id="Ebene_2" data-name="Ebene 2"><g clip-path="url(#clip-path)" id="Ebene_1-2" data-name="Ebene 1"><path class="cls-3" d="M320.15 88.3l-5.15-.37 4 3.22s3.26 2.71 2.8 5.45c-.94 5.48-5.72 10.77-13.47 14.89-7.17 3.81-15 5.69-19.64 5.85-6.42.25-11.64-1.07-14.27-3.6a6.13 6.13 0 01-1.94-4.56c0-2.8 4.84-8.91 13-16.34l3.16-2.9-4.29.11a27.75 27.75 0 01-6.72-.73l-.34-.08-1.21-.31-.64.61c-1 .93-1.73 1.72-2 2-1.22 1-12.95 10.83-13.15 20a11.65 11.65 0 003.37 8.77c3.92 4 11.21 6 21.68 6h1.1c21.89-.31 41.15-17.31 41.66-27.84.36-7.57-5-10-8-10.17M160.41 88a6.41 6.41 0 00-5-1.69l-3 .7 2.25 2c2.34 2.13 3.41 3.67 3.17 6.68-.68 8.62-16.64 20.45-30.88 20.45h-.61c-7.78-.18-13.28-1.84-15.89-4.78a7.16 7.16 0 01-1.72-5.71c.76-7.31 14.64-16.65 19.93-19.65l5.06-2.86-18.32-.45-.4.31c-1.24.92-2.51 1.83-3.78 2.73l-5.4 3.88h4.85c-5.15 4.17-13.45 12-13.45 19.35 0 6.3 3.64 17 28.06 17.37h.68c22.54 0 37.37-19.77 37.9-28.62.31-5.33-1.68-8.18-3.4-9.63M340.91 37.44c-1.41 0-23-1-28.43-1-8 0-18.63-2.3-23.65-8.09a45.7 45.7 0 01-4.68-7.3c-3.41-6-7.27-12.89-14.77-16.47-9.71-4.64-43.66-5.76-69.85-3.23C166.26 4.53 120 14.67 120 14.67l-1.78 2s46.48-8.27 80.12-10.3c35.36-2.13 60.25 2.86 67.41 6.74 4.07 2.2 8.23 9.46 11.57 15.29 1.92 3.35 3.57 6.25 5 7.73 4.12 4.41 16.64 8.89 27.36 9.79 9.32.79 21.15 1.07 24.18 1.13.63.74 1.87 2.18 3.54 4.08l.44.5h.67a6.3 6.3 0 011.14.15 24.41 24.41 0 005.11.71l.71-.06 1.53-1.22-.41-1.11a1.85 1.85 0 010-1.19l.21-.75-.46-.63c-3.44-4.74-4.06-10.09-5.46-10.09M137.47 57.06H0l1.74 2.11 114.76 7.61M150.59 69.44H11.84l1.76 2.59 115.83 9.48"/><path class="cls-3" d="M362.5 71.89a19.93 19.93 0 002.1-1.89 20.15 20.15 0 005.69-14.23 18.24 18.24 0 00-6.49-14.35c-4-3.36-9.39-5-16.59-5H74.65a8.41 8.41 0 00-8 5.72L52.57 84a8.41 8.41 0 008 11.1h297.31a8.4 8.4 0 008.37-9.25 41.53 41.53 0 00-3.75-13.92"/><path class="cls-4" d="M138.81 86.65l8.86-41.82H161q9.61 0 14.48 4.53t4.87 12.82a24.78 24.78 0 01-1.81 9.49 22.13 22.13 0 01-5.37 7.8 24.93 24.93 0 01-8.8 5.28 35.55 35.55 0 01-12.17 1.9zm19.66-34.08h-2.06l-5.49 26.28h2.5a15.9 15.9 0 008.52-2.15 14 14 0 005.24-5.78 18.24 18.24 0 001.82-8.18q0-5.3-2.56-7.73t-7.93-2.44M177.38 86.65l8.93-41.82h15.1q7.62 0 11.14 3a9.86 9.86 0 013.53 7.92 11.65 11.65 0 01-3.34 8.4q-3.33 3.46-10.08 4.34a14.93 14.93 0 016.46 7.05 33.19 33.19 0 013 11.11h-11.46a30.93 30.93 0 00-2.8-11.33c-1.5-3-3.54-4.63-6.12-5l-3.5 16.29zM198.92 52h-3.31l-2.5 11.61h3.62c2.71 0 4.77-.63 6.18-1.87A6 6 0 00205 57a4.57 4.57 0 00-1.52-3.68 6.94 6.94 0 00-4.56-1.32M212.9 86.65l8.86-41.82h27.34l-1.69 7.68H231l-1.94 9.24h14.73l-1.56 7.36H227.5l-2.12 9.86h16.79l-1.69 7.68H212.9zM243.17 86.65l8.86-41.82h10.86l-8.86 41.82h-10.86z"/><path class="cls-5" d="M60.55 86.65l14.1-41.82h10.93l2.05 26.59 14.61-26.59h10.61l-5.24 41.82H96.68l3.56-24.84-12.11 21.78h-6.68l-1.87-23.03-8.49 26.09H60.55zM141.5 66.49h-9.86a12.12 12.12 0 00-.82-3.87 2.57 2.57 0 00-2.62-1.68 4.09 4.09 0 00-2.93 1.27 11.23 11.23 0 00-2.27 3.34 21.16 21.16 0 00-1.43 4.5 23 23 0 00-.5 4.74 10.75 10.75 0 00.78 4.37 2.89 2.89 0 002.9 1.75 4.12 4.12 0 003.09-1.44 10 10 0 002.16-4.55h10a16.61 16.61 0 01-5.62 9.23A16 16 0 01124 87.46c-4.29 0-7.62-1.17-10-3.53s-3.58-5.71-3.58-10.08a21.42 21.42 0 011.21-7.14 19.73 19.73 0 013.56-6.24 17.25 17.25 0 015.74-4.47 17.46 17.46 0 017.77-1.66 13.67 13.67 0 017.21 1.69A10.5 10.5 0 01140 60.5a15 15 0 011.47 6M267.38 86.65l-4.12-41.82h10.86l1.5 29.84 15.17-29.84h10.61l-23.53 41.82h-10.49zM292.91 86.65l8.86-41.82h27.34l-1.68 7.68h-16.42l-1.93 9.24h14.72l-1.56 7.36h-14.73l-2.12 9.86h16.79l-1.68 7.68h-27.59zM323.18 86.65l8.93-41.82h15.1q7.62 0 11.14 3a9.89 9.89 0 013.53 7.92 11.69 11.69 0 01-3.34 8.4q-3.35 3.46-10.08 4.34a15 15 0 016.46 7.05 33 33 0 013 11.11h-11.46a30.92 30.92 0 00-2.81-11.33c-1.5-3-3.54-4.63-6.11-5L334 86.65zM344.71 52h-3.31l-2.49 11.61h3.62a9.13 9.13 0 006.18-1.87 6.07 6.07 0 002.12-4.74 4.58 4.58 0 00-1.53-3.68 6.92 6.92 0 00-4.59-1.32"/></g></g></svg>
