<svg id="Störer" xmlns="http://www.w3.org/2000/svg" width="331.62" height="198"><defs><style>.cls-1{fill:#ffbc0d}</style></defs><path class="cls-1" d="M28.31 0h275v58h-275z"/><path id="Rectangle_1_copy" data-name="Rectangle 1 copy" d="M134.69 354.89l331.62 1.31v58l-331.62-1.31v-58z" transform="translate(-134.69 -285)" fill-rule="evenodd" fill="#ffbc0d"/><path id="Rectangle_1_copy_2" data-name="Rectangle 1 copy 2" class="cls-1" d="M38.56 140h254.5v58H38.56z"/><path id="Exklusiv_für_myMcDonald_s_Mitglieder_" data-name="Exklusiv für myMcDonald’s Mitglieder!" d="M201.46 328.59v-5.89h-12.6v-6.48h11.02v-5.63h-11.03v-6.25h12.42v-5.9h-20.43v30.15h20.61zm9.8 0l4.37-6.66 3.87 6.66h8.33l-8.24-11.65 7.97-11.03h-7.7l-3.96 6.17-3.56-6.17h-8.32l7.88 11.07-8.33 11.61h7.7zm26.91 0v-9.9a15.63 15.63 0 012.43 2.1 24.78 24.78 0 012.03 2.44 17.35 17.35 0 012.47 5.36h8.28a34.35 34.35 0 00-2.18-4.59 24 24 0 00-2.63-3.73 22.92 22.92 0 00-4.5-4l8.5-10.35h-8.1l-6.3 9.04v-17.87h-7.65v31.5h7.65zm25.65 0v-31.5h-7.65v31.5h7.65zm18.95-22.68v12.82a5.83 5.83 0 01-1 3.76 2.92 2.92 0 01-2.3 1.2 2.34 2.34 0 01-2.08-1.06 5.12 5.12 0 01-.7-2.86v-13.86h-7.65v15.03a8.64 8.64 0 002 6 6.82 6.82 0 005.33 2.24 7.62 7.62 0 004.34-1.2 6.96 6.96 0 002.59-3.08l.27 3.69h6.84v-22.68h-7.65zm29.88 21.35a6.25 6.25 0 002.7-5.42 5.55 5.55 0 00-1.62-4.2 12.49 12.49 0 00-5.5-2.55l-3.23-.81a3.91 3.91 0 01-1.98-.97 2.07 2.07 0 01-.54-1.42 1.96 1.96 0 01.63-1.46 2.49 2.49 0 011.8-.6 2.44 2.44 0 011.93.76 3.85 3.85 0 01.86 2.07h7.38a8.4 8.4 0 00-3.1-5.45 10.8 10.8 0 00-6.7-1.89 15.91 15.91 0 00-5.18.8 8.17 8.17 0 00-3.65 2.35 5.87 5.87 0 00-1.35 3.96 5.76 5.76 0 001.64 4.37 10.19 10.19 0 004.57 2.34l3.78.99a4.75 4.75 0 012.27 1.12 2.12 2.12 0 01.61 1.44 1.73 1.73 0 01-.72 1.42 3.22 3.22 0 01-2.02.56 3.6 3.6 0 01-2.12-.7 3.44 3.44 0 01-1.21-2.54h-7.43a7.8 7.8 0 003.13 5.74q2.72 2 7.54 2t7.5-1.9zm13.79-25.1a4.02 4.02 0 000-5.81 4.47 4.47 0 00-6.08 0 4.02 4.02 0 000 5.8 4.46 4.46 0 006.08 0zm.79 26.43v-22.68h-7.65v22.68h7.65zm18.8 0l8.02-22.68h-7.43l-4.27 15.48-4.37-15.48h-7.92l8.01 22.68h7.97zm17.6-17.73h3.2v17.73h7.65v-17.73h4.86v-4.95h-4.86v-.85q0-3.38 2.66-3.38a6.25 6.25 0 012.56.58l1.08-4.5a10.96 10.96 0 00-2.56-.94 11.66 11.66 0 00-2.66-.32q-4.45 0-6.57 2.57a10.59 10.59 0 00-2.16 6.84h-3.2v4.95zm32.72-4.95v12.82a5.83 5.83 0 01-.99 3.76 2.92 2.92 0 01-2.3 1.2 2.34 2.34 0 01-2.1-1.06 5.12 5.12 0 01-.7-2.86v-13.86h-7.64v15.03a8.64 8.64 0 002 6 6.82 6.82 0 005.33 2.24 7.62 7.62 0 004.34-1.2 6.96 6.96 0 002.6-3.08l.26 3.69H404v-22.68h-7.65zm3.96-3.6a3.41 3.41 0 001.08-2.57 3.3 3.3 0 00-1.08-2.47 3.61 3.61 0 00-5.06 0 3.34 3.34 0 00-1.06 2.47 3.44 3.44 0 001.06 2.57 3.61 3.61 0 005.06 0zm-9 0a3.41 3.41 0 001.08-2.57 3.3 3.3 0 00-1.08-2.47 3.61 3.61 0 00-5.06 0 3.34 3.34 0 00-1.06 2.47 3.44 3.44 0 001.06 2.57 3.61 3.61 0 005.06 0zm25.88 26.28v-10.84a5.2 5.2 0 011.35-3.94 4.77 4.77 0 013.42-1.28 8.35 8.35 0 011.03.06 4.51 4.51 0 01.81.16v-7.06l-.58-.1a5.52 5.52 0 00-.77-.04 5.36 5.36 0 00-3.82 1.35 7.61 7.61 0 00-2.03 2.97l-.36-3.96h-6.7v22.68h7.65zm-268.09 69h7.65v-12.82a5.84 5.84 0 011-3.76 2.92 2.92 0 012.3-1.2 2.34 2.34 0 012.08 1.06 5.13 5.13 0 01.7 2.86v13.86h7.65v-12.82a5.84 5.84 0 011-3.76 2.92 2.92 0 012.3-1.2 2.34 2.34 0 012.09 1.06 5.13 5.13 0 01.7 2.86v13.86h7.65v-15.03a8.6 8.6 0 00-2.03-6 7.1 7.1 0 00-5.53-2.23 8.19 8.19 0 00-4.4 1.1 6.48 6.48 0 00-2.58 2.94 6.94 6.94 0 00-2.63-2.97 8.49 8.49 0 00-8.33.03 6.55 6.55 0 00-2.54 2.94l-.22-3.46h-6.86v22.68zm39.56 9.74a13.17 13.17 0 002.88.3 7.45 7.45 0 005.22-1.99 16.25 16.25 0 003.78-6.12l9.63-24.61h-7.43l-4.18 14.31-4.32-14.31h-7.92l8.77 22.32-.85 1.98a6.64 6.64 0 01-1.7 2.56 3.02 3.02 0 01-1.86.63 7.08 7.08 0 01-2.74-.58l-1.58 4.68a8.76 8.76 0 002.3.83zm31-9.74l1.8-18.59 5.4 16.38h5l5.36-16.2 1.75 18.4h8.06l-3.38-30.15h-7.87l-6.35 18.95-6.3-18.95h-7.87l-3.38 30.15h7.79zm46.46-.36a9.52 9.52 0 003.8-2.95 10.94 10.94 0 002.07-5.15h-7.51a6.52 6.52 0 01-1.15 3.2 2.5 2.5 0 01-1.96.9 3.06 3.06 0 01-2.52-1.6q-1.08-1.6-1.08-5.38 0-3.83 1.08-5.4a3.06 3.06 0 012.52-1.58 2.37 2.37 0 011.85.88 6.1 6.1 0 011.12 2.9h7.56a9.67 9.67 0 00-1.86-4.86 9.37 9.37 0 00-3.78-2.9 12.35 12.35 0 00-4.89-.97 12.05 12.05 0 00-5.85 1.42 10.44 10.44 0 00-4.14 4.1 12.71 12.71 0 00-1.53 6.4 13 13 0 001.53 6.55 9.98 9.98 0 004.14 4.03 12.54 12.54 0 005.85 1.35 12.03 12.03 0 004.75-.94zm20.82.36a18.93 18.93 0 009.04-1.98 13.35 13.35 0 005.58-5.47 16.68 16.68 0 001.9-8.08 14.65 14.65 0 00-1.9-7.4 13.55 13.55 0 00-5.58-5.26 19.11 19.11 0 00-9.04-1.96h-10.58v30.15h10.57zm6.16-22.09q1.98 2.48 1.98 7.02 0 4.5-1.98 6.97t-6.17 2.48h-3.01v-18.95h3.02q4.18 0 6.16 2.48zm31.25 21.1a10.71 10.71 0 004.05-4.25 13.83 13.83 0 000-12.2 10.72 10.72 0 00-4.05-4.25 13.3 13.3 0 00-12.56 0 10.72 10.72 0 00-4.05 4.25 13.82 13.82 0 000 12.2 10.71 10.71 0 004.05 4.25 13.3 13.3 0 0012.56 0zm-9.1-5.24a13.38 13.38 0 010-10.22 3.05 3.05 0 015.63 0 13.4 13.4 0 010 10.22 3.05 3.05 0 01-5.62 0zm26.18 6.23v-12.82a5.49 5.49 0 011.08-3.76 3.26 3.26 0 012.47-1.2 2.65 2.65 0 012.3 1.06 4.8 4.8 0 01.77 2.86v13.86h7.65v-15.03a8.42 8.42 0 00-2.1-6 7.49 7.49 0 00-5.73-2.23 8.24 8.24 0 00-4.35 1.1 6.67 6.67 0 00-2.67 2.94l-.23-3.46h-6.84v22.68h7.65zm29.04-.36a7.99 7.99 0 003.13-2.61l.18 2.97h6.84V384.5q0-5.08-2.45-7.63t-7.58-2.54a11.85 11.85 0 00-7.16 2 8.27 8.27 0 00-3.33 5.6h7.2a3.56 3.56 0 011.04-2.14 2.83 2.83 0 011.98-.74 2.45 2.45 0 012.13 1.06 5.16 5.16 0 01.75 2.99v.5a35.48 35.48 0 00-4.75.43 18.83 18.83 0 00-4.55 1.28 8.68 8.68 0 00-3.37 2.48 6.14 6.14 0 00-1.28 4 5.8 5.8 0 002 4.73 7.8 7.8 0 005.15 1.66 9.26 9.26 0 004.07-.95zm-2.88-4.43a2.62 2.62 0 01-.7-2 3.3 3.3 0 011.47-2.73 8.59 8.59 0 014.83-1.19v1.76a5.2 5.2 0 01-1.1 3.57 3.45 3.45 0 01-2.67 1.24 2.56 2.56 0 01-1.83-.65zm25.81 4.79v-31.5h-7.65v31.5h7.65zm8.4-21.76a9.88 9.88 0 00-3.27 4.21 15.48 15.48 0 00-1.17 6.21 16.07 16.07 0 001.1 6.12 9.88 9.88 0 003.15 4.25 7.7 7.7 0 004.8 1.56 7.12 7.12 0 006.83-4.28l.27 3.69h6.84v-31.5h-7.65v11.52a6.52 6.52 0 00-2.6-2.45 7.4 7.4 0 00-3.43-.83 8.14 8.14 0 00-4.88 1.5zm9.94 5.45a8.4 8.4 0 011.05 4.57v.8a8.5 8.5 0 01-1.05 4.62 3.15 3.15 0 01-2.73 1.64 3 3 0 01-2.79-1.89 10.63 10.63 0 01-.94-4.77 10.5 10.5 0 01.94-4.75 3 3 0 012.8-1.86 3.15 3.15 0 012.72 1.64zm19.53-5.4a7.5 7.5 0 002.04-5.24 5.53 5.53 0 00-1.1-3.74 3.67 3.67 0 00-2.9-1.26 3.92 3.92 0 00-2.79 1.01 3.67 3.67 0 00-1.08 2.82 3.46 3.46 0 00.93 2.5 3.43 3.43 0 002.36 1.05 4.01 4.01 0 01-3.2 2.39v3.06a8.6 8.6 0 005.74-2.6zm20 20.38a6.25 6.25 0 002.7-5.42 5.55 5.55 0 00-1.62-4.2 12.48 12.48 0 00-5.5-2.55l-3.23-.81a3.91 3.91 0 01-1.98-.97 2.07 2.07 0 01-.54-1.42 1.96 1.96 0 01.63-1.46 2.49 2.49 0 011.8-.6 2.44 2.44 0 011.93.76 3.85 3.85 0 01.86 2.07h7.38a8.38 8.38 0 00-3.1-5.45 10.79 10.79 0 00-6.7-1.89 15.92 15.92 0 00-5.18.8 8.17 8.17 0 00-3.65 2.35 5.87 5.87 0 00-1.35 3.96 5.76 5.76 0 001.64 4.37 10.19 10.19 0 004.57 2.34l3.78.99a4.75 4.75 0 012.27 1.12 2.12 2.12 0 01.61 1.44 1.73 1.73 0 01-.72 1.42 3.21 3.21 0 01-2.02.56 3.6 3.6 0 01-2.12-.7 3.45 3.45 0 01-1.21-2.54h-7.43a7.8 7.8 0 003.13 5.74q2.72 2 7.54 2t7.5-1.9zM195.8 466.6l1.8-18.59 5.4 16.38h5l5.35-16.2 1.76 18.4h8.05l-3.37-30.15h-7.88l-6.34 18.95-6.3-18.95h-7.88l-3.38 30.15h7.79zm38.5-26.44a4.02 4.02 0 000-5.8 4.47 4.47 0 00-6.08 0 4.02 4.02 0 000 5.8 4.46 4.46 0 006.07 0zm.78 26.44v-22.68h-7.65v22.68h7.65zm17.53.27a8.85 8.85 0 002.63-.9l-1.17-4.68a6.58 6.58 0 01-1.3.4 6.65 6.65 0 01-1.3.14 2.35 2.35 0 01-1.8-.72 3.13 3.13 0 01-.68-2.2v-10.04h5.36v-4.95H249v-6.39h-7.65v6.39h-2.92v4.95h2.92v10.13a8.65 8.65 0 002 5.87q2 2.32 6.14 2.32a16.24 16.24 0 003.13-.32zM280 464.7v-20.79h-6.84l-.23 3.42a6.49 6.49 0 00-2.7-3.01 7.09 7.09 0 00-3.5-1 8.94 8.94 0 00-5.16 1.49 9.67 9.67 0 00-3.37 4.12 14.53 14.53 0 00-1.2 6.05 15.26 15.26 0 001.13 6.05 9.93 9.93 0 003.17 4.17 7.93 7.93 0 004.88 1.53 7.48 7.48 0 003.56-.83 7.3 7.3 0 002.6-2.32V467q0 5.04-3.86 5.04a3.47 3.47 0 01-2.34-.81 3.97 3.97 0 01-1.26-2.25h-7.2a8.19 8.19 0 003.62 5.74 12.9 12.9 0 007.18 1.91q11.52 0 11.52-11.93zm-14.13-5.06a10.09 10.09 0 01-.94-4.66 9.83 9.83 0 01.94-4.59 3 3 0 012.79-1.8 3.17 3.17 0 012.72 1.58 7.86 7.86 0 011.06 4.4v.82a8.05 8.05 0 01-1.06 4.5 3.17 3.17 0 01-2.72 1.57 3 3 0 01-2.79-1.82zm27.18 6.95v-31.5h-7.65v31.5h7.65zm12.26-26.44a4.02 4.02 0 000-5.8 4.47 4.47 0 00-6.07 0 4.02 4.02 0 000 5.8 4.46 4.46 0 006.07 0zm.79 26.44v-22.68h-7.65v22.68h7.65zm22.34-1.33a9.02 9.02 0 003.8-5.73h-7.29a4.14 4.14 0 01-1.12 2.16 3.15 3.15 0 01-2.25.76 3.28 3.28 0 01-2.64-1.28 8.05 8.05 0 01-1.32-4.35h14.9v-1.48a14.32 14.32 0 00-1.31-6.3 9.77 9.77 0 00-3.8-4.2 11.51 11.51 0 00-6.06-1.52 11.67 11.67 0 00-5.91 1.47 10.14 10.14 0 00-3.96 4.14 13.34 13.34 0 00-1.42 6.32 13.15 13.15 0 001.53 6.68 9.77 9.77 0 004.14 3.94 12.8 12.8 0 005.8 1.3 12.26 12.26 0 006.91-1.9zm-4.56-15.86a7.85 7.85 0 011.08 3.78h-7.34a7.04 7.04 0 011.2-3.8 3.08 3.08 0 012.54-1.33 2.86 2.86 0 012.51 1.35zm15.5-4.57a9.88 9.88 0 00-3.27 4.21 15.48 15.48 0 00-1.17 6.21 16.07 16.07 0 001.1 6.12 9.88 9.88 0 003.15 4.25 7.7 7.7 0 004.8 1.56 7.12 7.12 0 006.84-4.28l.27 3.69h6.84v-31.5h-7.65v11.52a6.52 6.52 0 00-2.61-2.45 7.4 7.4 0 00-3.42-.83 8.14 8.14 0 00-4.88 1.5zm9.94 5.45a8.4 8.4 0 011.06 4.57v.8a8.5 8.5 0 01-1.06 4.62 3.15 3.15 0 01-2.72 1.64 3 3 0 01-2.8-1.89 10.63 10.63 0 01-.94-4.77 10.5 10.5 0 01.95-4.75 3 3 0 012.79-1.86 3.15 3.15 0 012.72 1.64zm30.96 14.98a9.02 9.02 0 003.8-5.73h-7.28a4.14 4.14 0 01-1.13 2.16 3.15 3.15 0 01-2.25.76 3.28 3.28 0 01-2.63-1.28 8.05 8.05 0 01-1.32-4.35h14.9v-1.48a14.34 14.34 0 00-1.31-6.3 9.77 9.77 0 00-3.8-4.2 11.51 11.51 0 00-6.05-1.52 11.67 11.67 0 00-5.92 1.47 10.14 10.14 0 00-3.96 4.14 13.34 13.34 0 00-1.42 6.32 13.14 13.14 0 001.53 6.68 9.77 9.77 0 004.14 3.94 12.8 12.8 0 005.8 1.3 12.26 12.26 0 006.9-1.9zm-4.56-15.86a7.87 7.87 0 011.07 3.78h-7.33a7.04 7.04 0 011.2-3.8 3.08 3.08 0 012.53-1.33 2.86 2.86 0 012.52 1.35zm20.15 17.19v-10.84a5.2 5.2 0 011.35-3.94 4.77 4.77 0 013.42-1.28 8.35 8.35 0 011.04.06 4.51 4.51 0 01.8.16v-7.06l-.58-.1a5.52 5.52 0 00-.76-.04 5.37 5.37 0 00-3.83 1.35 7.62 7.62 0 00-2.02 2.97l-.36-3.96h-6.7v22.68h7.65zm10.76-9.54h5.3l1.36-20.61h-8.06zm-.27 3.01a3.88 3.88 0 00-1.17 2.93 3.93 3.93 0 001.17 2.86 3.88 3.88 0 002.88 1.19 3.97 3.97 0 002.88-1.2 4.1 4.1 0 00.04-5.77 4.05 4.05 0 00-2.92-1.13 4 4 0 00-2.88 1.13z" transform="translate(-134.69 -285)" fill="#010101" fill-rule="evenodd"/></svg>
