<svg xmlns="http://www.w3.org/2000/svg" width="514.438" height="165.374" viewBox="0 0 514.438 165.374">
  <defs>
    <style>
      .cls-1 {
        fill-rule: evenodd;
      }
    </style>
  </defs>
  <path id="Gleich_McDonald_s_App_downloaden_und_anmelden_" data-name="Gleich McDonald’s  App downloaden und anmelden!" class="cls-1" d="M41.622,683.9a17.475,17.475,0,0,0,6.78,7.41,20.471,20.471,0,0,0,10.74,2.67,20.426,20.426,0,0,0,8.37-1.59,16.175,16.175,0,0,0,5.88-4.32,18.331,18.331,0,0,0,3.45-6.24,23.852,23.852,0,0,0,1.14-7.41V671.9H60.1v7.5h7.38a8.716,8.716,0,0,1-2.85,5.31,8.213,8.213,0,0,1-5.31,1.71,7.489,7.489,0,0,1-6.78-3.63q-2.281-3.63-2.28-9.87t2.28-9.87a7.491,7.491,0,0,1,6.78-3.63q5.22,0,6.84,6.6h11.22a18.255,18.255,0,0,0-6.15-10.44q-4.59-3.72-11.73-3.72a21.1,21.1,0,0,0-11.04,2.7,17.568,17.568,0,0,0-6.84,7.44A26.791,26.791,0,0,0,41.622,683.9ZM94,693.022v-42H83.8v42H94Zm29.789-1.77a12.029,12.029,0,0,0,5.07-7.65h-9.72a5.514,5.514,0,0,1-1.5,2.88,4.191,4.191,0,0,1-3,1.02,4.373,4.373,0,0,1-3.51-1.71q-1.41-1.71-1.77-5.79h19.86v-1.98a19.1,19.1,0,0,0-1.74-8.4,13.016,13.016,0,0,0-5.07-5.61,15.339,15.339,0,0,0-8.07-2.01,15.554,15.554,0,0,0-7.89,1.95,13.519,13.519,0,0,0-5.28,5.52,17.778,17.778,0,0,0-1.89,8.43,17.535,17.535,0,0,0,2.04,8.91,13.038,13.038,0,0,0,5.52,5.25,17.063,17.063,0,0,0,7.74,1.74A16.349,16.349,0,0,0,123.791,691.252ZM117.7,670.1a10.467,10.467,0,0,1,1.44,5.04h-9.78a9.4,9.4,0,0,1,1.59-5.07,4.108,4.108,0,0,1,3.39-1.77A3.816,3.816,0,0,1,117.7,670.1Zm25.83-12.33a5.363,5.363,0,0,0,0-7.74,5.953,5.953,0,0,0-8.1,0,5.363,5.363,0,0,0,0,7.74A5.953,5.953,0,0,0,143.531,657.772Zm1.05,35.25v-30.24h-10.2v30.24h10.2Zm26.969-.48a12.693,12.693,0,0,0,5.07-3.93,14.56,14.56,0,0,0,2.76-6.87H169.36a8.686,8.686,0,0,1-1.53,4.26,3.325,3.325,0,0,1-2.61,1.2,4.077,4.077,0,0,1-3.36-2.13q-1.44-2.128-1.44-7.17,0-5.1,1.44-7.2a4.085,4.085,0,0,1,3.36-2.1,3.153,3.153,0,0,1,2.46,1.17,8.112,8.112,0,0,1,1.5,3.87h10.08a12.879,12.879,0,0,0-2.49-6.48,12.5,12.5,0,0,0-5.04-3.87,16.444,16.444,0,0,0-6.51-1.29,16.075,16.075,0,0,0-7.8,1.89,13.938,13.938,0,0,0-5.52,5.46,16.96,16.96,0,0,0-2.04,8.55,17.341,17.341,0,0,0,2.04,8.73,13.329,13.329,0,0,0,5.52,5.37,16.724,16.724,0,0,0,7.8,1.8A16.039,16.039,0,0,0,171.55,692.542Zm23.01,0.48v-17.1q0-3.42,1.44-5.01a4.353,4.353,0,0,1,3.3-1.59,3.533,3.533,0,0,1,3.06,1.41,6.377,6.377,0,0,1,1.02,3.81v18.48h10.2v-20.04a11.226,11.226,0,0,0-2.79-8.01,11.144,11.144,0,0,0-12.78-1.68,9.388,9.388,0,0,0-3.45,3.51v-15.78h-10.2v42h10.2Zm46.74,0,2.4-24.78,7.2,21.84h6.66l7.14-21.6,2.34,24.54h10.74l-4.5-40.2h-10.5l-8.46,25.26-8.4-25.26h-10.5l-4.5,40.2H241.3Zm61.95-.48a12.7,12.7,0,0,0,5.07-3.93,14.57,14.57,0,0,0,2.76-6.87H301.06a8.706,8.706,0,0,1-1.53,4.26,3.325,3.325,0,0,1-2.61,1.2,4.076,4.076,0,0,1-3.36-2.13q-1.44-2.128-1.44-7.17,0-5.1,1.44-7.2a4.083,4.083,0,0,1,3.36-2.1,3.154,3.154,0,0,1,2.46,1.17,8.122,8.122,0,0,1,1.5,3.87h10.08a12.888,12.888,0,0,0-2.49-6.48,12.514,12.514,0,0,0-5.04-3.87,16.447,16.447,0,0,0-6.51-1.29,16.072,16.072,0,0,0-7.8,1.89,13.931,13.931,0,0,0-5.52,5.46,16.96,16.96,0,0,0-2.04,8.55,17.341,17.341,0,0,0,2.04,8.73,13.323,13.323,0,0,0,5.52,5.37,16.721,16.721,0,0,0,7.8,1.8A16.039,16.039,0,0,0,303.25,692.542Zm27.75,0.48a25.224,25.224,0,0,0,12.06-2.64,17.8,17.8,0,0,0,7.44-7.29,22.25,22.25,0,0,0,2.52-10.77,19.539,19.539,0,0,0-2.52-9.87,18.062,18.062,0,0,0-7.44-7.02,25.476,25.476,0,0,0-12.06-2.61H316.9v40.2H331Zm8.22-29.46q2.64,3.3,2.64,9.36,0,6-2.64,9.3t-8.22,3.3h-4.02v-25.26H331Q336.58,660.262,339.22,663.562Zm41.669,28.14a14.291,14.291,0,0,0,5.4-5.67,18.431,18.431,0,0,0,0-16.26,14.3,14.3,0,0,0-5.4-5.67,17.73,17.73,0,0,0-16.74,0,14.3,14.3,0,0,0-5.4,5.67,18.431,18.431,0,0,0,0,16.26,14.291,14.291,0,0,0,5.4,5.67A17.73,17.73,0,0,0,380.889,691.7Zm-12.12-6.99a17.851,17.851,0,0,1,0-13.62,4.069,4.069,0,0,1,7.5,0,17.851,17.851,0,0,1,0,13.62A4.069,4.069,0,0,1,368.769,684.712Zm34.89,8.31v-17.1q0-3.42,1.44-5.01a4.352,4.352,0,0,1,3.3-1.59,3.535,3.535,0,0,1,3.06,1.41,6.384,6.384,0,0,1,1.02,3.81v18.48h10.2v-20.04a11.226,11.226,0,0,0-2.79-8.01,9.988,9.988,0,0,0-7.65-2.97,10.973,10.973,0,0,0-5.79,1.47,8.9,8.9,0,0,0-3.57,3.93l-0.3-4.62h-9.12v30.24h10.2Zm38.73-.48a10.642,10.642,0,0,0,4.17-3.48l0.24,3.96h9.12v-17.46q0-6.78-3.27-10.17T442.539,662a15.805,15.805,0,0,0-9.54,2.67,11.028,11.028,0,0,0-4.44,7.47h9.6a4.748,4.748,0,0,1,1.38-2.85,3.762,3.762,0,0,1,2.64-.99,3.273,3.273,0,0,1,2.85,1.41,6.88,6.88,0,0,1,.99,3.99v0.66a47.225,47.225,0,0,0-6.33.57,25.028,25.028,0,0,0-6.06,1.71,11.582,11.582,0,0,0-4.5,3.3,8.185,8.185,0,0,0-1.71,5.34,7.728,7.728,0,0,0,2.67,6.3,10.383,10.383,0,0,0,6.87,2.22A12.349,12.349,0,0,0,442.389,692.542Zm-3.84-5.91a3.486,3.486,0,0,1-.93-2.67,4.4,4.4,0,0,1,1.95-3.63q1.948-1.47,6.45-1.59v2.34a6.953,6.953,0,0,1-1.47,4.77,4.608,4.608,0,0,1-3.57,1.65A3.41,3.41,0,0,1,438.549,686.632Zm34.409,6.39v-42h-10.2v42h10.2Zm11.189-29.01a13.18,13.18,0,0,0-4.35,5.61,20.657,20.657,0,0,0-1.56,8.28,21.425,21.425,0,0,0,1.47,8.16,13.17,13.17,0,0,0,4.2,5.67,10.279,10.279,0,0,0,6.39,2.07,9.493,9.493,0,0,0,9.12-5.7l0.36,4.92h9.12v-42H498.7v15.36a8.679,8.679,0,0,0-3.48-3.27,9.842,9.842,0,0,0-4.56-1.11A10.844,10.844,0,0,0,484.147,664.012Zm13.26,7.26a11.2,11.2,0,0,1,1.41,6.09v1.08a11.333,11.333,0,0,1-1.41,6.15,4.194,4.194,0,0,1-3.63,2.19,4,4,0,0,1-3.72-2.52,14.179,14.179,0,0,1-1.26-6.36,13.988,13.988,0,0,1,1.26-6.33,4,4,0,0,1,3.72-2.49A4.2,4.2,0,0,1,497.407,671.272Zm26.04-7.2a10,10,0,0,0,2.73-6.99,7.374,7.374,0,0,0-1.47-4.98,4.9,4.9,0,0,0-3.87-1.68,5.219,5.219,0,0,0-3.72,1.35,4.891,4.891,0,0,0-1.44,3.75,4.623,4.623,0,0,0,1.23,3.33,4.571,4.571,0,0,0,3.15,1.41,5.35,5.35,0,0,1-4.26,3.18v4.08A11.473,11.473,0,0,0,523.447,664.072Zm26.67,27.18a8.337,8.337,0,0,0,3.6-7.23,7.4,7.4,0,0,0-2.16-5.61q-2.16-2.07-7.32-3.39l-4.32-1.08a5.215,5.215,0,0,1-2.64-1.29,2.756,2.756,0,0,1-.72-1.89,2.609,2.609,0,0,1,.84-1.95,3.316,3.316,0,0,1,2.4-.81,3.26,3.26,0,0,1,2.58,1.02,5.137,5.137,0,0,1,1.14,2.76h9.84a11.187,11.187,0,0,0-4.14-7.26q-3.3-2.52-8.94-2.52a21.207,21.207,0,0,0-6.9,1.05,10.884,10.884,0,0,0-4.86,3.15,7.829,7.829,0,0,0-1.8,5.28,7.677,7.677,0,0,0,2.19,5.82,13.571,13.571,0,0,0,6.09,3.12l5.04,1.32a6.335,6.335,0,0,1,3.03,1.5,2.831,2.831,0,0,1,.81,1.92,2.307,2.307,0,0,1-.96,1.89,4.291,4.291,0,0,1-2.7.75,4.8,4.8,0,0,1-2.82-.93,4.592,4.592,0,0,1-1.62-3.39h-9.9a10.4,10.4,0,0,0,4.17,7.65q3.629,2.67,10.05,2.67T550.117,691.252Zm-442.345,61.77-14.34-40.2H83.052l-14.4,40.2h10.38l2.34-7.44h13.32l2.34,7.44h10.74Zm-19.74-28.8,4.26,13.74h-8.58Zm33.959,41.4v-16.2a8.673,8.673,0,0,0,3.48,3.27,9.842,9.842,0,0,0,4.56,1.11,10.844,10.844,0,0,0,6.51-2.01,13.174,13.174,0,0,0,4.35-5.61,20.657,20.657,0,0,0,1.56-8.28,21.429,21.429,0,0,0-1.47-8.16,13.275,13.275,0,0,0-4.17-5.67,10.244,10.244,0,0,0-6.42-2.07,9.495,9.495,0,0,0-9.12,5.7l-0.36-4.92h-9.12v42.84h10.2Zm1.26-21.09a11.394,11.394,0,0,1-1.38-6.09v-1.08a11.533,11.533,0,0,1,1.38-6.15,4.172,4.172,0,0,1,3.66-2.19,4,4,0,0,1,3.72,2.52,14.182,14.182,0,0,1,1.26,6.36,13.982,13.982,0,0,1-1.26,6.33,4,4,0,0,1-3.72,2.49A4.17,4.17,0,0,1,123.251,744.532Zm34.68,21.09v-16.2a8.666,8.666,0,0,0,3.48,3.27,9.842,9.842,0,0,0,4.56,1.11,10.844,10.844,0,0,0,6.51-2.01,13.181,13.181,0,0,0,4.35-5.61,20.657,20.657,0,0,0,1.56-8.28,21.429,21.429,0,0,0-1.47-8.16,13.284,13.284,0,0,0-4.17-5.67,10.244,10.244,0,0,0-6.42-2.07,9.495,9.495,0,0,0-9.12,5.7l-0.36-4.92h-9.12v42.84h10.2Zm1.26-21.09a11.384,11.384,0,0,1-1.38-6.09v-1.08a11.524,11.524,0,0,1,1.38-6.15,4.171,4.171,0,0,1,3.66-2.19,4,4,0,0,1,3.72,2.52,14.182,14.182,0,0,1,1.26,6.36,13.982,13.982,0,0,1-1.26,6.33,4,4,0,0,1-3.72,2.49A4.169,4.169,0,0,1,159.191,744.532Zm40.47-20.52a13.18,13.18,0,0,0-4.35,5.61,20.64,20.64,0,0,0-1.56,8.28,21.406,21.406,0,0,0,1.47,8.16,13.163,13.163,0,0,0,4.2,5.67,10.279,10.279,0,0,0,6.39,2.07,9.494,9.494,0,0,0,9.12-5.7l0.36,4.92h9.12v-42h-10.2v15.36a8.679,8.679,0,0,0-3.48-3.27,9.845,9.845,0,0,0-4.56-1.11A10.842,10.842,0,0,0,199.661,724.012Zm13.26,7.26a11.212,11.212,0,0,1,1.41,6.09v1.08a11.342,11.342,0,0,1-1.41,6.15,4.2,4.2,0,0,1-3.63,2.19,4,4,0,0,1-3.72-2.52,14.179,14.179,0,0,1-1.26-6.36,13.988,13.988,0,0,1,1.26-6.33,4,4,0,0,1,3.72-2.49A4.2,4.2,0,0,1,212.921,731.272Zm40.8,20.43a14.291,14.291,0,0,0,5.4-5.67,18.431,18.431,0,0,0,0-16.26,14.3,14.3,0,0,0-5.4-5.67,17.73,17.73,0,0,0-16.74,0,14.3,14.3,0,0,0-5.4,5.67,18.431,18.431,0,0,0,0,16.26,14.291,14.291,0,0,0,5.4,5.67A17.73,17.73,0,0,0,253.721,751.7Zm-12.12-6.99a17.851,17.851,0,0,1,0-13.62,4.069,4.069,0,0,1,7.5,0,17.851,17.851,0,0,1,0,13.62A4.069,4.069,0,0,1,241.6,744.712Zm39.809,8.31,4.68-16.5,4.68,16.5h10.32l8.82-30.24h-9.6l-4.08,20.76-5.34-20.76h-8.76l-5.1,20.7-4.2-20.7H262.27l8.82,30.24h10.32Zm42.48,0v-17.1q0-3.42,1.44-5.01a4.352,4.352,0,0,1,3.3-1.59,3.535,3.535,0,0,1,3.06,1.41,6.384,6.384,0,0,1,1.02,3.81v18.48h10.2v-20.04a11.226,11.226,0,0,0-2.79-8.01,9.988,9.988,0,0,0-7.65-2.97,10.973,10.973,0,0,0-5.79,1.47,8.9,8.9,0,0,0-3.57,3.93l-0.3-4.62h-9.12v30.24h10.2Zm36.06,0v-42h-10.2v42h10.2Zm29.309-1.32a14.291,14.291,0,0,0,5.4-5.67,18.431,18.431,0,0,0,0-16.26,14.3,14.3,0,0,0-5.4-5.67,17.73,17.73,0,0,0-16.74,0,14.3,14.3,0,0,0-5.4,5.67,18.431,18.431,0,0,0,0,16.26,14.291,14.291,0,0,0,5.4,5.67A17.73,17.73,0,0,0,389.259,751.7Zm-12.12-6.99a17.851,17.851,0,0,1,0-13.62,4.069,4.069,0,0,1,7.5,0,17.851,17.851,0,0,1,0,13.62A4.069,4.069,0,0,1,377.139,744.712Zm37.559,7.83a10.635,10.635,0,0,0,4.17-3.48l0.24,3.96h9.12v-17.46q0-6.78-3.27-10.17T414.848,722a15.81,15.81,0,0,0-9.54,2.67,11.035,11.035,0,0,0-4.44,7.47h9.6a4.754,4.754,0,0,1,1.38-2.85,3.764,3.764,0,0,1,2.64-.99,3.272,3.272,0,0,1,2.85,1.41,6.88,6.88,0,0,1,.99,3.99v0.66a47.24,47.24,0,0,0-6.33.57,25.041,25.041,0,0,0-6.06,1.71,11.582,11.582,0,0,0-4.5,3.3,8.185,8.185,0,0,0-1.71,5.34,7.731,7.731,0,0,0,2.67,6.3,10.386,10.386,0,0,0,6.87,2.22A12.345,12.345,0,0,0,414.7,752.542Zm-3.84-5.91a3.49,3.49,0,0,1-.93-2.67,4.4,4.4,0,0,1,1.95-3.63q1.95-1.47,6.45-1.59v2.34a6.948,6.948,0,0,1-1.47,4.77,4.605,4.605,0,0,1-3.57,1.65A3.414,3.414,0,0,1,410.858,746.632Zm28.2-22.62a13.172,13.172,0,0,0-4.35,5.61,20.64,20.64,0,0,0-1.56,8.28,21.406,21.406,0,0,0,1.47,8.16,13.155,13.155,0,0,0,4.2,5.67,10.275,10.275,0,0,0,6.39,2.07,9.494,9.494,0,0,0,9.12-5.7l0.36,4.92h9.12v-42h-10.2v15.36a8.686,8.686,0,0,0-3.48-3.27,9.845,9.845,0,0,0-4.56-1.11A10.842,10.842,0,0,0,439.058,724.012Zm13.26,7.26a11.212,11.212,0,0,1,1.41,6.09v1.08a11.342,11.342,0,0,1-1.41,6.15,4.2,4.2,0,0,1-3.63,2.19,4,4,0,0,1-3.72-2.52,14.179,14.179,0,0,1-1.26-6.36,13.988,13.988,0,0,1,1.26-6.33,4,4,0,0,1,3.72-2.49A4.2,4.2,0,0,1,452.318,731.272Zm41.279,19.98a12.029,12.029,0,0,0,5.07-7.65h-9.72a5.514,5.514,0,0,1-1.5,2.88,4.191,4.191,0,0,1-3,1.02,4.373,4.373,0,0,1-3.51-1.71q-1.41-1.71-1.77-5.79h19.86v-1.98a19.1,19.1,0,0,0-1.74-8.4,13.016,13.016,0,0,0-5.07-5.61,15.339,15.339,0,0,0-8.07-2.01,15.554,15.554,0,0,0-7.89,1.95,13.519,13.519,0,0,0-5.28,5.52,17.775,17.775,0,0,0-1.89,8.43,17.536,17.536,0,0,0,2.04,8.91,13.038,13.038,0,0,0,5.52,5.25,17.063,17.063,0,0,0,7.74,1.74A16.349,16.349,0,0,0,493.6,751.252Zm-6.09-21.15a10.467,10.467,0,0,1,1.44,5.04h-9.78a9.4,9.4,0,0,1,1.59-5.07,4.108,4.108,0,0,1,3.39-1.77A3.816,3.816,0,0,1,487.507,730.1Zm26.88,22.92v-17.1q0-3.42,1.44-5.01a4.353,4.353,0,0,1,3.3-1.59,3.535,3.535,0,0,1,3.06,1.41,6.377,6.377,0,0,1,1.02,3.81v18.48h10.2v-20.04a11.226,11.226,0,0,0-2.79-8.01,9.988,9.988,0,0,0-7.65-2.97,10.973,10.973,0,0,0-5.79,1.47,8.9,8.9,0,0,0-3.57,3.93l-0.3-4.62h-9.12v30.24h10.2Zm-397.616,29.76v17.1q0,3.42-1.32,5.01a3.9,3.9,0,0,1-3.06,1.59,3.119,3.119,0,0,1-2.79-1.41,6.839,6.839,0,0,1-.93-3.81v-18.48h-10.2v20.04a11.536,11.536,0,0,0,2.669,8.01,9.093,9.093,0,0,0,7.11,2.97,10.155,10.155,0,0,0,5.79-1.59,9.27,9.27,0,0,0,3.45-4.11l0.36,4.92h9.12v-30.24h-10.2Zm27.6,30.24v-17.1q0-3.42,1.44-5.01a4.352,4.352,0,0,1,3.3-1.59,3.535,3.535,0,0,1,3.06,1.41,6.384,6.384,0,0,1,1.02,3.81v18.48h10.2v-20.04a11.226,11.226,0,0,0-2.79-8.01,9.988,9.988,0,0,0-7.65-2.97,10.973,10.973,0,0,0-5.79,1.47,8.9,8.9,0,0,0-3.57,3.93l-0.3-4.62h-9.12v30.24h10.2Zm29.85-29.01a13.172,13.172,0,0,0-4.35,5.61,20.64,20.64,0,0,0-1.56,8.28,21.406,21.406,0,0,0,1.47,8.16,13.155,13.155,0,0,0,4.2,5.67,10.275,10.275,0,0,0,6.39,2.07,9.494,9.494,0,0,0,9.12-5.7l0.36,4.92h9.12v-42h-10.2v15.36a8.686,8.686,0,0,0-3.48-3.27,9.845,9.845,0,0,0-4.56-1.11A10.842,10.842,0,0,0,174.221,784.012Zm13.26,7.26a11.212,11.212,0,0,1,1.41,6.09v1.08a11.342,11.342,0,0,1-1.41,6.15,4.2,4.2,0,0,1-3.63,2.19,4,4,0,0,1-3.72-2.52,14.179,14.179,0,0,1-1.26-6.36,13.988,13.988,0,0,1,1.26-6.33,4,4,0,0,1,3.72-2.49A4.2,4.2,0,0,1,187.481,791.272Zm43.559,21.27a10.635,10.635,0,0,0,4.17-3.48l0.24,3.96h9.12v-17.46q0-6.78-3.27-10.17T231.19,782a15.81,15.81,0,0,0-9.54,2.67,11.035,11.035,0,0,0-4.44,7.47h9.6a4.754,4.754,0,0,1,1.38-2.85,3.764,3.764,0,0,1,2.64-.99,3.272,3.272,0,0,1,2.85,1.41,6.88,6.88,0,0,1,.99,3.99v0.66a47.24,47.24,0,0,0-6.33.57,25.041,25.041,0,0,0-6.06,1.71,11.582,11.582,0,0,0-4.5,3.3,8.185,8.185,0,0,0-1.71,5.34,7.731,7.731,0,0,0,2.67,6.3,10.386,10.386,0,0,0,6.87,2.22A12.345,12.345,0,0,0,231.04,812.542Zm-3.84-5.91a3.49,3.49,0,0,1-.93-2.67,4.4,4.4,0,0,1,1.95-3.63q1.95-1.47,6.45-1.59v2.34a6.948,6.948,0,0,1-1.47,4.77,4.605,4.605,0,0,1-3.57,1.65A3.414,3.414,0,0,1,227.2,806.632Zm34.41,6.39v-17.1q0-3.42,1.44-5.01a4.352,4.352,0,0,1,3.3-1.59,3.535,3.535,0,0,1,3.06,1.41,6.384,6.384,0,0,1,1.02,3.81v18.48h10.2v-20.04a11.226,11.226,0,0,0-2.79-8.01,9.988,9.988,0,0,0-7.65-2.97,10.973,10.973,0,0,0-5.79,1.47,8.9,8.9,0,0,0-3.57,3.93l-0.3-4.62h-9.12v30.24h10.2Zm25.859,0h10.2v-17.1q0-3.42,1.32-5.01a3.9,3.9,0,0,1,3.06-1.59,3.121,3.121,0,0,1,2.79,1.41,6.843,6.843,0,0,1,.93,3.81v18.48h10.2v-17.1q0-3.42,1.32-5.01a3.9,3.9,0,0,1,3.06-1.59,3.121,3.121,0,0,1,2.79,1.41,6.843,6.843,0,0,1,.93,3.81v18.48h10.2v-20.04a11.454,11.454,0,0,0-2.7-8.01,9.475,9.475,0,0,0-7.38-2.97,10.9,10.9,0,0,0-5.85,1.47,8.634,8.634,0,0,0-3.45,3.93,9.243,9.243,0,0,0-3.51-3.96,11.313,11.313,0,0,0-11.1.03,8.737,8.737,0,0,0-3.39,3.93l-0.3-4.62h-9.12v30.24Zm76.23-1.77a12.029,12.029,0,0,0,5.07-7.65h-9.72a5.514,5.514,0,0,1-1.5,2.88,4.191,4.191,0,0,1-3,1.02,4.373,4.373,0,0,1-3.51-1.71q-1.41-1.71-1.77-5.79h19.86v-1.98a19.1,19.1,0,0,0-1.74-8.4,13.016,13.016,0,0,0-5.07-5.61,15.339,15.339,0,0,0-8.07-2.01,15.554,15.554,0,0,0-7.89,1.95,13.519,13.519,0,0,0-5.28,5.52,17.775,17.775,0,0,0-1.89,8.43,17.536,17.536,0,0,0,2.04,8.91,13.038,13.038,0,0,0,5.52,5.25,17.063,17.063,0,0,0,7.74,1.74A16.349,16.349,0,0,0,363.7,811.252Zm-6.09-21.15a10.467,10.467,0,0,1,1.44,5.04h-9.78a9.4,9.4,0,0,1,1.59-5.07,4.108,4.108,0,0,1,3.39-1.77A3.816,3.816,0,0,1,357.609,790.1Zm26.88,22.92v-42h-10.2v42h10.2Zm11.189-29.01a13.18,13.18,0,0,0-4.35,5.61,20.657,20.657,0,0,0-1.56,8.28,21.425,21.425,0,0,0,1.47,8.16,13.17,13.17,0,0,0,4.2,5.67,10.279,10.279,0,0,0,6.39,2.07,9.493,9.493,0,0,0,9.12-5.7l0.36,4.92h9.12v-42h-10.2v15.36a8.679,8.679,0,0,0-3.48-3.27,9.842,9.842,0,0,0-4.56-1.11A10.844,10.844,0,0,0,395.678,784.012Zm13.26,7.26a11.2,11.2,0,0,1,1.41,6.09v1.08a11.333,11.333,0,0,1-1.41,6.15,4.194,4.194,0,0,1-3.63,2.19,4,4,0,0,1-3.72-2.52,14.179,14.179,0,0,1-1.26-6.36,13.988,13.988,0,0,1,1.26-6.33,4,4,0,0,1,3.72-2.49A4.2,4.2,0,0,1,408.938,791.272Zm41.28,19.98a12.029,12.029,0,0,0,5.07-7.65h-9.72a5.514,5.514,0,0,1-1.5,2.88,4.191,4.191,0,0,1-3,1.02,4.373,4.373,0,0,1-3.51-1.71q-1.41-1.71-1.77-5.79h19.86v-1.98a19.1,19.1,0,0,0-1.74-8.4,13.016,13.016,0,0,0-5.07-5.61,15.339,15.339,0,0,0-8.07-2.01,15.554,15.554,0,0,0-7.89,1.95,13.519,13.519,0,0,0-5.28,5.52,17.775,17.775,0,0,0-1.89,8.43,17.536,17.536,0,0,0,2.04,8.91,13.038,13.038,0,0,0,5.52,5.25,17.063,17.063,0,0,0,7.74,1.74A16.349,16.349,0,0,0,450.218,811.252Zm-6.09-21.15a10.467,10.467,0,0,1,1.44,5.04h-9.78a9.4,9.4,0,0,1,1.59-5.07,4.108,4.108,0,0,1,3.39-1.77A3.816,3.816,0,0,1,444.128,790.1Zm26.88,22.92v-17.1q0-3.42,1.44-5.01a4.353,4.353,0,0,1,3.3-1.59,3.535,3.535,0,0,1,3.06,1.41,6.377,6.377,0,0,1,1.02,3.81v18.48h10.2v-20.04a11.226,11.226,0,0,0-2.79-8.01,9.988,9.988,0,0,0-7.65-2.97,10.973,10.973,0,0,0-5.79,1.47,8.9,8.9,0,0,0-3.57,3.93l-0.3-4.62h-9.12v30.24h10.2Zm27-12.72h7.08l1.8-27.48h-10.74Zm-0.36,4.02a5.165,5.165,0,0,0-1.56,3.9,5.242,5.242,0,0,0,1.56,3.81,5.167,5.167,0,0,0,3.84,1.59,5.3,5.3,0,0,0,3.84-1.59,5.468,5.468,0,0,0,.06-7.71,5.41,5.41,0,0,0-3.9-1.5A5.331,5.331,0,0,0,497.648,804.322Z" transform="translate(-39.281 -648.438)"/>
</svg>
