<svg xmlns="http://www.w3.org/2000/svg" width="375.25" height="57.41"><path fill="#ffbc0d" d="M0 0h375.25v57.41H0z"/><path data-name="Jede Bestellung:" d="M34.43 39.63q3.26-3.17 3.26-9.34V12.15h-7.96v19.13a8.08 8.08 0 01-.94 4.24 3.21 3.21 0 01-2.94 1.52 3 3 0 01-2.8-1.63 9.64 9.64 0 01-1-4.4h-7.9a12.88 12.88 0 003.41 8.64 11.11 11.11 0 008.29 3.15 11.78 11.78 0 008.58-3.17zm25.53 1.14a8.96 8.96 0 003.78-5.7H56.5a4.11 4.11 0 01-1.12 2.15 3.12 3.12 0 01-2.23.76 3.26 3.26 0 01-2.62-1.28 8 8 0 01-1.31-4.3H64v-1.48a14.22 14.22 0 00-1.3-6.26 9.68 9.68 0 00-3.78-4.18 11.42 11.42 0 00-6-1.5 11.58 11.58 0 00-5.88 1.45 10.07 10.07 0 00-3.94 4.12 13.24 13.24 0 00-1.4 6.27 13.05 13.05 0 001.51 6.64 9.71 9.71 0 004.12 3.91 12.72 12.72 0 005.76 1.3 12.17 12.17 0 006.86-1.9zm-4.54-15.75a7.8 7.8 0 011.08 3.75H49.2A7 7 0 0150.4 25a3.06 3.06 0 012.52-1.32 2.85 2.85 0 012.5 1.34zm15.4-4.53a9.8 9.8 0 00-3.24 4.17 15.38 15.38 0 00-1.16 6.17 15.96 15.96 0 001.1 6.08 9.81 9.81 0 003.12 4.22 7.65 7.65 0 004.76 1.54 7.07 7.07 0 006.8-4.24l.26 3.66h6.8V10.81h-7.6v11.44a6.46 6.46 0 00-2.6-2.44 7.33 7.33 0 00-3.4-.83 8.07 8.07 0 00-4.83 1.5zm9.88 5.4a8.35 8.35 0 011.05 4.54v.8a8.45 8.45 0 01-1.05 4.58 3.13 3.13 0 01-2.7 1.63 2.98 2.98 0 01-2.78-1.87 10.57 10.57 0 01-.93-4.74 10.43 10.43 0 01.93-4.71A2.98 2.98 0 0178 24.26a3.13 3.13 0 012.7 1.63zm30.74 14.88a8.96 8.96 0 003.78-5.7h-7.24a4.1 4.1 0 01-1.12 2.15 3.12 3.12 0 01-2.24.76 3.25 3.25 0 01-2.61-1.28 8 8 0 01-1.32-4.3h14.8v-1.48a14.22 14.22 0 00-1.3-6.26 9.69 9.69 0 00-3.78-4.18 11.42 11.42 0 00-6.01-1.5 11.58 11.58 0 00-5.88 1.45 10.06 10.06 0 00-3.93 4.12 13.24 13.24 0 00-1.41 6.27 13.05 13.05 0 001.52 6.64 9.7 9.7 0 004.11 3.91 12.72 12.72 0 005.77 1.3 12.18 12.18 0 006.86-1.9zm-4.54-15.75a7.8 7.8 0 011.08 3.75h-7.29a7 7 0 011.19-3.77 3.06 3.06 0 012.52-1.32 2.84 2.84 0 012.5 1.34zm34.86 17.07q5.58 0 8.47-2.39a7.76 7.76 0 002.88-6.28 6.96 6.96 0 00-1.52-4.4 8.97 8.97 0 00-4.7-2.88 7.05 7.05 0 003.72-2.77 6.95 6.95 0 00.98-3.53 7.06 7.06 0 00-1.12-3.89 7.56 7.56 0 00-3.48-2.77 15.66 15.66 0 00-6.17-1.03h-11.93V42.1h12.87zm1.97-21.27a4.53 4.53 0 01-.32 1.65 2.79 2.79 0 01-1.16 1.34 4.74 4.74 0 01-2.5.54h-3.35v-7.02h3.35q3.98 0 3.98 3.49zm.15 9.36a3.78 3.78 0 011.1 2.8 3.74 3.74 0 01-1.14 2.85 5.66 5.66 0 01-3.9 1.08h-3.54v-7.82h3.53q2.86 0 3.95 1.1zm30.16 10.6a8.96 8.96 0 003.78-5.7h-7.24a4.11 4.11 0 01-1.12 2.14 3.12 3.12 0 01-2.23.76 3.25 3.25 0 01-2.61-1.28 8 8 0 01-1.32-4.3h14.79v-1.48a14.22 14.22 0 00-1.3-6.26 9.68 9.68 0 00-3.78-4.18 11.42 11.42 0 00-6-1.5 11.58 11.58 0 00-5.88 1.45 10.07 10.07 0 00-3.94 4.12 13.24 13.24 0 00-1.4 6.27 13.05 13.05 0 001.52 6.64 9.7 9.7 0 004.1 3.91 12.72 12.72 0 005.77 1.3 12.17 12.17 0 006.87-1.9zm-4.53-15.76a7.8 7.8 0 011.07 3.75h-7.28a7 7 0 011.18-3.77 3.06 3.06 0 012.53-1.32 2.84 2.84 0 012.5 1.34zm29.13 15.75a6.21 6.21 0 002.69-5.38 5.51 5.51 0 00-1.61-4.18 12.4 12.4 0 00-5.45-2.52l-3.22-.81a3.87 3.87 0 01-1.97-.96 2.05 2.05 0 01-.53-1.4 1.94 1.94 0 01.62-1.46 2.47 2.47 0 011.79-.6 2.43 2.43 0 011.92.76 3.82 3.82 0 01.85 2.06h7.33a8.33 8.33 0 00-3.09-5.41 10.72 10.72 0 00-6.65-1.88 15.79 15.79 0 00-5.14.78 8.1 8.1 0 00-3.62 2.35 5.83 5.83 0 00-1.34 3.93 5.72 5.72 0 001.63 4.34 10.11 10.11 0 004.53 2.32l3.76.98a4.72 4.72 0 012.25 1.12 2.1 2.1 0 01.6 1.43 1.71 1.71 0 01-.71 1.4 3.2 3.2 0 01-2.01.57 3.58 3.58 0 01-2.1-.7 3.42 3.42 0 01-1.2-2.52h-7.38a7.75 7.75 0 003.1 5.7 12.4 12.4 0 007.49 1.99q4.79 0 7.47-1.9zm18.93 1.59a8.82 8.82 0 002.61-.9l-1.16-4.64a6.74 6.74 0 01-2.6.53 2.33 2.33 0 01-1.78-.71 3.1 3.1 0 01-.67-2.2v-9.96h5.32v-4.91h-5.32v-6.35h-7.6v6.35h-2.9v4.91h2.9v10.06a8.6 8.6 0 001.99 5.83q1.99 2.3 6.1 2.3a16.09 16.09 0 003.11-.31zm22.16-1.59a8.96 8.96 0 003.78-5.7h-7.24a4.1 4.1 0 01-1.12 2.15 3.12 3.12 0 01-2.23.76 3.25 3.25 0 01-2.62-1.28 8 8 0 01-1.31-4.3h14.79v-1.48a14.22 14.22 0 00-1.3-6.26 9.69 9.69 0 00-3.78-4.18 11.42 11.42 0 00-6-1.5 11.58 11.58 0 00-5.89 1.45 10.06 10.06 0 00-3.93 4.12 13.24 13.24 0 00-1.4 6.27 13.05 13.05 0 001.51 6.64 9.7 9.7 0 004.12 3.91 12.72 12.72 0 005.76 1.3 12.18 12.18 0 006.87-1.9zm-4.53-15.75a7.8 7.8 0 011.07 3.75h-7.28a7 7 0 011.18-3.77 3.06 3.06 0 012.53-1.32 2.84 2.84 0 012.5 1.34zm20.02 17.07V10.81h-7.6v31.28h7.6zm12.96 0V10.81h-7.6v31.28h7.6zm18.8-22.52V32.3a5.8 5.8 0 01-.97 3.73 2.9 2.9 0 01-2.28 1.18 2.32 2.32 0 01-2.08-1.05 5.1 5.1 0 01-.7-2.84V19.57h-7.6v14.92a8.59 8.59 0 002 5.97 6.77 6.77 0 005.3 2.21 7.57 7.57 0 004.3-1.18 6.9 6.9 0 002.57-3.06l.27 3.66h6.8V19.57h-7.6zm20.56 22.52V29.36a5.44 5.44 0 011.08-3.74 3.24 3.24 0 012.45-1.18 2.63 2.63 0 012.28 1.05 4.76 4.76 0 01.76 2.84v13.76h7.6V27.17a8.36 8.36 0 00-2.08-5.97 7.44 7.44 0 00-5.7-2.21 8.18 8.18 0 00-4.3 1.1 6.64 6.64 0 00-2.66 2.92l-.23-3.44h-6.79v22.52h7.6zm40.67-1.88V19.57h-6.8l-.22 3.4a6.43 6.43 0 00-2.68-3 7.05 7.05 0 00-3.48-.98 8.87 8.87 0 00-5.12 1.48 9.6 9.6 0 00-3.35 4.09 14.44 14.44 0 00-1.19 6 15.18 15.18 0 001.12 6.02 9.86 9.86 0 003.15 4.13 7.87 7.87 0 004.85 1.52 7.43 7.43 0 003.53-.83 7.25 7.25 0 002.6-2.3v3.4q0 5-3.85 5a3.44 3.44 0 01-2.32-.8 3.94 3.94 0 01-1.26-2.23h-7.15a8.13 8.13 0 003.6 5.7 12.82 12.82 0 007.13 1.9q11.44 0 11.44-11.84zm-14.03-5.02a10.02 10.02 0 01-.94-4.63 9.78 9.78 0 01.94-4.56 2.98 2.98 0 012.77-1.78 3.15 3.15 0 012.7 1.56 7.81 7.81 0 011.05 4.38v.8a8 8 0 01-1.05 4.47 3.15 3.15 0 01-2.7 1.57 2.98 2.98 0 01-2.77-1.81zm24.44 6.16a4.07 4.07 0 00.05-5.74 4.03 4.03 0 00-2.9-1.12 3.97 3.97 0 00-2.86 1.12 3.85 3.85 0 00-1.17 2.9 3.9 3.9 0 001.17 2.84 3.85 3.85 0 002.86 1.19 3.95 3.95 0 002.86-1.19zm0-14.92a4.07 4.07 0 00.05-5.74 4.03 4.03 0 00-2.9-1.12 3.96 3.96 0 00-2.86 1.12 3.85 3.85 0 00-1.17 2.9 3.9 3.9 0 001.17 2.83 3.85 3.85 0 002.86 1.19 3.94 3.94 0 002.86-1.18z" fill-rule="evenodd"/></svg>
