<svg xmlns="http://www.w3.org/2000/svg" width="102" height="102" viewBox="0 0 139.46 139.46"><g data-name="Ebene 2"><g data-name="Layer 1"><path d="M12.08 139.46S0 139.46 0 127.38V12.08S0 0 12.08 0h115.3s12.08 0 12.08 12.08v115.3s0 12.08-12.08 12.08z" fill="#db0007"/><path d="M90 28.66c-8.18 0-15.48 10.9-20.25 27.94C65 39.56 57.66 28.66 49.48 28.66c-14.38 0-26 36.27-26 81H35c0-41.55 6.48-75.22 14.46-75.22S64 65.54 64 103.88h11.52C75.52 65.54 82 34.45 90 34.45s14.47 33.67 14.47 75.22H116c0-44.74-11.63-81.01-26-81.01z" fill="#ffbc0d"/></g></g></svg>
