<svg xmlns="http://www.w3.org/2000/svg" width="376" height="367" viewBox="0 0 273.88 267.18"><defs><clipPath id="clip-path" transform="translate(-28.79 -10.98)"><path fill="none" d="M0 0h358.24v295.01H0z"/></clipPath><style>.cls-2{fill:#1d1d1b}</style></defs><g id="Ebene_2" data-name="Ebene 2"><g id="Ebene_1-2" data-name="Ebene 1"><path class="cls-2" d="M39.13 45.46q-5.1 0-7.72-2.35a8.4 8.4 0 01-2.62-6.58c0-.46 0-.93.07-1.41s.1-1 .16-1.69h7.79c-.06.49-.11.94-.14 1.37s0 .82 0 1.18a4.21 4.21 0 00.73 2.64 2.66 2.66 0 002.27 1 3.62 3.62 0 002.9-1.39 11.44 11.44 0 001.89-4.71l4.14-19.27h7.93l-4 18.49q-1.53 6.71-4.74 9.71a12.24 12.24 0 01-8.66 3.01zM66.1 45.32q-4.78 0-7.43-2.6T56 35.34a16.15 16.15 0 01.84-5.12 14.46 14.46 0 012.53-4.58 12.3 12.3 0 014.15-3.25 12.8 12.8 0 015.74-1.21 10.14 10.14 0 015.42 1.3A7.79 7.79 0 0177.8 26a12 12 0 011 5 13.8 13.8 0 01-.14 1.89c-.09.66-.2 1.32-.32 2H63.46a7 7 0 00-.05.91 6.31 6.31 0 00.82 3.65 2.78 2.78 0 002.41 1.14 3.17 3.17 0 002.3-.82 5 5 0 001.26-2.14h7.38a10.67 10.67 0 01-4.45 5.92 13.41 13.41 0 01-7.03 1.77zM68.88 26a3.68 3.68 0 00-3 1.57A11.38 11.38 0 0064 31.25h7.61v-1a6.9 6.9 0 00-.61-3.1A2.21 2.21 0 0068.88 26zM88.92 45.32a7.65 7.65 0 01-5.13-1.55A5.61 5.61 0 0182 39.26a10.48 10.48 0 01.28-2.37l2.22-10.38h-2.73l1-4.74h2.73l1.37-6.47h7.56l-1.37 6.47h5.15l-1 4.74H92L89.78 37a5.29 5.29 0 00-.13 1c0 1.34.72 2 2.18 2a6.23 6.23 0 001.87-.28l.64 4.6a19.69 19.69 0 01-2.55.69 14.79 14.79 0 01-2.87.31zM96.3 44.73l.77-3.65 12.34-13.89h-9.2l1.19-5.42h18.13l-.78 3.64L106 39.31h10.3l-1.19 5.42zM127.81 45.32a7.64 7.64 0 01-5.12-1.55 5.61 5.61 0 01-1.8-4.51 11 11 0 01.27-2.37l2.24-10.38h-2.74l1-4.74h2.73l1.37-6.47h7.56L132 21.77h5.15l-1 4.74h-5.19L128.68 37a5.43 5.43 0 00-.14 1.05q0 2 2.19 2a6.23 6.23 0 001.87-.28l.63 4.6a19.26 19.26 0 01-2.55.69 14.72 14.72 0 01-2.87.26zM152.32 45.32a6.15 6.15 0 01-5.06-2.32q-1.86-2.32-1.86-6.7a19.34 19.34 0 01.77-5.42A17.46 17.46 0 01148.4 26a11.87 11.87 0 013.6-3.5 8.82 8.82 0 014.79-1.32q4 0 5.6 3l2.37-11.3h7.56l-6.79 31.89h-6.56l.5-3.55a9.21 9.21 0 01-3.16 3.09 7.83 7.83 0 01-3.99 1.01zm3.37-5.32a3.34 3.34 0 002.12-.85 7.31 7.31 0 001.77-2.25 11.45 11.45 0 001.12-3.19l.14-.68c0-.22.1-.6.2-1.14a9.06 9.06 0 00.16-1.78 4.72 4.72 0 00-.7-2.87 2.24 2.24 0 00-1.85-.91 3.2 3.2 0 00-2.23.93 7.94 7.94 0 00-1.71 2.42 15.14 15.14 0 00-1.09 3.23 15.64 15.64 0 00-.39 3.4 5.89 5.89 0 00.52 2.64 2 2 0 001.94 1.05zM170.72 44.73l4.87-23h6.56l-.68 4.69A11.53 11.53 0 01184 23a5.7 5.7 0 014.1-1.55 6.25 6.25 0 011.37.13l-1.55 7.06a5.85 5.85 0 00-1.64-.22 4.84 4.84 0 00-3.9 1.93 12.74 12.74 0 00-2.3 5.35l-1.91 9.07zM199.23 45.32c-3.18 0-5.66-.87-7.42-2.6s-2.64-4.19-2.64-7.38a16.15 16.15 0 01.84-5.12 14.08 14.08 0 012.53-4.58 12.27 12.27 0 014.14-3.25 12.83 12.83 0 015.74-1.21 10.09 10.09 0 015.42 1.3 7.81 7.81 0 013.1 3.53 12 12 0 011 5 13.76 13.76 0 01-.13 1.89c-.1.66-.2 1.32-.32 2h-14.9v.91a6.31 6.31 0 00.82 3.65 2.77 2.77 0 002.41 1.14 3.18 3.18 0 002.3-.82 5 5 0 001.25-2.14h7.38a10.61 10.61 0 01-4.44 5.92 13.42 13.42 0 01-7.08 1.76zM202 26a3.71 3.71 0 00-3 1.57 11.36 11.36 0 00-1.84 3.72h7.61v-1a6.9 6.9 0 00-.61-3.1A2.22 2.22 0 00202 26zM213.17 44.73l4.87-23h7.57l-4.88 23zm9.57-25.65a3.67 3.67 0 01-2.74-1 3.47 3.47 0 01-1-2.53 4.37 4.37 0 011.37-3.21 4.65 4.65 0 013.41-1.34 3.66 3.66 0 012.71 1 3.42 3.42 0 011 2.53 4.31 4.31 0 01-1.39 3.21 4.69 4.69 0 01-3.36 1.34zM226.06 44.73l5-23h6.56l-.46 3.05a9 9 0 012.9-2.71 7.64 7.64 0 013.8-.93 5.92 5.92 0 013.76 1.09 5.67 5.67 0 011.93 2.92 8.57 8.57 0 013.06-3 8.3 8.3 0 014.14-1 5.42 5.42 0 014.56 1.87 7.39 7.39 0 011.45 4.69 13 13 0 01-.09 1.5 16.21 16.21 0 01-.27 1.6l-3.05 13.89h-7.55l3.09-14.21c.06-.34.12-.66.16-1a5.48 5.48 0 00.07-.85c0-1.6-.64-2.41-1.91-2.41a2.78 2.78 0 00-2.21 1 7 7 0 00-1.34 2.82c0 .21-.08.44-.14.69l-3.1 13.89h-7.56L242 30.52c.06-.34.12-.66.16-1a5.27 5.27 0 00.07-.87c0-1.6-.64-2.41-1.91-2.41-1.79 0-3 1.63-3.78 4.87l-2.92 13.58zM270.11 45.32a6.33 6.33 0 01-4.4-1.57 5.43 5.43 0 01-1.71-4.26 7.25 7.25 0 013.69-6.31q3.69-2.38 11.57-2.62l.13-.59a10.46 10.46 0 00.21-1.09c0-.37.07-.67.07-.91a2.25 2.25 0 00-.66-1.69 2.58 2.58 0 00-1.85-.64 3 3 0 00-2.32 1 7.22 7.22 0 00-1.37 2.28h-7.06a11.46 11.46 0 013.9-5.56 11.87 11.87 0 017.49-2.14q4.46 0 6.65 2a7.25 7.25 0 012.19 5.67 18.83 18.83 0 01-.41 3.69l-2.65 12.21H277l.28-3a8.71 8.71 0 01-3 2.64 8.61 8.61 0 01-4.17.89zm1.27-7.24a2.45 2.45 0 00.64 1.77 2.34 2.34 0 001.82.69 3.51 3.51 0 002.51-1.12 7.53 7.53 0 001.73-3.76l.41-1.77q-4.07.09-5.58 1.3a3.57 3.57 0 00-1.53 2.89zM288.33 44.73l6.78-31.89h7.56l-6.78 31.89zM64.28 88.73a6.16 6.16 0 01-5.06-2.32c-1.25-1.55-1.87-3.79-1.87-6.7a19.36 19.36 0 01.78-5.42 17.18 17.18 0 012.23-4.87 11.75 11.75 0 013.55-3.51 8.78 8.78 0 014.78-1.32c2.71 0 4.57 1 5.61 3l2.37-11.3h7.56l-6.79 31.85h-6.56l.5-3.56a9.15 9.15 0 01-3.16 3.1 7.86 7.86 0 01-3.94 1.05zm3.37-5.38a3.28 3.28 0 002.11-.84 7.19 7.19 0 001.78-2.25 12.13 12.13 0 001.12-3.19l.13-.69c0-.21.1-.59.21-1.13a9.9 9.9 0 00.16-1.78 4.69 4.69 0 00-.71-2.87 2.21 2.21 0 00-1.84-.91 3.19 3.19 0 00-2.23.93A7.82 7.82 0 0066.67 73a15 15 0 00-1.1 3.23 16.23 16.23 0 00-.38 3.39 5.9 5.9 0 00.52 2.65 2 2 0 001.94 1.08zM82.72 88.14l4.88-23h6.56l-.69 4.69A11.69 11.69 0 0196 66.36a5.76 5.76 0 014.1-1.55 6.21 6.21 0 011.37.14L99.94 72a5.85 5.85 0 00-1.64-.23 4.81 4.81 0 00-3.89 1.94 12.44 12.44 0 00-2.3 5.35l-1.92 9.07zM100.44 88.14l4.87-23h7.57l-4.88 23zM110 62.49a3.67 3.67 0 01-2.74-1 3.48 3.48 0 01-1-2.53 4.33 4.33 0 011.37-3.21 4.66 4.66 0 013.41-1.35 3.66 3.66 0 012.71 1 3.4 3.4 0 011 2.53 4.31 4.31 0 01-1.39 3.21 4.73 4.73 0 01-3.36 1.35zM118.39 88.14l-2.83-23H123l.78 15.71 7.29-15.71h7.42l-12.44 23zM147 88.73q-4.78 0-7.43-2.6t-2.64-7.38a16.11 16.11 0 01.84-5.12 14.27 14.27 0 012.53-4.58 12.33 12.33 0 014.15-3.26 12.92 12.92 0 015.73-1.2 10.09 10.09 0 015.42 1.3 7.81 7.81 0 013.1 3.53 11.91 11.91 0 011 5 13.76 13.76 0 01-.13 1.89c-.09.65-.2 1.31-.32 2H144.3v.91a6.33 6.33 0 00.82 3.65 2.77 2.77 0 002.37 1.13 3.18 3.18 0 002.3-.82 5.07 5.07 0 001.26-2.18h7.37a10.6 10.6 0 01-4.42 5.91 13.41 13.41 0 01-7 1.82zm2.77-19.36a3.65 3.65 0 00-3 1.57 11.43 11.43 0 00-1.85 3.71h7.61v-1a6.9 6.9 0 00-.61-3.1 2.21 2.21 0 00-2.2-1.18zM160.88 88.14l4.83-23h6.56l-.5 3.23a8.56 8.56 0 017.23-3.78 6 6 0 014.81 1.89 7.09 7.09 0 011.61 4.76 12.5 12.5 0 01-.09 1.48 13.87 13.87 0 01-.27 1.52l-3 13.9h-7.56l3-14.22.16-.91a5.55 5.55 0 00.07-.82c0-1.67-.76-2.5-2.28-2.5a3.28 3.28 0 00-2.56 1.31 8.78 8.78 0 00-1.58 3.58l-2.87 13.53zM202.7 88.73a5.52 5.52 0 01-4.63-1.89 7.39 7.39 0 01-1.48-4.67 13.43 13.43 0 01.09-1.55c.07-.52.16-1 .28-1.55l3-13.89h7.56l-3 14.26-.16.93a4.92 4.92 0 00-.07.84c0 1.61.68 2.42 2.05 2.42a3.19 3.19 0 002.53-1.32 8.17 8.17 0 001.52-3.56l2.87-13.57h7.56l-4.91 23h-6.61l.46-3.19a9.19 9.19 0 01-3 2.78 8 8 0 01-4.06.96zM221.1 88.14l4.83-23h6.56l-.49 3.27a8.58 8.58 0 017.25-3.82 6 6 0 014.8 1.89 7 7 0 011.62 4.76 12.5 12.5 0 01-.09 1.48 11.89 11.89 0 01-.28 1.52l-3 13.9h-7.56l3.05-14.22c.07-.33.12-.63.16-.91a4.47 4.47 0 00.07-.82c0-1.67-.76-2.5-2.28-2.5A3.28 3.28 0 00233.1 71a8.77 8.77 0 00-1.57 3.58l-2.87 13.53zM255 88.73a6.18 6.18 0 01-5.06-2.32c-1.24-1.55-1.87-3.79-1.87-6.7a19.36 19.36 0 01.78-5.42 17.18 17.18 0 012.23-4.87 11.87 11.87 0 013.55-3.51 8.79 8.79 0 014.79-1.32c2.7 0 4.56 1 5.6 3l2.37-11.3h7.56l-6.79 31.89h-6.56l.5-3.56a9.15 9.15 0 01-3.16 3.1 7.86 7.86 0 01-3.94 1.01zm3.37-5.38a3.33 3.33 0 002.12-.84 7.31 7.31 0 001.77-2.25 12.13 12.13 0 001.12-3.19l.13-.69c0-.21.1-.59.21-1.13a9.06 9.06 0 00.16-1.78 4.69 4.69 0 00-.71-2.87 2.21 2.21 0 00-1.84-.91 3.19 3.19 0 00-2.23.93 7.82 7.82 0 00-1.72 2.38 14.43 14.43 0 00-1.09 3.23 15.62 15.62 0 00-.39 3.39 5.9 5.9 0 00.52 2.65 2 2 0 001.94 1.08z" transform="translate(-28.79 -10.98)"/><g clip-path="url(#clip-path)"><path class="cls-2" d="M85.29 277.57l-.63-23h7.88l-1.14 15.76 7.2-15.72h6.6l-.2 15.58 6.37-15.58h7.11l-11.61 23h-7.7L99.1 265 93 277.57zM126.88 278.16q-4.78 0-7.42-2.6t-2.65-7.38a16.17 16.17 0 01.85-5.12 14.19 14.19 0 012.53-4.58 12.27 12.27 0 014.14-3.25 12.8 12.8 0 015.74-1.21 10.12 10.12 0 015.42 1.3 7.81 7.81 0 013.1 3.53 12.11 12.11 0 011 5 13.8 13.8 0 01-.14 1.89c-.09.66-.2 1.32-.32 2h-14.89v.91a6.41 6.41 0 00.82 3.65 2.79 2.79 0 002.42 1.14 3.18 3.18 0 002.3-.82 5 5 0 001.25-2.14h7.38a10.61 10.61 0 01-4.44 5.92 13.45 13.45 0 01-7.09 1.76zm2.78-19.36a3.68 3.68 0 00-3 1.57 11.36 11.36 0 00-1.84 3.72h7.6c0-.31.05-.63.05-1a6.9 6.9 0 00-.62-3.1 2.21 2.21 0 00-2.19-1.19zM140.77 277.57l4.88-23h6.56l-.69 4.69a11.53 11.53 0 012.55-3.5 5.72 5.72 0 014.1-1.55 6.25 6.25 0 011.37.13l-1.54 7.1a5.85 5.85 0 00-1.64-.22 4.8 4.8 0 00-3.89 1.93 12.49 12.49 0 00-2.3 5.35l-1.92 9.07zM166.14 278.16a6.13 6.13 0 01-5-2.32q-1.87-2.32-1.87-6.7a19.72 19.72 0 01.77-5.42 17.2 17.2 0 012.24-4.87 11.75 11.75 0 013.55-3.51 8.76 8.76 0 014.78-1.32q4 0 5.6 3l2.37-11.3h7.56l-6.78 31.89h-6.56l.5-3.56a9.18 9.18 0 01-3.17 3.1 7.83 7.83 0 01-3.99 1.01zm3.37-5.37a3.32 3.32 0 002.12-.85 7.33 7.33 0 001.78-2.25 11.77 11.77 0 001.11-3.19l.14-.68q0-.33.21-1.14a9.93 9.93 0 00.15-1.78 4.72 4.72 0 00-.7-2.87 2.22 2.22 0 00-1.85-.91 3.2 3.2 0 00-2.23.93 7.94 7.94 0 00-1.71 2.42 15.14 15.14 0 00-1.09 3.23 15.64 15.64 0 00-.39 3.4 5.88 5.88 0 00.53 2.64 2 2 0 001.93 1.05zM195.43 278.16q-4.78 0-7.42-2.6t-2.65-7.38a15.89 15.89 0 01.85-5.12 14.35 14.35 0 012.52-4.58 12.4 12.4 0 014.15-3.25 12.8 12.8 0 015.74-1.21 10.14 10.14 0 015.42 1.3 7.81 7.81 0 013.1 3.53 12.11 12.11 0 011 5 13.8 13.8 0 01-.14 1.89c-.09.66-.2 1.32-.32 2h-14.89v.91a6.41 6.41 0 00.82 3.65 2.79 2.79 0 002.42 1.14 3.2 3.2 0 002.3-.82 5 5 0 001.25-2.14h7.38a10.61 10.61 0 01-4.44 5.92 13.45 13.45 0 01-7.09 1.76zm2.78-19.36a3.68 3.68 0 00-3 1.57 11.58 11.58 0 00-1.85 3.72h7.61c0-.31.05-.63.05-1a6.9 6.9 0 00-.62-3.1 2.21 2.21 0 00-2.19-1.19zM209.37 277.57l4.83-23h6.56l-.51 3.23a8.58 8.58 0 017.25-3.8 6 6 0 014.8 1.89 7.06 7.06 0 011.62 4.76 12.5 12.5 0 01-.09 1.48 12.37 12.37 0 01-.28 1.53l-3 13.89H223l3.05-14.21c.07-.34.12-.64.16-.91a4.62 4.62 0 00.07-.82c0-1.67-.76-2.51-2.27-2.51a3.29 3.29 0 00-2.67 1.34 8.77 8.77 0 00-1.54 3.56l-2.87 13.53zM239.38 278a3.78 3.78 0 01-2.8-1 3.6 3.6 0 01-1-2.66 4.37 4.37 0 011.35-3.24 4.58 4.58 0 013.35-1.32 3.51 3.51 0 012.68 1 3.65 3.65 0 011 2.64 4.34 4.34 0 01-1.34 3.25 4.46 4.46 0 01-3.24 1.33zm-1-10.11l3.23-20.86h8l-6 20.86z" transform="translate(-28.79 -10.98)"/></g></g></g></svg>
