<svg height="63" width="120" xmlns="http://www.w3.org/2000/svg"><path d="m0 0h120v63h-120z" fill="#fff"/><g fill-rule="evenodd" transform="translate(-161 -893)"><path d="m219.409 945.083a16.571 16.571 0 0 0 5.867-7.971 39.621 39.621 0 0 0 0-24.381 16.74 16.74 0 0 0 -31.626 0 39.621 39.621 0 0 0 0 24.381 17.576 17.576 0 0 0 25.759 7.971zm-14.228-8.975q-1.316-3.618-1.315-11.186t1.315-11.187q1.315-3.617 4.282-3.617t4.282 3.617q1.316 3.618 1.315 11.187t-1.315 11.186q-1.316 3.617-4.282 3.617t-4.282-3.617z"/><path d="m235.578 916.141a3.428 3.428 0 0 1 3.194-1.969 2.771 2.771 0 0 1 2.2 1.039 5.985 5.985 0 0 1 .074 6.127 2.681 2.681 0 0 1 -2.24 1.039 2.964 2.964 0 0 1 -2.074-.657 3.527 3.527 0 0 1 -.973-2h-6.13a7.276 7.276 0 0 0 2.771 5.16 9.939 9.939 0 0 0 6.3 1.878 12.016 12.016 0 0 0 5.176-1.04 7.849 7.849 0 0 0 3.414-2.99 8.561 8.561 0 0 0 1.212-4.613 8.431 8.431 0 0 0 -.992-4.157 7.065 7.065 0 0 0 -2.789-2.789 8.541 8.541 0 0 0 -4.222-1 7.184 7.184 0 0 0 -2.405.383 7.4 7.4 0 0 0 -1.964 1.039l.331-4.558h10.535v-4.7h-15.456l-.955 13.82h4.993zm30.009 9.08a9.021 9.021 0 0 0 3.194-4.339 21.576 21.576 0 0 0 0-13.273 9.113 9.113 0 0 0 -17.217 0 21.576 21.576 0 0 0 0 13.273 9.568 9.568 0 0 0 14.023 4.339zm-7.745-4.886a26.253 26.253 0 0 1 0-12.179 2.364 2.364 0 0 1 4.662 0 26.253 26.253 0 0 1 0 12.179 2.364 2.364 0 0 1 -4.662 0z"/><path d="m181.97 925.923a7.763 7.763 0 0 0 2.9-2.516 9.241 9.241 0 0 0 1.524-3.9h-3.231a6.226 6.226 0 0 1 -1.835 3.537 4.706 4.706 0 0 1 -3.23 1.2 4.8 4.8 0 0 1 -3.837-1.751 9.6 9.6 0 0 1 -1.964-4.849h7.379l.33-2.115h-7.929q-.036-.619-.036-1.277 0-.62.036-1.166h8.333l.331-2.079h-8.48a10.11 10.11 0 0 1 1.982-4.9 4.767 4.767 0 0 1 3.855-1.769 4.5 4.5 0 0 1 3.193 1.24 6.435 6.435 0 0 1 1.8 3.428h3.267a9.269 9.269 0 0 0 -1.578-3.811 8.219 8.219 0 0 0 -2.9-2.516 8.11 8.11 0 0 0 -3.781-.893 8.258 8.258 0 0 0 -4.424 1.166 9.274 9.274 0 0 0 -3.12 3.246 13.59 13.59 0 0 0 -1.67 4.813h-1.946v2.079h1.725q-.036.583-.036 1.166 0 .657.036 1.277h-1.725v2.115h1.946a12.434 12.434 0 0 0 3.065 6.636 8.056 8.056 0 0 0 6.15 2.516 8.513 8.513 0 0 0 3.87-.877z"/><path d="m274.079 898.557q.145 1.158.319 2.255-1.014-.5-2.041-.994t-1.809-.845l-.608 1.987q.84.238 1.939.46t2.171.4q-.781.8-1.548 1.632t-1.317 1.513l1.679 1.216q.434-.741.984-1.75t1.042-2.018q.492 1.01 1.042 2.018t1.013 1.75l1.65-1.216q-.581-.683-1.332-1.513t-1.534-1.632q1.071-.179 2.185-.4t1.954-.46l-.637-1.987q-.782.356-1.809.845t-2.04.994q.2-1.1.333-2.255t.188-2.047h-2.026q.057.89.202 2.047z"/></g></svg>