<svg height="63" width="120" xmlns="http://www.w3.org/2000/svg"><path d="m0 0h120v63h-120z" fill="#fff"/><g fill-rule="evenodd" transform="translate(-462 -791)"><path d="m526.579 844.825v-8.641h-19.622a4.96 4.96 0 0 1 1.517-2.21 37.855 37.855 0 0 1 3.338-2.613l6.2-4.353a22.185 22.185 0 0 0 6.373-6.364 14.066 14.066 0 0 0 1.989-7.435 12.325 12.325 0 0 0 -1.989-7 13.064 13.064 0 0 0 -5.563-4.621 19.876 19.876 0 0 0 -8.362-1.641q-7.687 0-12.408 4.253t-5.124 11.889h11.193a12.942 12.942 0 0 1 1.686-6.129 4.443 4.443 0 0 1 3.911-1.976 4.285 4.285 0 0 1 3.507 1.474 6.48 6.48 0 0 1 1.214 4.22 7.115 7.115 0 0 1 -1.214 4.119 16.86 16.86 0 0 1 -4.114 3.852l-5.462 3.885a29.086 29.086 0 0 0 -8.058 8.071 18.26 18.26 0 0 0 -2.529 9.746v1.474h33.514z"/><path d="m545.774 823.221a9.025 9.025 0 0 0 3.193-4.339 21.557 21.557 0 0 0 0-13.273 9.112 9.112 0 0 0 -17.216 0 21.557 21.557 0 0 0 0 13.273 9.568 9.568 0 0 0 14.023 4.339zm-7.746-4.886a26.253 26.253 0 0 1 0-12.179 2.364 2.364 0 0 1 4.662 0 26.253 26.253 0 0 1 0 12.179 2.364 2.364 0 0 1 -4.662 0zm29.257 4.886a9.021 9.021 0 0 0 3.194-4.339 21.576 21.576 0 0 0 0-13.273 9.113 9.113 0 0 0 -17.217 0 21.576 21.576 0 0 0 0 13.273 9.568 9.568 0 0 0 14.023 4.339zm-7.745-4.886a26.253 26.253 0 0 1 0-12.179 2.364 2.364 0 0 1 4.662 0 26.253 26.253 0 0 1 0 12.179 2.364 2.364 0 0 1 -4.662 0z"/><path d="m482.97 823.923a7.763 7.763 0 0 0 2.9-2.516 9.241 9.241 0 0 0 1.524-3.9h-3.231a6.226 6.226 0 0 1 -1.835 3.537 4.706 4.706 0 0 1 -3.23 1.2 4.8 4.8 0 0 1 -3.837-1.751 9.6 9.6 0 0 1 -1.964-4.849h7.379l.33-2.115h-7.929q-.036-.619-.036-1.277 0-.62.036-1.166h8.333l.331-2.079h-8.48a10.11 10.11 0 0 1 1.982-4.9 4.767 4.767 0 0 1 3.855-1.769 4.5 4.5 0 0 1 3.193 1.24 6.435 6.435 0 0 1 1.8 3.428h3.267a9.269 9.269 0 0 0 -1.578-3.811 8.219 8.219 0 0 0 -2.9-2.516 8.11 8.11 0 0 0 -3.781-.893 8.258 8.258 0 0 0 -4.424 1.166 9.274 9.274 0 0 0 -3.12 3.246 13.59 13.59 0 0 0 -1.67 4.813h-1.946v2.079h1.725q-.036.583-.036 1.166 0 .657.036 1.277h-1.725v2.115h1.946a12.434 12.434 0 0 0 3.065 6.636 8.056 8.056 0 0 0 6.15 2.516 8.513 8.513 0 0 0 3.87-.877z"/><path d="m575.079 796.557q.146 1.158.319 2.255-1.014-.5-2.041-.994t-1.809-.845l-.608 1.987q.84.238 1.939.46t2.171.4q-.781.8-1.548 1.632t-1.317 1.513l1.679 1.216q.433-.741.984-1.75t1.042-2.018q.492 1.01 1.042 2.018t1.013 1.75l1.65-1.216q-.581-.683-1.332-1.513t-1.534-1.632q1.071-.179 2.185-.4t1.954-.46l-.637-1.987q-.781.356-1.809.845t-2.04.994q.2-1.1.333-2.255t.188-2.047h-2.026q.057.89.202 2.047z"/></g></svg>