<svg id="Headline" xmlns="http://www.w3.org/2000/svg" width="430" height="200" viewBox="0 0 430 200">
  <defs>
    <style>
      .cls-1 {
        fill-rule: evenodd;
      }

      .cls-2 {
        fill: #ffbc0d;
      }
    </style>
  </defs>
  <path id="Jetzt_Gutschein_des_Tages_erspielen_" data-name="Jetzt Gutschein des Tages erspielen!" class="cls-1" d="M114.133,495.34q3.18-3.148,3.181-9.268v-18h-7.757v18.978a8.131,8.131,0,0,1-.915,4.212,3.12,3.12,0,0,1-2.877,1.508,2.916,2.916,0,0,1-2.723-1.618,9.708,9.708,0,0,1-.981-4.368H94.348a12.9,12.9,0,0,0,3.334,8.58,10.737,10.737,0,0,0,8.084,3.126A11.38,11.38,0,0,0,114.133,495.34Zm24.986,1.13a8.9,8.9,0,0,0,3.683-5.653h-7.06a4.1,4.1,0,0,1-1.09,2.128,3.013,3.013,0,0,1-2.179.754,3.153,3.153,0,0,1-2.549-1.264,8.032,8.032,0,0,1-1.286-4.278h14.425v-1.464a14.313,14.313,0,0,0-1.264-6.207,9.559,9.559,0,0,0-3.682-4.146,11,11,0,0,0-5.862-1.486,11.14,11.14,0,0,0-5.73,1.441,9.911,9.911,0,0,0-3.835,4.08,13.327,13.327,0,0,0-1.373,6.23,13.139,13.139,0,0,0,1.482,6.584,9.537,9.537,0,0,0,4.009,3.88,12.221,12.221,0,0,0,5.622,1.286A11.725,11.725,0,0,0,139.119,496.47ZM134.7,480.84a7.848,7.848,0,0,1,1.046,3.725h-7.1a7.033,7.033,0,0,1,1.155-3.747,2.969,2.969,0,0,1,2.462-1.308A2.761,2.761,0,0,1,134.7,480.84Zm23.036,17.2a8.478,8.478,0,0,0,2.549-.886l-1.133-4.612a6.211,6.211,0,0,1-1.264.4,6.3,6.3,0,0,1-1.263.133,2.257,2.257,0,0,1-1.744-.709,3.123,3.123,0,0,1-.653-2.173v-9.888h5.186v-4.877h-5.186v-6.3h-7.409v6.3h-2.832v4.877h2.832v9.977a8.625,8.625,0,0,0,1.939,5.786q1.94,2.284,5.949,2.284A15.385,15.385,0,0,0,157.732,498.044Zm23.754-.266V492.5H171.07l9.893-13.613v-3.458H162.79v5.276h9.37l-9.631,13.524v3.547h18.957Zm16.978,0.266a8.478,8.478,0,0,0,2.549-.886l-1.133-4.612a6.222,6.222,0,0,1-1.263.4,6.32,6.32,0,0,1-1.264.133,2.253,2.253,0,0,1-1.743-.709,3.118,3.118,0,0,1-.654-2.173v-9.888h5.186v-4.877h-5.186v-6.3h-7.409v6.3h-2.832v4.877h2.832v9.977a8.626,8.626,0,0,0,1.94,5.786q1.938,2.284,5.948,2.284A15.377,15.377,0,0,0,198.464,498.044Zm15.094-7a12.834,12.834,0,0,0,4.925,5.476,16.367,16.367,0,0,0,13.88.8,11.758,11.758,0,0,0,4.27-3.193,13.587,13.587,0,0,0,2.506-4.611,17.9,17.9,0,0,0,.828-5.476v-1.862H226.981v5.542h5.36a6.471,6.471,0,0,1-2.07,3.924,5.9,5.9,0,0,1-3.857,1.264,5.416,5.416,0,0,1-4.924-2.683,16.892,16.892,0,0,1,0-14.588,5.417,5.417,0,0,1,4.924-2.682q3.792,0,4.968,4.877h8.149a13.532,13.532,0,0,0-4.466-7.715,12.949,12.949,0,0,0-8.52-2.749,15.123,15.123,0,0,0-8.019,2,12.9,12.9,0,0,0-4.968,5.5A20.122,20.122,0,0,0,213.558,491.039Zm44.468-15.608v12.637a5.822,5.822,0,0,1-.959,3.7,2.813,2.813,0,0,1-2.223,1.175,2.253,2.253,0,0,1-2.026-1.042,5.116,5.116,0,0,1-.675-2.815V475.431h-7.409v14.81a8.616,8.616,0,0,0,1.939,5.919,6.552,6.552,0,0,0,5.165,2.195,7.284,7.284,0,0,0,4.205-1.175,6.832,6.832,0,0,0,2.506-3.037l0.261,3.635h6.624V475.431h-7.408Zm24.812,22.613a8.478,8.478,0,0,0,2.549-.886l-1.133-4.612a6.222,6.222,0,0,1-1.263.4,6.32,6.32,0,0,1-1.264.133,2.253,2.253,0,0,1-1.743-.709,3.118,3.118,0,0,1-.654-2.173v-9.888h5.186v-4.877H279.33v-6.3h-7.409v6.3h-2.832v4.877h2.832v9.977a8.626,8.626,0,0,0,1.94,5.786q1.938,2.284,5.948,2.284A15.377,15.377,0,0,0,282.838,498.044Zm22.011-1.574a6.2,6.2,0,0,0,2.615-5.343,5.526,5.526,0,0,0-1.569-4.146,12.022,12.022,0,0,0-5.317-2.5l-3.138-.8a3.758,3.758,0,0,1-1.917-.953,2.056,2.056,0,0,1-.523-1.4,1.946,1.946,0,0,1,.61-1.441,2.383,2.383,0,0,1,1.743-.6,2.349,2.349,0,0,1,1.874.754,3.823,3.823,0,0,1,.828,2.04H307.2a8.291,8.291,0,0,0-3.007-5.365,10.316,10.316,0,0,0-6.493-1.863,15.154,15.154,0,0,0-5.012.776,7.907,7.907,0,0,0-3.53,2.328,5.853,5.853,0,0,0-1.307,3.9,5.732,5.732,0,0,0,1.59,4.3,9.809,9.809,0,0,0,4.424,2.306l3.66,0.975a4.577,4.577,0,0,1,2.2,1.109,2.113,2.113,0,0,1,.589,1.419,1.714,1.714,0,0,1-.7,1.4,3.076,3.076,0,0,1-1.961.554,3.139,3.139,0,0,1-3.225-3.193h-7.19a7.723,7.723,0,0,0,3.028,5.654,11.955,11.955,0,0,0,7.3,1.973A12.261,12.261,0,0,0,304.849,496.47Zm21.336,0.954a9.251,9.251,0,0,0,3.683-2.9,10.875,10.875,0,0,0,2-5.077h-7.278a6.489,6.489,0,0,1-1.111,3.149,2.4,2.4,0,0,1-1.9.886,2.953,2.953,0,0,1-2.44-1.574q-1.046-1.574-1.046-5.3,0-3.77,1.046-5.321a2.958,2.958,0,0,1,2.44-1.552,2.275,2.275,0,0,1,1.787.864,6.062,6.062,0,0,1,1.09,2.86h7.321a9.62,9.62,0,0,0-1.808-4.788,9.1,9.1,0,0,0-3.661-2.86,11.765,11.765,0,0,0-4.729-.954,11.518,11.518,0,0,0-5.665,1.4,10.2,10.2,0,0,0-4.009,4.035,12.708,12.708,0,0,0-1.482,6.319,12.994,12.994,0,0,0,1.482,6.451,9.757,9.757,0,0,0,4.009,3.969,11.987,11.987,0,0,0,5.665,1.33A11.491,11.491,0,0,0,326.185,497.424Zm16.325,0.354V485.141a5.463,5.463,0,0,1,1.046-3.7,3.139,3.139,0,0,1,2.4-1.175,2.549,2.549,0,0,1,2.222,1.042,4.775,4.775,0,0,1,.741,2.816v13.656h7.408V482.969a8.385,8.385,0,0,0-2.026-5.92,7.19,7.19,0,0,0-5.556-2.195,7.1,7.1,0,0,0-3.726.954,6.869,6.869,0,0,0-2.506,2.594V466.74H335.1v31.038h7.409Zm35.184-1.308a8.894,8.894,0,0,0,3.682-5.653h-7.059a4.1,4.1,0,0,1-1.09,2.128,3.013,3.013,0,0,1-2.179.754,3.153,3.153,0,0,1-2.549-1.264,8.023,8.023,0,0,1-1.286-4.278h14.425v-1.464a14.327,14.327,0,0,0-1.264-6.207,9.559,9.559,0,0,0-3.682-4.146,11,11,0,0,0-5.862-1.486,11.14,11.14,0,0,0-5.73,1.441,9.911,9.911,0,0,0-3.835,4.08,13.314,13.314,0,0,0-1.373,6.23,13.14,13.14,0,0,0,1.481,6.584,9.539,9.539,0,0,0,4.01,3.88,12.215,12.215,0,0,0,5.622,1.286A11.725,11.725,0,0,0,377.694,496.47Zm-4.423-15.63a7.859,7.859,0,0,1,1.046,3.725h-7.1a7.024,7.024,0,0,1,1.155-3.747,2.969,2.969,0,0,1,2.462-1.308A2.761,2.761,0,0,1,373.271,480.84Zm17.937-9.112a4.013,4.013,0,0,0,0-5.72,4.269,4.269,0,0,0-5.883,0,4.011,4.011,0,0,0,0,5.72A4.269,4.269,0,0,0,391.208,471.728Zm0.762,26.05V475.431h-7.408v22.347h7.408Zm11.638,0V485.141a5.469,5.469,0,0,1,1.046-3.7,3.139,3.139,0,0,1,2.4-1.175,2.552,2.552,0,0,1,2.223,1.042,4.782,4.782,0,0,1,.74,2.816v13.656h7.409V482.969a8.385,8.385,0,0,0-2.027-5.92,7.19,7.19,0,0,0-5.556-2.195,7.864,7.864,0,0,0-4.2,1.087,6.527,6.527,0,0,0-2.593,2.9l-0.218-3.414H396.2v22.347h7.408Zm30.4-21.438a9.706,9.706,0,0,0-3.159,4.146,15.485,15.485,0,0,0-1.133,6.119,16.076,16.076,0,0,0,1.067,6.03,9.713,9.713,0,0,0,3.051,4.19,7.378,7.378,0,0,0,4.641,1.53,6.888,6.888,0,0,0,6.624-4.212l0.262,3.635h6.624V466.74h-7.409v11.351a6.349,6.349,0,0,0-2.527-2.416,7.054,7.054,0,0,0-3.313-.821A7.785,7.785,0,0,0,434.011,476.34Zm9.631,5.365a8.4,8.4,0,0,1,1.024,4.5V487a8.5,8.5,0,0,1-1.024,4.545,3.04,3.04,0,0,1-2.636,1.618,2.9,2.9,0,0,1-2.7-1.862,10.637,10.637,0,0,1-.916-4.7,10.491,10.491,0,0,1,.916-4.678,2.9,2.9,0,0,1,2.7-1.841A3.041,3.041,0,0,1,443.642,481.705Zm30.064,14.765a8.894,8.894,0,0,0,3.682-5.653h-7.06a4.089,4.089,0,0,1-1.089,2.128,3.015,3.015,0,0,1-2.179.754,3.156,3.156,0,0,1-2.55-1.264,8.033,8.033,0,0,1-1.285-4.278H477.65v-1.464a14.327,14.327,0,0,0-1.264-6.207,9.555,9.555,0,0,0-3.683-4.146,10.992,10.992,0,0,0-5.861-1.486,11.144,11.144,0,0,0-5.731,1.441,9.918,9.918,0,0,0-3.835,4.08,13.327,13.327,0,0,0-1.372,6.23,13.14,13.14,0,0,0,1.481,6.584,9.539,9.539,0,0,0,4.01,3.88,12.214,12.214,0,0,0,5.621,1.286A11.726,11.726,0,0,0,473.706,496.47Zm-4.424-15.63a7.836,7.836,0,0,1,1.046,3.725h-7.1a7.024,7.024,0,0,1,1.155-3.747,2.968,2.968,0,0,1,2.462-1.308A2.758,2.758,0,0,1,469.282,480.84Zm27.59,15.63a6.194,6.194,0,0,0,2.615-5.343,5.526,5.526,0,0,0-1.569-4.146,12.017,12.017,0,0,0-5.316-2.5l-3.138-.8a3.767,3.767,0,0,1-1.918-.953,2.061,2.061,0,0,1-.523-1.4,1.943,1.943,0,0,1,.611-1.441,2.383,2.383,0,0,1,1.743-.6,2.349,2.349,0,0,1,1.874.754,3.839,3.839,0,0,1,.828,2.04h7.147a8.3,8.3,0,0,0-3.007-5.365,10.317,10.317,0,0,0-6.494-1.863,15.148,15.148,0,0,0-5.011.776,7.9,7.9,0,0,0-3.53,2.328,5.848,5.848,0,0,0-1.308,3.9,5.729,5.729,0,0,0,1.591,4.3,9.8,9.8,0,0,0,4.423,2.306l3.661,0.975a4.577,4.577,0,0,1,2.2,1.109,2.112,2.112,0,0,1,.588,1.419,1.715,1.715,0,0,1-.7,1.4,3.078,3.078,0,0,1-1.961.554,3.139,3.139,0,0,1-3.225-3.193h-7.191a7.727,7.727,0,0,0,3.029,5.654,11.955,11.955,0,0,0,7.3,1.973A12.258,12.258,0,0,0,496.872,496.47ZM150.055,542.119v-23.9H158.6v-5.809h-24.84v5.809H142.3v23.9h7.758Zm21.282-.355a7.752,7.752,0,0,0,3.029-2.571l0.174,2.926h6.624v-12.9q0-5.01-2.375-7.516t-7.343-2.5a11.335,11.335,0,0,0-6.929,1.973,8.178,8.178,0,0,0-3.225,5.521h6.973a3.537,3.537,0,0,1,1-2.107,2.71,2.71,0,0,1,1.917-.731,2.362,2.362,0,0,1,2.07,1.042,5.148,5.148,0,0,1,.719,2.948v0.488a33.886,33.886,0,0,0-4.6.421,17.986,17.986,0,0,0-4.4,1.264,8.428,8.428,0,0,0-3.268,2.439,6.118,6.118,0,0,0-1.242,3.946,5.759,5.759,0,0,0,1.939,4.656,7.463,7.463,0,0,0,4.99,1.641A8.84,8.84,0,0,0,171.337,541.764Zm-2.789-4.367a2.6,2.6,0,0,1-.676-1.973,3.271,3.271,0,0,1,1.417-2.683,8.2,8.2,0,0,1,4.684-1.175v1.729a5.2,5.2,0,0,1-1.067,3.525,3.322,3.322,0,0,1-2.593,1.22A2.451,2.451,0,0,1,168.548,537.4Zm37.591,2.86V519.771h-6.624l-0.218,3.37a6.35,6.35,0,0,0-2.614-2.97,6.786,6.786,0,0,0-3.4-.976,8.552,8.552,0,0,0-4.99,1.463,9.494,9.494,0,0,0-3.268,4.057,14.535,14.535,0,0,0-1.155,5.964,15.278,15.278,0,0,0,1.09,5.964,9.77,9.77,0,0,0,3.072,4.1,7.586,7.586,0,0,0,4.728,1.507,7.007,7.007,0,0,0,5.971-3.1v3.37q0,4.966-3.748,4.966a3.324,3.324,0,0,1-2.266-.8,3.927,3.927,0,0,1-1.22-2.217h-6.973a8.084,8.084,0,0,0,3.508,5.654,12.34,12.34,0,0,0,6.951,1.884q11.155,0,11.156-11.75h0Zm-13.684-4.988a10.092,10.092,0,0,1-.915-4.59,9.832,9.832,0,0,1,.915-4.522,2.907,2.907,0,0,1,2.7-1.774,3.06,3.06,0,0,1,2.637,1.552,7.854,7.854,0,0,1,1.024,4.345v0.8a8.043,8.043,0,0,1-1.024,4.434,3.06,3.06,0,0,1-2.637,1.552A2.9,2.9,0,0,1,192.455,535.269Zm35.4,5.542a8.9,8.9,0,0,0,3.683-5.653h-7.06a4.1,4.1,0,0,1-1.09,2.128,3.01,3.01,0,0,1-2.178.754,3.154,3.154,0,0,1-2.55-1.264,8.025,8.025,0,0,1-1.285-4.279H231.8v-1.463a14.332,14.332,0,0,0-1.263-6.208,9.572,9.572,0,0,0-3.683-4.146,10.994,10.994,0,0,0-5.861-1.485,11.144,11.144,0,0,0-5.731,1.441,9.915,9.915,0,0,0-3.835,4.079,13.332,13.332,0,0,0-1.373,6.23,13.141,13.141,0,0,0,1.482,6.585,9.537,9.537,0,0,0,4.009,3.88,12.221,12.221,0,0,0,5.622,1.286A11.725,11.725,0,0,0,227.857,540.811Zm-4.423-15.63a7.833,7.833,0,0,1,1.046,3.725h-7.1a7.022,7.022,0,0,1,1.154-3.747,2.969,2.969,0,0,1,2.463-1.308A2.758,2.758,0,0,1,223.434,525.181Zm27.59,15.63a6.2,6.2,0,0,0,2.615-5.343,5.524,5.524,0,0,0-1.569-4.146,12.005,12.005,0,0,0-5.317-2.5l-3.137-.8a3.754,3.754,0,0,1-1.918-.954,2.053,2.053,0,0,1-.523-1.4,1.946,1.946,0,0,1,.61-1.441,2.387,2.387,0,0,1,1.743-.6,2.349,2.349,0,0,1,1.874.754,3.823,3.823,0,0,1,.828,2.04h7.147a8.3,8.3,0,0,0-3.007-5.366,10.32,10.32,0,0,0-6.493-1.862,15.154,15.154,0,0,0-5.012.776,7.9,7.9,0,0,0-3.53,2.328,5.851,5.851,0,0,0-1.307,3.9,5.729,5.729,0,0,0,1.591,4.3,9.81,9.81,0,0,0,4.423,2.306l3.661,0.975a4.569,4.569,0,0,1,2.2,1.109,2.107,2.107,0,0,1,.589,1.419,1.712,1.712,0,0,1-.7,1.4,3.076,3.076,0,0,1-1.961.555,3.139,3.139,0,0,1-3.224-3.193h-7.191a7.721,7.721,0,0,0,3.029,5.653,11.943,11.943,0,0,0,7.3,1.974A12.259,12.259,0,0,0,251.024,540.811Zm32.113,0a8.894,8.894,0,0,0,3.682-5.653h-7.06a4.093,4.093,0,0,1-1.089,2.128,3.013,3.013,0,0,1-2.179.754,3.153,3.153,0,0,1-2.549-1.264,8.024,8.024,0,0,1-1.286-4.279h14.425v-1.463a14.332,14.332,0,0,0-1.264-6.208,9.57,9.57,0,0,0-3.682-4.146,11,11,0,0,0-5.862-1.485,11.144,11.144,0,0,0-5.731,1.441,9.928,9.928,0,0,0-3.835,4.079,13.332,13.332,0,0,0-1.372,6.23,13.141,13.141,0,0,0,1.481,6.585,9.539,9.539,0,0,0,4.01,3.88,12.214,12.214,0,0,0,5.621,1.286A11.726,11.726,0,0,0,283.137,540.811Zm-4.423-15.63a7.845,7.845,0,0,1,1.045,3.725h-7.1a7.021,7.021,0,0,1,1.155-3.747,2.967,2.967,0,0,1,2.462-1.308A2.761,2.761,0,0,1,278.714,525.181Zm18.7,16.938V531.433a5.174,5.174,0,0,1,1.308-3.88,4.571,4.571,0,0,1,3.312-1.263,8.019,8.019,0,0,1,1,.066,4.308,4.308,0,0,1,.785.155V519.55q-0.262-.043-0.567-0.089a5.362,5.362,0,0,0-.741-0.044,5.141,5.141,0,0,0-3.7,1.33,7.509,7.509,0,0,0-1.961,2.926l-0.349-3.9h-6.493v22.348h7.408Zm26.347-1.308a6.2,6.2,0,0,0,2.615-5.343,5.524,5.524,0,0,0-1.569-4.146,12.005,12.005,0,0,0-5.317-2.5l-3.137-.8a3.759,3.759,0,0,1-1.918-.954,2.058,2.058,0,0,1-.523-1.4,1.946,1.946,0,0,1,.61-1.441,2.388,2.388,0,0,1,1.744-.6,2.346,2.346,0,0,1,1.873.754,3.823,3.823,0,0,1,.828,2.04h7.148a8.3,8.3,0,0,0-3.007-5.366,10.325,10.325,0,0,0-6.494-1.862,15.148,15.148,0,0,0-5.011.776,7.893,7.893,0,0,0-3.53,2.328,5.847,5.847,0,0,0-1.308,3.9,5.729,5.729,0,0,0,1.591,4.3,9.81,9.81,0,0,0,4.423,2.306l3.661,0.975a4.578,4.578,0,0,1,2.2,1.109,2.11,2.11,0,0,1,.588,1.419,1.714,1.714,0,0,1-.7,1.4,3.078,3.078,0,0,1-1.961.555,3.139,3.139,0,0,1-3.225-3.193h-7.191a7.725,7.725,0,0,0,3.029,5.653,11.943,11.943,0,0,0,7.3,1.974A12.259,12.259,0,0,0,323.76,540.811Zm14.386,10.62V539.459a6.329,6.329,0,0,0,2.527,2.416,7.05,7.05,0,0,0,3.312.821,7.788,7.788,0,0,0,4.729-1.486,9.713,9.713,0,0,0,3.159-4.146,15.5,15.5,0,0,0,1.133-6.119,16.076,16.076,0,0,0-1.068-6.03,9.8,9.8,0,0,0-3.028-4.19,7.357,7.357,0,0,0-4.663-1.53,6.887,6.887,0,0,0-6.624,4.212l-0.262-3.636h-6.624v31.66h7.409Zm0.915-15.586a8.533,8.533,0,0,1-1-4.5v-0.8a8.637,8.637,0,0,1,1-4.545,3.023,3.023,0,0,1,2.658-1.618,2.9,2.9,0,0,1,2.7,1.862,10.641,10.641,0,0,1,.915,4.7,10.489,10.489,0,0,1-.915,4.678,2.9,2.9,0,0,1-2.7,1.84A3.021,3.021,0,0,1,339.061,535.845Zm24.507-19.776a4.013,4.013,0,0,0,0-5.72,4.269,4.269,0,0,0-5.883,0,4.011,4.011,0,0,0,0,5.72A4.269,4.269,0,0,0,363.568,516.069Zm0.763,26.05V519.771h-7.409v22.348h7.409Zm20.637-1.308a8.9,8.9,0,0,0,3.682-5.653h-7.06a4.093,4.093,0,0,1-1.089,2.128,3.015,3.015,0,0,1-2.179.754,3.155,3.155,0,0,1-2.55-1.264,8.025,8.025,0,0,1-1.285-4.279h14.425v-1.463a14.332,14.332,0,0,0-1.264-6.208,9.566,9.566,0,0,0-3.683-4.146A10.992,10.992,0,0,0,378.1,519.2a11.144,11.144,0,0,0-5.731,1.441,9.915,9.915,0,0,0-3.835,4.079,13.332,13.332,0,0,0-1.373,6.23,13.141,13.141,0,0,0,1.482,6.585,9.537,9.537,0,0,0,4.009,3.88,12.221,12.221,0,0,0,5.622,1.286A11.726,11.726,0,0,0,384.968,540.811Zm-4.424-15.63a7.833,7.833,0,0,1,1.046,3.725h-7.1a7.013,7.013,0,0,1,1.155-3.747,2.966,2.966,0,0,1,2.462-1.308A2.758,2.758,0,0,1,380.544,525.181Zm18.7,16.938V511.081h-7.408v31.038h7.408Zm20.637-1.308a8.894,8.894,0,0,0,3.682-5.653H416.5a4.1,4.1,0,0,1-1.09,2.128,3.013,3.013,0,0,1-2.179.754,3.153,3.153,0,0,1-2.549-1.264A8.024,8.024,0,0,1,409.4,532.5h14.425v-1.463a14.332,14.332,0,0,0-1.264-6.208,9.57,9.57,0,0,0-3.682-4.146,11,11,0,0,0-5.862-1.485,11.14,11.14,0,0,0-5.73,1.441,9.915,9.915,0,0,0-3.835,4.079,13.32,13.32,0,0,0-1.373,6.23,13.141,13.141,0,0,0,1.481,6.585,9.539,9.539,0,0,0,4.01,3.88,12.215,12.215,0,0,0,5.622,1.286A11.725,11.725,0,0,0,419.881,540.811Zm-4.423-15.63a7.855,7.855,0,0,1,1.046,3.725h-7.1a7.021,7.021,0,0,1,1.155-3.747,2.967,2.967,0,0,1,2.462-1.308A2.761,2.761,0,0,1,415.458,525.181Zm18.7,16.938V529.482a5.469,5.469,0,0,1,1.046-3.7,3.141,3.141,0,0,1,2.4-1.175,2.549,2.549,0,0,1,2.223,1.042,4.777,4.777,0,0,1,.741,2.815v13.657h7.408v-14.81a8.382,8.382,0,0,0-2.026-5.919,7.19,7.19,0,0,0-5.557-2.195,7.864,7.864,0,0,0-4.2,1.086,6.535,6.535,0,0,0-2.593,2.905l-0.218-3.415h-6.624v22.348h7.408Zm19.605-9.4H458.9l1.308-20.308h-7.8ZM453.5,535.69a3.855,3.855,0,0,0-1.133,2.882,3.914,3.914,0,0,0,1.133,2.816,3.729,3.729,0,0,0,2.79,1.175,4.06,4.06,0,0,0,2.832-6.873,3.888,3.888,0,0,0-2.832-1.109A3.836,3.836,0,0,0,453.5,535.69Z" transform="translate(-85 -352)"/>
  <rect id="_ffbc0d" data-name="#ffbc0d" class="cls-2" width="430" height="99"/>
  <path id="Gewinne_" data-name="Gewinne!" class="cls-1" d="M102.959,420.131A28.878,28.878,0,0,0,114,432.475q7.23,4.446,17.492,4.448a32.636,32.636,0,0,0,13.632-2.649,26.4,26.4,0,0,0,9.577-7.2,30.731,30.731,0,0,0,5.619-10.395,40.566,40.566,0,0,0,1.857-12.344v-4.2H133.058v12.494h12.019q-1.172,6-4.641,8.846a13.183,13.183,0,0,1-8.649,2.848,12.131,12.131,0,0,1-11.042-6.047q-3.716-6.046-3.714-16.442t3.714-16.442a12.135,12.135,0,0,1,11.042-6.047q8.5,0,11.14,11H161.2q-2.542-11.193-10.016-17.392t-19.1-6.2q-10.652,0-17.98,4.5a29.024,29.024,0,0,0-11.141,12.394A45.562,45.562,0,0,0,102.959,420.131Zm105.035,12.244q6.3-4.247,8.257-12.744H200.42a9.245,9.245,0,0,1-2.443,4.8,6.735,6.735,0,0,1-4.886,1.7,7.062,7.062,0,0,1-5.717-2.848q-2.3-2.849-2.882-9.646h32.345v-3.3A32.435,32.435,0,0,0,214,396.343,21.521,21.521,0,0,0,205.746,387a24.562,24.562,0,0,0-13.144-3.348,24.883,24.883,0,0,0-12.85,3.248,22.3,22.3,0,0,0-8.6,9.2,30.159,30.159,0,0,0-3.079,14.043q0,9,3.323,14.843a21.436,21.436,0,0,0,8.99,8.746,27.28,27.28,0,0,0,12.606,2.9A26.2,26.2,0,0,0,207.994,432.375Zm-9.919-35.233a17.747,17.747,0,0,1,2.345,8.4H184.492q0.389-5.5,2.589-8.446a6.647,6.647,0,0,1,5.521-2.948A6.182,6.182,0,0,1,198.075,397.142Zm48.893,38.182,7.622-27.487,7.623,27.487h16.808l14.365-50.376H277.75l-6.645,34.584-8.7-34.584H248.141l-8.306,34.484-6.841-34.484H215.8l14.365,50.376h16.808ZM312.49,376.6a9.074,9.074,0,0,0,0-12.893,9.537,9.537,0,0,0-13.192,0,9.077,9.077,0,0,0,0,12.893A9.537,9.537,0,0,0,312.49,376.6Zm1.711,58.722V384.948H297.588v50.376H314.2Zm24.1,0V406.838q0-5.7,2.346-8.346a7.025,7.025,0,0,1,5.374-2.649,5.708,5.708,0,0,1,4.984,2.349,10.806,10.806,0,0,1,1.661,6.347v30.785h16.613V401.94q0-8.4-4.544-13.344t-12.46-4.947a17.569,17.569,0,0,0-9.43,2.449,14.711,14.711,0,0,0-5.814,6.547l-0.489-7.7H321.693v50.376h16.612Zm56.679,0V406.838q0-5.7,2.345-8.346a7.028,7.028,0,0,1,5.375-2.649,5.7,5.7,0,0,1,4.983,2.349,10.806,10.806,0,0,1,1.662,6.347v30.785h16.612V401.94q0-8.4-4.544-13.344t-12.459-4.947a17.567,17.567,0,0,0-9.43,2.449,14.707,14.707,0,0,0-5.815,6.547l-0.488-7.7H378.371v50.376h16.613Zm76.858-2.949q6.3-4.247,8.257-12.744H464.268a9.245,9.245,0,0,1-2.443,4.8,6.736,6.736,0,0,1-4.886,1.7,7.062,7.062,0,0,1-5.717-2.848q-2.3-2.849-2.882-9.646h32.345v-3.3a32.435,32.435,0,0,0-2.834-13.993A21.521,21.521,0,0,0,469.594,387a24.562,24.562,0,0,0-13.144-3.348A24.883,24.883,0,0,0,443.6,386.9a22.3,22.3,0,0,0-8.6,9.2,30.159,30.159,0,0,0-3.079,14.043q0,9,3.323,14.843a21.436,21.436,0,0,0,8.99,8.746,27.28,27.28,0,0,0,12.606,2.9A26.2,26.2,0,0,0,471.842,432.375Zm-9.919-35.233a17.747,17.747,0,0,1,2.345,8.4H448.34q0.389-5.5,2.589-8.446a6.647,6.647,0,0,1,5.521-2.948A6.182,6.182,0,0,1,461.923,397.142Zm25.147,16.992H498.6l2.932-45.778H484.041Zm-0.586,6.7a8.707,8.707,0,0,0-2.541,6.5,8.839,8.839,0,0,0,2.541,6.347,8.328,8.328,0,0,0,6.254,2.648,8.539,8.539,0,0,0,6.254-2.648,8.876,8.876,0,0,0-6.254-15.343A8.573,8.573,0,0,0,486.484,420.831Z" transform="translate(-85 -352)"/>
</svg>
