<svg id="Störer_50_" data-name="Störer (50%)" xmlns="http://www.w3.org/2000/svg" width="273" height="216"><defs><style>.cls-2{fill-rule:evenodd}</style></defs><path id="_ffbc0d" data-name="#ffbc0d" fill="#ffbc0d" d="M0 0h273v216H0z"/><path id="pro_Gutschein_" data-name="pro Gutschein!" class="cls-2" d="M41.228 535.835v-9.823A5.267 5.267 0 0043.343 528a6 6 0 002.772.673 6.606 6.606 0 003.957-1.219 7.993 7.993 0 002.644-3.4 12.5 12.5 0 00.948-5.021 12.968 12.968 0 00-.894-4.948 8.052 8.052 0 00-2.535-3.438 6.237 6.237 0 00-3.9-1.256 5.773 5.773 0 00-5.543 3.457l-.219-2.984h-5.545v25.978h6.2zm.766-12.788a6.9 6.9 0 01-.839-3.693v-.654a6.979 6.979 0 01.839-3.73 2.537 2.537 0 012.225-1.328 2.431 2.431 0 012.261 1.528 8.585 8.585 0 01.766 3.857 8.466 8.466 0 01-.766 3.839 2.431 2.431 0 01-2.261 1.51 2.537 2.537 0 01-2.225-1.329zm20.35 5.148v-8.769a4.194 4.194 0 011.094-3.183 3.865 3.865 0 012.772-1.037 6.86 6.86 0 01.839.054 3.671 3.671 0 01.656.128v-5.713c-.146-.023-.3-.048-.474-.072a4.521 4.521 0 00-.62-.037 4.353 4.353 0 00-3.1 1.092 6.151 6.151 0 00-1.641 2.4l-.292-3.2h-5.434V528.2h6.2zm20.733-.8a8.662 8.662 0 003.282-3.438 11.153 11.153 0 000-9.86 8.675 8.675 0 00-3.282-3.438 10.8 10.8 0 00-10.175 0 8.676 8.676 0 00-3.282 3.441 11.153 11.153 0 000 9.86 8.663 8.663 0 003.282 3.438 10.8 10.8 0 0010.175-.004zm-7.367-4.238a10.8 10.8 0 010-8.259 2.475 2.475 0 014.559 0 10.8 10.8 0 010 8.259 2.475 2.475 0 01-4.559-.001zm21.389-.492a10.6 10.6 0 004.121 4.494 13.944 13.944 0 0011.616.655 9.851 9.851 0 003.574-2.62 11.111 11.111 0 002.1-3.784 14.448 14.448 0 00.693-4.493v-1.528h-10.871v4.548h4.485a5.28 5.28 0 01-1.732 3.22 5 5 0 01-3.227 1.037 4.557 4.557 0 01-4.122-2.2 13.624 13.624 0 010-11.97 4.558 4.558 0 014.122-2.2q3.172 0 4.157 4h6.82a10.373 10.373 0 00-10.868-8.587 12.844 12.844 0 00-6.71 1.638 10.66 10.66 0 00-4.158 4.511 16.21 16.21 0 00.001 13.278zm35.886-12.807v10.37a4.71 4.71 0 01-.8 3.038 2.37 2.37 0 01-1.86.964 1.9 1.9 0 01-1.695-.855 4.13 4.13 0 01-.566-2.31v-11.208h-6.2v12.153a6.985 6.985 0 001.623 4.857 5.532 5.532 0 004.322 1.8 6.187 6.187 0 003.519-.964 5.621 5.621 0 002.1-2.493l.219 2.984h5.544v-18.337h-6.2zm19.675 18.556a7.173 7.173 0 002.133-.728l-.948-3.783a5.516 5.516 0 01-2.115.436 1.908 1.908 0 01-1.459-.582 2.524 2.524 0 01-.547-1.783v-8.114h4.34v-4h-4.34v-5.166h-6.2v5.166h-2.371v4h2.371v8.186a6.992 6.992 0 001.623 4.748 6.231 6.231 0 004.978 1.874 13.114 13.114 0 002.535-.255zm17.632-1.291a5.053 5.053 0 002.188-4.385 4.486 4.486 0 00-1.312-3.4 10.135 10.135 0 00-4.45-2.055l-2.626-.655a3.177 3.177 0 01-1.6-.782 1.671 1.671 0 01-.438-1.147 1.58 1.58 0 01.511-1.182 2.017 2.017 0 011.459-.491 1.985 1.985 0 011.568.618 3.121 3.121 0 01.693 1.674h5.981a6.781 6.781 0 00-2.517-4.4 8.762 8.762 0 00-5.434-1.528 12.917 12.917 0 00-4.194.637 6.624 6.624 0 00-2.954 1.91 4.745 4.745 0 00-1.094 3.2 4.65 4.65 0 001.331 3.529 8.25 8.25 0 003.7 1.892l3.063.8a3.842 3.842 0 011.842.909 1.716 1.716 0 01.492 1.165 1.4 1.4 0 01-.583 1.146 2.615 2.615 0 01-1.641.454 2.923 2.923 0 01-1.714-.563 2.785 2.785 0 01-.985-2.056h-6.017a6.3 6.3 0 002.534 4.639 10.15 10.15 0 006.109 1.619 10.415 10.415 0 006.088-1.549zm16.9.782a7.726 7.726 0 003.082-2.383 8.823 8.823 0 001.677-4.166h-6.09a5.268 5.268 0 01-.93 2.583 2.028 2.028 0 01-1.587.728 2.48 2.48 0 01-2.042-1.292 11.285 11.285 0 010-8.714 2.483 2.483 0 012.042-1.273 1.919 1.919 0 011.5.709 4.91 4.91 0 01.911 2.347h6.127a7.8 7.8 0 00-1.513-3.93 7.592 7.592 0 00-3.064-2.346 10.009 10.009 0 00-3.957-.783 9.791 9.791 0 00-4.741 1.146 8.469 8.469 0 00-3.355 3.311 10.265 10.265 0 00-1.24 5.185 10.5 10.5 0 001.24 5.294 8.086 8.086 0 003.355 3.256 10.182 10.182 0 004.741 1.092 9.774 9.774 0 003.852-.769zm13.257.291v-10.37a4.426 4.426 0 01.875-3.038 2.648 2.648 0 012.006-.964 2.152 2.152 0 011.86.855 3.864 3.864 0 01.62 2.311v11.21h6.2v-12.157a6.8 6.8 0 00-1.7-4.858 6.784 6.784 0 00-7.768-1.018 5.68 5.68 0 00-2.1 2.128v-9.569h-6.2V528.2h6.2zm28.72-1.073a7.292 7.292 0 003.081-4.639h-5.908a3.335 3.335 0 01-.912 1.746 2.549 2.549 0 01-1.823.619 2.661 2.661 0 01-2.134-1.037 6.5 6.5 0 01-1.073-3.512h12.071v-1.2a11.56 11.56 0 00-1.058-5.094 7.9 7.9 0 00-3.081-3.4 9.349 9.349 0 00-4.905-1.219 9.467 9.467 0 00-4.8 1.183 8.2 8.2 0 00-3.21 3.347 10.77 10.77 0 00-1.148 5.112 10.61 10.61 0 001.24 5.4 7.912 7.912 0 003.355 3.184 10.4 10.4 0 004.7 1.055 9.963 9.963 0 005.609-1.546zm-3.7-12.826a6.34 6.34 0 01.875 3.056H220.4a5.681 5.681 0 01.966-3.074 2.5 2.5 0 012.061-1.073 2.323 2.323 0 012.044 1.094zm14.97-7.477a3.246 3.246 0 000-4.693 3.625 3.625 0 00-4.923 0 3.246 3.246 0 000 4.693 3.625 3.625 0 004.925-.001zm.641 21.38v-18.343h-6.2V528.2h6.2zm9.846 0v-10.37a4.431 4.431 0 01.875-3.038 2.65 2.65 0 012.006-.964 2.15 2.15 0 011.86.855 3.864 3.864 0 01.62 2.311V528.2h6.2v-12.157a6.8 6.8 0 00-1.7-4.858 6.079 6.079 0 00-4.65-1.8 6.685 6.685 0 00-3.519.892 5.4 5.4 0 00-2.17 2.383l-.182-2.8h-5.544v18.34h6.2zm15.682-7.714h4.3l1.094-16.663h-6.528zm-.219 2.438a3.131 3.131 0 00-.948 2.365 3.18 3.18 0 00.948 2.311 3.148 3.148 0 002.334.964 3.225 3.225 0 002.334-.964 3.311 3.311 0 00.037-4.676 3.291 3.291 0 00-2.371-.909 3.243 3.243 0 00-2.334.904z" transform="translate(-17 -330)"/><path id="_" data-name="%" class="cls-2" d="M226.577 491.139l27.66-57.273h-12l-27.66 57.273h12zm-4.262-27.2q3.566-4.817 3.566-13.06t-3.566-13.06Q218.747 433 211.442 433t-10.873 4.816Q197 442.632 197 450.875t3.566 13.06q3.566 4.815 10.873 4.816t10.876-4.816zm-13.656-4.99a41.983 41.983 0 010-16.141q.782-2.515 2.783-2.516t2.783 2.516a41.983 41.983 0 010 16.141q-.783 2.519-2.783 2.516t-2.783-2.52zm59.408 28.246q3.566-4.816 3.566-13.06t-3.566-13.06q-3.569-4.817-10.873-4.816t-10.873 4.816q-3.567 4.816-3.566 13.06t3.566 13.06q3.567 4.817 10.873 4.816t10.873-4.82zm-13.656-4.99a41.978 41.978 0 010-16.14q.783-2.517 2.783-2.517t2.784 2.517a42.031 42.031 0 010 16.14q-.783 2.518-2.784 2.517t-2.783-2.522z" transform="translate(-17 -330)"/><path id="_50" data-name="50" class="cls-2" d="M58.275 451.622q4.164-7.738 12.5-7.739a10.824 10.824 0 018.619 4.084q3.447 4.085 3.447 12.4 0 7.6-3.16 11.679a10.459 10.459 0 01-8.762 4.084q-5.316 0-8.116-2.579t-3.807-7.882H35q1.434 12.9 10.845 20.278t24.635 7.38a46.853 46.853 0 0020.254-4.084 30.782 30.782 0 0013.366-11.754 33.768 33.768 0 004.741-18.129 33.25 33.25 0 00-3.879-16.337 27.7 27.7 0 00-10.92-10.963 33.281 33.281 0 00-16.519-3.94 27.959 27.959 0 00-9.409 1.5 28.831 28.831 0 00-7.685 4.085l1.293-17.905h41.226v-18.491H42.474l-3.735 54.313h19.536zm114.554 35.683q8.4-6.018 12.5-17.053t4.094-26.082q0-15.048-4.094-26.082t-12.5-17.053q-8.4-6.02-21.187-6.019t-21.188 6.019q-8.4 6.018-12.5 17.053t-4.094 26.082q0 15.046 4.094 26.082t12.5 17.053q8.4 6.019 21.188 6.019t21.187-6.019zM142.52 468.1q-2.8-7.738-2.8-23.932t2.8-23.932q2.8-7.738 9.122-7.739t9.121 7.739q2.8 7.738 2.8 23.932t-2.8 23.932q-2.8 7.739-9.121 7.739t-9.122-7.739z" transform="translate(-17 -330)"/><path id="_2" data-name="**" class="cls-2" d="M202.838 400.22q.173 1.35.381 2.63-1.215-.588-2.446-1.159t-2.168-.987l-.729 2.319q1.006.278 2.325.537t2.6.467q-.937.935-1.856 1.9t-1.579 1.765l2.012 1.419q.521-.864 1.18-2.042t1.249-2.354q.59 1.178 1.249 2.354t1.214 2.042l1.978-1.419q-.695-.8-1.6-1.765t-1.839-1.9q1.284-.207 2.62-.467t2.341-.537l-.763-2.319q-.936.416-2.168.987t-2.439 1.159q.242-1.279.4-2.63t.225-2.389H202.6q.064 1.04.238 2.389zm12.524 0q.173 1.35.381 2.63-1.215-.588-2.446-1.159t-2.168-.987l-.729 2.319q1.006.278 2.325.537t2.6.467q-.937.935-1.856 1.9t-1.579 1.765l2.013 1.419q.519-.864 1.179-2.042t1.249-2.354q.59 1.178 1.249 2.354t1.214 2.042l1.978-1.419q-.695-.8-1.6-1.765t-1.839-1.9q1.284-.207 2.62-.467t2.342-.537l-.764-2.319q-.936.416-2.168.987t-2.446 1.159q.243-1.279.4-2.63t.225-2.389h-2.428q.074 1.04.248 2.389z" transform="translate(-17 -330)"/><path id="Spare_bis_zu" data-name="Spare bis zu" class="cls-2" d="M55.836 377.771a8.093 8.093 0 003.145-6.764 9.987 9.987 0 00-.714-3.828 7.4 7.4 0 00-2.543-3.093 14.845 14.845 0 00-5.175-2.2l-4.684-1.2q-2.989-.756-2.989-3.382a3 3 0 01.937-2.27 3.606 3.606 0 012.587-.89 3.977 3.977 0 013.033 1.179 5.621 5.621 0 011.383 3.227h7.674a10.734 10.734 0 00-3.591-7.077q-2.967-2.492-8.275-2.492a15.654 15.654 0 00-5.8 1.024 9.539 9.539 0 00-4.126 3 7.7 7.7 0 00-1.539 4.873 8.287 8.287 0 001.918 5.852 11.521 11.521 0 005.755 3.049l4.952 1.291a4.611 4.611 0 012.61 1.468 3.816 3.816 0 01.736 2.359 3.078 3.078 0 01-.981 2.136 4.093 4.093 0 01-3.078 1.024 5.528 5.528 0 01-3.257-1 4.959 4.959 0 01-1.784-3.582h-7.807a10.092 10.092 0 003.814 7.232q3.279 2.514 8.944 2.514 5.71-.002 8.855-2.45zm14.074 11.082v-12.016a6.432 6.432 0 002.587 2.425 7.331 7.331 0 003.39.824 8.082 8.082 0 004.84-1.491 9.779 9.779 0 003.234-4.161 15.3 15.3 0 001.16-6.142 15.871 15.871 0 00-1.093-6.053 9.848 9.848 0 00-3.1-4.2 7.627 7.627 0 00-4.773-1.536 7.061 7.061 0 00-6.781 4.228l-.268-3.649h-6.78v31.776h7.584zm.937-15.643a8.431 8.431 0 01-1.026-4.517v-.8a8.531 8.531 0 011.026-4.562 3.1 3.1 0 012.721-1.625 2.971 2.971 0 012.766 1.87 10.5 10.5 0 01.937 4.717 10.349 10.349 0 01-.937 4.7 2.971 2.971 0 01-2.766 1.847 3.1 3.1 0 01-2.722-1.63zm26.877 5.941a7.906 7.906 0 003.1-2.581l.176 2.937h6.781v-12.951q0-5.028-2.431-7.543t-7.515-2.513a11.77 11.77 0 00-7.093 1.981 8.178 8.178 0 00-3.3 5.541h7.137a3.518 3.518 0 011.026-2.114 2.8 2.8 0 011.963-.735 2.434 2.434 0 012.119 1.046 5.1 5.1 0 01.736 2.96v.489a35.162 35.162 0 00-4.706.423 18.7 18.7 0 00-4.506 1.268 8.613 8.613 0 00-3.346 2.448 6.062 6.062 0 00-1.271 3.961 5.728 5.728 0 001.985 4.673 7.737 7.737 0 005.108 1.647 9.2 9.2 0 004.036-.937zm-2.855-4.384a2.582 2.582 0 01-.691-1.98 3.266 3.266 0 011.45-2.693 8.531 8.531 0 014.8-1.179v1.736a5.145 5.145 0 01-1.093 3.538 3.43 3.43 0 01-2.654 1.224 2.538 2.538 0 01-1.813-.646zm24.691 4.74v-10.725a5.135 5.135 0 011.338-3.895 4.733 4.733 0 013.39-1.268 8.2 8.2 0 011.026.067 4.46 4.46 0 01.8.156v-6.988a33.426 33.426 0 00-.579-.089 5.625 5.625 0 00-.759-.044 5.329 5.329 0 00-3.792 1.335 7.526 7.526 0 00-2.007 2.937l-.357-3.916h-6.647v22.43h7.584zm25.717-1.313a8.919 8.919 0 003.769-5.674h-7.226a4.092 4.092 0 01-1.115 2.136 3.123 3.123 0 01-2.231.757 3.254 3.254 0 01-2.61-1.269 7.944 7.944 0 01-1.315-4.294h14.765v-1.469a14.135 14.135 0 00-1.294-6.231 9.658 9.658 0 00-3.769-4.161 11.437 11.437 0 00-6-1.491 11.581 11.581 0 00-5.866 1.447 10.031 10.031 0 00-3.926 4.094 13.171 13.171 0 00-1.405 6.253 12.986 12.986 0 001.517 6.609 9.677 9.677 0 004.1 3.894 12.714 12.714 0 005.755 1.291 12.174 12.174 0 006.85-1.892zm-4.528-15.687a7.747 7.747 0 011.071 3.738h-7.271a6.956 6.956 0 011.182-3.761 3.055 3.055 0 012.52-1.313 2.837 2.837 0 012.497 1.336zm37.94 16.088a9.781 9.781 0 003.234-4.161 15.3 15.3 0 001.16-6.142 15.879 15.879 0 00-1.093-6.053 9.849 9.849 0 00-3.1-4.2 7.63 7.63 0 00-4.774-1.536 7.083 7.083 0 00-6.245 3.249v-11.398h-7.583v31.153h6.78l.268-3.738a6.376 6.376 0 002.653 3.231 7.34 7.34 0 003.859 1.091 8.084 8.084 0 004.84-1.491zm-9.881-5.385a8.426 8.426 0 01-1.026-4.517v-.8a8.527 8.527 0 011.026-4.562 3.1 3.1 0 012.721-1.625 2.972 2.972 0 012.766 1.87 10.5 10.5 0 01.937 4.717 10.357 10.357 0 01-.937 4.7 2.972 2.972 0 01-2.766 1.847 3.1 3.1 0 01-2.722-1.63zm24.111-19.849a3.971 3.971 0 000-5.741 4.432 4.432 0 00-6.022 0 3.971 3.971 0 000 5.741 4.434 4.434 0 006.021 0zm.781 26.146v-22.43h-7.584v22.43h7.584zm21.144-1.313a6.176 6.176 0 002.677-5.363 5.489 5.489 0 00-1.606-4.161 12.4 12.4 0 00-5.443-2.514l-3.211-.8a3.885 3.885 0 01-1.963-.957 2.042 2.042 0 01-.535-1.4 1.932 1.932 0 01.624-1.446 2.468 2.468 0 011.784-.6 2.428 2.428 0 011.919.756 3.8 3.8 0 01.847 2.048h7.316a8.291 8.291 0 00-3.078-5.385 10.709 10.709 0 00-6.647-1.87 15.82 15.82 0 00-5.13.779 8.107 8.107 0 00-3.613 2.337 5.8 5.8 0 00-1.338 3.916 5.688 5.688 0 001.628 4.317 10.1 10.1 0 004.528 2.314l3.747.979a4.718 4.718 0 012.253 1.113 2.1 2.1 0 01.6 1.424 1.71 1.71 0 01-.714 1.4 3.2 3.2 0 01-2.007.556 3.572 3.572 0 01-2.1-.69 3.4 3.4 0 01-1.2-2.514h-7.361a7.715 7.715 0 003.1 5.674 12.407 12.407 0 007.472 1.981q4.773-.002 7.45-1.894zm32.475 1.313v-5.3h-10.662l10.126-13.663v-3.471h-18.6v5.3h9.591l-9.859 13.574v3.56h19.405zm16.5-22.43v12.684a5.762 5.762 0 01-.981 3.716 2.9 2.9 0 01-2.275 1.179 2.318 2.318 0 01-2.074-1.046 5.053 5.053 0 01-.692-2.826v-13.707h-7.583v14.864a8.542 8.542 0 001.985 5.942 6.769 6.769 0 005.286 2.2 7.568 7.568 0 004.305-1.18 6.885 6.885 0 002.565-3.048l.267 3.649h6.781v-22.43h-7.584z" transform="translate(-17 -330)"/></svg>
