<svg width="102" height="102" viewBox="0 0 139.46 139.46" xmlns="http://www.w3.org/2000/svg"><path d="m12.08 139.46s-12.08 0-12.08-12.08v-115.3s0-12.08 12.08-12.08h115.3s12.08 0 12.08 12.08v115.3s0 12.08-12.08 12.08z" fill="#db0007"/><path d="m90 28.66c-8.18 0-15.48 10.9-20.25 27.94-4.75-17.04-12.09-27.94-20.27-27.94-14.38 0-26 36.27-26 81h11.52c0-41.55 6.48-75.22 14.46-75.22s14.54 31.1 14.54 69.44h11.52c0-38.34 6.48-69.43 14.48-69.43s14.47 33.67 14.47 75.22h11.53c0-44.74-11.63-81.01-26-81.01z" fill="#ffbc0d"/></svg>
