<svg xmlns="http://www.w3.org/2000/svg" width="511.281" height="118.688"><path data-name="App-solut mega Gutscheine!" d="M45.28 48.412L28.68 2.076H16.671L.006 48.412h12.013l2.708-8.576h15.415l2.708 8.576h12.43zm-22.845-33.2l4.93 15.837h-9.93zm39.3 47.719V44.262a10.008 10.008 0 004.027 3.769 11.427 11.427 0 005.277 1.28 12.59 12.59 0 007.534-2.317 15.2 15.2 0 005.034-6.466 23.744 23.744 0 001.812-9.54 24.616 24.616 0 00-1.7-9.405 15.312 15.312 0 00-4.826-6.536 11.892 11.892 0 00-7.43-2.386 10.993 10.993 0 00-10.555 6.57l-.417-5.671h-10.56v49.379h11.8zm1.458-24.309a13.086 13.086 0 01-1.6-7.02v-1.245a13.241 13.241 0 011.6-7.088 4.83 4.83 0 014.236-2.524 4.626 4.626 0 014.305 2.9 16.291 16.291 0 011.458 7.331 16.061 16.061 0 01-1.458 7.3 4.626 4.626 0 01-4.305 2.87 4.83 4.83 0 01-4.235-2.52zm40.136 24.309V44.262a10.006 10.006 0 004.027 3.769 11.427 11.427 0 005.277 1.28 12.593 12.593 0 007.535-2.317 15.2 15.2 0 005.034-6.466 23.74 23.74 0 001.8-9.544 24.61 24.61 0 00-1.7-9.405 15.314 15.314 0 00-4.826-6.536 11.892 11.892 0 00-7.43-2.386 10.994 10.994 0 00-10.555 6.57l-.416-5.671h-10.55v49.379h11.805zm1.458-24.309a13.08 13.08 0 01-1.6-7.02v-1.245a13.236 13.236 0 011.6-7.088 4.829 4.829 0 014.236-2.524 4.626 4.626 0 014.305 2.9 16.294 16.294 0 011.458 7.331 16.063 16.063 0 01-1.458 7.3 4.626 4.626 0 01-4.305 2.87 4.829 4.829 0 01-4.235-2.52zm48.4-2.8v-8.991h-22.5v8.991h22.5zm31.872 10.546a9.6 9.6 0 004.166-8.333 8.514 8.514 0 00-2.5-6.466q-2.5-2.386-8.471-3.908l-5-1.244a6.047 6.047 0 01-3.055-1.487 3.17 3.17 0 01-.834-2.179 3 3 0 01.973-2.247 3.845 3.845 0 012.777-.934 3.778 3.778 0 012.986 1.176 5.9 5.9 0 011.319 3.181h11.388a12.879 12.879 0 00-4.791-8.368q-3.819-2.905-10.346-2.905a24.634 24.634 0 00-7.986 1.21 12.61 12.61 0 00-5.624 3.631 9 9 0 00-2.084 6.086 8.832 8.832 0 002.535 6.708 15.732 15.732 0 007.048 3.6l5.833 1.521a7.337 7.337 0 013.507 1.729 3.261 3.261 0 01.937 2.213 2.653 2.653 0 01-1.111 2.178 4.981 4.981 0 01-3.125.865 5.57 5.57 0 01-3.263-1.072 5.288 5.288 0 01-1.875-3.907h-11.458a11.981 11.981 0 004.826 8.817q4.2 3.078 11.631 3.078t11.597-2.94zm36.281.519a16.5 16.5 0 006.25-6.535 21.17 21.17 0 000-18.742 16.51 16.51 0 00-6.25-6.535 20.589 20.589 0 00-19.373 0 16.517 16.517 0 00-6.25 6.535 21.17 21.17 0 000 18.742 16.5 16.5 0 006.25 6.535 20.589 20.589 0 0019.373.001zm-14.021-8.054a20.489 20.489 0 010-15.7 4.716 4.716 0 018.68 0 20.5 20.5 0 010 15.7 4.716 4.716 0 01-8.68 0zm40.377 9.579V.001h-11.8v48.411h11.8zm29.234-34.856v19.71q0 3.942-1.528 5.775a4.515 4.515 0 01-3.541 1.832 3.612 3.612 0 01-3.229-1.625 7.854 7.854 0 01-1.077-4.391v-21.3h-11.8v23.1q0 5.809 3.09 9.232a10.542 10.542 0 008.228 3.424 11.8 11.8 0 006.7-1.833 10.7 10.7 0 003.993-4.737l.417 5.671h10.546V13.556h-11.8zm38.85 35.27a13.682 13.682 0 004.062-1.383l-1.805-7.192a10.525 10.525 0 01-4.028.83 3.632 3.632 0 01-2.777-1.107 4.791 4.791 0 01-1.042-3.388V21.164h8.263v-7.608h-8.263v-9.82h-11.81v9.82h-4.513v7.608h4.513v15.56a13.274 13.274 0 003.09 9.025q3.09 3.563 9.479 3.562a25 25 0 004.826-.485zm22.879-.414h11.8v-19.71q0-3.942 1.528-5.775a4.517 4.517 0 013.541-1.833 3.617 3.617 0 013.229 1.626 7.864 7.864 0 011.077 4.391v21.3h11.8v-19.71q0-3.942 1.528-5.775a4.517 4.517 0 013.541-1.833 3.617 3.617 0 013.229 1.626 7.864 7.864 0 011.076 4.391v21.3h11.811v-23.1q0-5.809-3.125-9.233a10.988 10.988 0 00-8.541-3.423 12.649 12.649 0 00-6.77 1.695 9.963 9.963 0 00-3.993 4.529 10.674 10.674 0 00-4.062-4.564 13.135 13.135 0 00-12.846.035 10.072 10.072 0 00-3.923 4.529l-.348-5.325h-10.557v34.856zm88.222-2.041a13.863 13.863 0 005.867-8.817h-11.254a6.345 6.345 0 01-1.736 3.319 4.863 4.863 0 01-3.472 1.176 5.065 5.065 0 01-4.062-1.971q-1.632-1.971-2.048-6.674h22.984v-2.282a21.942 21.942 0 00-2.014-9.682 15.021 15.021 0 00-5.868-6.466 17.814 17.814 0 00-9.339-2.317 18.049 18.049 0 00-9.131 2.248 15.61 15.61 0 00-6.111 6.362 20.424 20.424 0 00-2.187 9.717 20.137 20.137 0 002.361 10.27 15.056 15.056 0 006.388 6.051 19.81 19.81 0 008.958 2.006 18.979 18.979 0 0010.659-2.94zm-7.048-24.378a12.042 12.042 0 011.666 5.81h-11.323a10.788 10.788 0 011.84-5.844 4.756 4.756 0 013.923-2.04 4.423 4.423 0 013.889 2.074zm52.564 23.514V13.556h-10.559l-.348 5.256a9.98 9.98 0 00-4.166-4.633 10.976 10.976 0 00-5.416-1.522 13.833 13.833 0 00-7.951 2.282 14.873 14.873 0 00-5.208 6.328 22.25 22.25 0 00-1.84 9.3 23.4 23.4 0 001.736 9.3 15.264 15.264 0 004.9 6.4 12.263 12.263 0 007.535 2.351 11.6 11.6 0 005.485-1.279 11.273 11.273 0 004.028-3.562v5.256q0 7.744-5.972 7.746a5.366 5.366 0 01-3.611-1.245 6.1 6.1 0 01-1.944-3.458h-11.11a12.574 12.574 0 005.589 8.817 19.973 19.973 0 0011.076 2.94q17.775 0 17.776-18.327zm-21.8-7.78a15.453 15.453 0 01-1.458-7.158 15.064 15.064 0 011.458-7.054 4.636 4.636 0 014.306-2.766 4.9 4.9 0 014.2 2.42 12.046 12.046 0 011.632 6.778v1.241a12.332 12.332 0 01-1.632 6.916 4.9 4.9 0 01-4.2 2.421 4.633 4.633 0 01-4.315-2.798zm45.022 10.131a12.294 12.294 0 004.826-4.011l.274 4.565h10.555V28.288q0-7.815-3.785-11.722t-11.7-3.908q-6.805 0-11.041 3.078a12.708 12.708 0 00-5.138 8.61h11.11a5.468 5.468 0 011.6-3.285 4.363 4.363 0 013.055-1.141 3.791 3.791 0 013.3 1.625 7.9 7.9 0 011.145 4.6v.761a54.651 54.651 0 00-7.325.657 29.078 29.078 0 00-7.014 1.971 13.4 13.4 0 00-5.208 3.8 9.412 9.412 0 00-1.979 6.155 8.9 8.9 0 003.09 7.262 12.057 12.057 0 007.951 2.559 14.335 14.335 0 006.284-1.452zm-4.444-6.812a4.011 4.011 0 01-1.076-3.077 5.068 5.068 0 012.257-4.184q2.256-1.694 7.464-1.833v2.7a7.985 7.985 0 01-1.7 5.5 5.339 5.339 0 01-4.131 1.9 3.96 3.96 0 01-2.814-1.006zM4.728 107.057a20.172 20.172 0 007.847 8.541 23.773 23.773 0 0012.429 3.077 23.737 23.737 0 009.687-1.832 18.72 18.72 0 006.805-4.98 21.1 21.1 0 003.993-7.192 27.392 27.392 0 001.319-8.541v-2.9H26.119v8.644h8.541a10.038 10.038 0 01-3.3 6.121 9.53 9.53 0 01-6.145 1.971 8.676 8.676 0 01-7.847-4.184q-2.64-4.183-2.639-11.377t2.639-11.376a8.678 8.678 0 017.847-4.184q6.041 0 7.916 7.607h12.982a21.021 21.021 0 00-7.117-12.033q-5.312-4.287-13.575-4.288a24.5 24.5 0 00-12.777 3.112 20.278 20.278 0 00-7.916 8.576 30.764 30.764 0 000 25.238zm69.716-24.343v19.709q0 3.942-1.528 5.775a4.517 4.517 0 01-3.541 1.833 3.615 3.615 0 01-3.229-1.625 7.854 7.854 0 01-1.076-4.392v-21.3h-11.8v23.1q0 5.809 3.09 9.233a10.542 10.542 0 008.228 3.423 11.8 11.8 0 006.7-1.833 10.7 10.7 0 003.993-4.737l.417 5.671h10.555V82.714h-11.8zm38.851 35.27a13.73 13.73 0 004.062-1.383l-1.806-7.193a10.225 10.225 0 01-2.013.623 10.334 10.334 0 01-2.014.207 3.634 3.634 0 01-2.778-1.106 4.8 4.8 0 01-1.041-3.389V90.321h8.263v-7.607h-8.263v-9.821h-11.8v9.821h-4.513v7.607h4.513v15.56a13.274 13.274 0 003.09 9.025q3.088 3.563 9.479 3.562a25.081 25.081 0 004.82-.48zm34.961-2.455a9.6 9.6 0 004.166-8.334 8.518 8.518 0 00-2.5-6.466q-2.5-2.387-8.472-3.907l-5-1.245a6.052 6.052 0 01-3.055-1.487 3.171 3.171 0 01-.833-2.178 3 3 0 01.972-2.248 3.848 3.848 0 012.778-.934 3.781 3.781 0 012.985 1.176 5.9 5.9 0 011.32 3.181h11.388a12.881 12.881 0 00-4.792-8.368q-3.819-2.9-10.346-2.9a24.628 24.628 0 00-7.985 1.21 12.6 12.6 0 00-5.625 3.631 9 9 0 00-2.083 6.085 8.833 8.833 0 002.534 6.709 15.752 15.752 0 007.048 3.6l5.833 1.521a7.355 7.355 0 013.507 1.729 3.258 3.258 0 01.937 2.213 2.654 2.654 0 01-1.114 2.171 4.978 4.978 0 01-3.124.864 5.568 5.568 0 01-3.264-1.072 5.288 5.288 0 01-1.875-3.907h-11.454a11.975 11.975 0 004.826 8.817q4.2 3.078 11.631 3.078t11.596-2.939zm33.574 1.487a14.693 14.693 0 005.867-4.53 16.756 16.756 0 003.194-7.919h-11.6a9.987 9.987 0 01-1.771 4.91 3.856 3.856 0 01-3.02 1.384 4.72 4.72 0 01-3.889-2.455q-1.667-2.454-1.666-8.265 0-5.877 1.666-8.3a4.731 4.731 0 013.889-2.42 3.656 3.656 0 012.847 1.348 9.345 9.345 0 011.736 4.461h11.666a14.837 14.837 0 00-2.882-7.469 14.466 14.466 0 00-5.833-4.461 19.123 19.123 0 00-7.534-1.486 18.665 18.665 0 00-9.027 2.178 16.1 16.1 0 00-6.389 6.293 19.488 19.488 0 00-2.36 9.855 19.927 19.927 0 002.36 10.063 15.4 15.4 0 006.389 6.189 19.419 19.419 0 009.027 2.075 18.635 18.635 0 007.329-1.451zm26.629.553v-19.71q0-3.942 1.667-5.775a5.044 5.044 0 013.819-1.832 4.093 4.093 0 013.541 1.625 7.328 7.328 0 011.181 4.391v21.3h11.8v-23.1q0-5.808-3.228-9.232t-8.854-3.423a11.527 11.527 0 00-5.937 1.486 10.842 10.842 0 00-3.993 4.046V69.159h-11.8v48.41h11.8zm56.072-2.04a13.866 13.866 0 005.868-8.818h-11.25a6.356 6.356 0 01-1.736 3.32 4.868 4.868 0 01-3.472 1.175 5.069 5.069 0 01-4.063-1.971q-1.632-1.971-2.048-6.673h22.989v-2.282a21.942 21.942 0 00-2.013-9.682 15.036 15.036 0 00-5.868-6.467 17.815 17.815 0 00-9.34-2.316 18.049 18.049 0 00-9.131 2.247 15.6 15.6 0 00-6.11 6.363 20.408 20.408 0 00-2.188 9.716 20.145 20.145 0 002.361 10.27 15.047 15.047 0 006.389 6.051 19.809 19.809 0 008.957 2.006 18.984 18.984 0 0010.654-2.939zm-7.048-24.378a12.034 12.034 0 011.667 5.809h-11.32a10.8 10.8 0 011.84-5.844 4.76 4.76 0 013.923-2.04 4.423 4.423 0 013.889 2.075zm29.893-14.212a6.163 6.163 0 000-8.921 6.909 6.909 0 00-9.374 0 6.163 6.163 0 000 8.921 6.909 6.909 0 009.373 0zm1.215 40.63V82.714h-11.8v34.855h11.8zm20.137 0v-19.71q0-3.942 1.666-5.775a5.044 5.044 0 013.82-1.832 4.1 4.1 0 013.541 1.625 7.328 7.328 0 011.18 4.391v21.3h11.804v-23.1q0-5.808-3.229-9.232t-8.853-3.423a12.747 12.747 0 00-6.7 1.694 10.273 10.273 0 00-4.132 4.53l-.347-5.325h-10.559v34.855h11.805zm56.072-2.04a13.865 13.865 0 005.867-8.818h-11.248a6.349 6.349 0 01-1.736 3.32 4.867 4.867 0 01-3.472 1.175 5.065 5.065 0 01-4.062-1.971q-1.632-1.971-2.048-6.673h22.984v-2.282a21.942 21.942 0 00-2.014-9.682 15.023 15.023 0 00-5.868-6.467 17.814 17.814 0 00-9.339-2.316 18.049 18.049 0 00-9.131 2.247 15.606 15.606 0 00-6.111 6.363 20.42 20.42 0 00-2.187 9.716 20.134 20.134 0 002.361 10.27 15.05 15.05 0 006.388 6.051 19.81 19.81 0 008.958 2.006 18.986 18.986 0 0010.657-2.939zm-7.048-24.378a12.034 12.034 0 011.666 5.809h-11.319a10.791 10.791 0 011.84-5.844 4.759 4.759 0 013.923-2.04 4.423 4.423 0 013.889 2.075zm20.622 11.757h8.194l2.083-31.675h-12.432zm-.416 4.633a5.941 5.941 0 00-1.806 4.5 6.211 6.211 0 006.25 6.224 6.147 6.147 0 004.444-1.832 6.283 6.283 0 00.069-8.887 6.271 6.271 0 00-4.513-1.729 6.18 6.18 0 00-4.445 1.724z" fill-rule="evenodd"/></svg>
